{
  "header": {
    "keySignatures": [],
    "meta": [
      {
        "ticks": 0,
        "type": "sequencerSpecific"
      },
      {
        "ticks": 0,
        "type": "sequencerSpecific"
      }
    ],
    "name": "version01",
    "ppq": 96,
    "tempos": [
      {
        "bpm": 160,
        "ticks": 0
      }
    ],
    "timeSignatures": [
      {
        "ticks": 0,
        "timeSignature": [
          4,
          4
        ],
        "measures": 0
      }
    ]
  },
  "tracks": [
    {
      "channel": 0,
      "controlChanges": {
        "0": [
          {
            "number": 0,
            "ticks": 0,
            "time": 0,
            "value": 0
          }
        ],
        "32": [
          {
            "number": 32,
            "ticks": 0,
            "time": 0,
            "value": 0
          }
        ]
      },
      "instrument": {
        "family": "brass",
        "name": "trombone",
        "number": 57
      },
      "name": "MIDI 01",
      "notes": [
        {
          "duration": 1.24609375,
          "durationTicks": 319,
          "midi": 69,
          "name": "A4",
          "ticks": 3072,
          "time": 12,
          "velocity": 0.6299212598425197
        },
        {
          "duration": 0.24609375,
          "durationTicks": 63,
          "midi": 64,
          "name": "E4",
          "ticks": 3392,
          "time": 13.25,
          "velocity": 0.6299212598425197
        },
        {
          "duration": 0.99609375,
          "durationTicks": 255,
          "midi": 68,
          "name": "G#4",
          "ticks": 3456,
          "time": 13.5,
          "velocity": 0.6299212598425197
        },
        {
          "duration": 0.24609375,
          "durationTicks": 63,
          "midi": 69,
          "name": "A4",
          "ticks": 3712,
          "time": 14.5,
          "velocity": 0.6299212598425197
        },
        {
          "duration": 0.24609375,
          "durationTicks": 63,
          "midi": 68,
          "name": "G#4",
          "ticks": 3776,
          "time": 14.75,
          "velocity": 0.6299212598425197
        },
        {
          "duration": 1.24609375,
          "durationTicks": 319,
          "midi": 67,
          "name": "G4",
          "ticks": 3840,
          "time": 15,
          "velocity": 0.6299212598425197
        },
        {
          "duration": 0.24609375,
          "durationTicks": 63,
          "midi": 62,
          "name": "D4",
          "ticks": 4160,
          "time": 16.25,
          "velocity": 0.6299212598425197
        },
        {
          "duration": 0.74609375,
          "durationTicks": 191,
          "midi": 66,
          "name": "F#4",
          "ticks": 4224,
          "time": 16.5,
          "velocity": 0.6299212598425197
        },
        {
          "duration": 0.18359375,
          "durationTicks": 47,
          "midi": 64,
          "name": "E4",
          "ticks": 4416,
          "time": 17.25,
          "velocity": 0.6299212598425197
        },
        {
          "duration": 0.18359375,
          "durationTicks": 47,
          "midi": 66,
          "name": "F#4",
          "ticks": 4464,
          "time": 17.4375,
          "velocity": 0.6299212598425197
        },
        {
          "duration": 0.18359375,
          "durationTicks": 47,
          "midi": 67,
          "name": "G4",
          "ticks": 4512,
          "time": 17.625,
          "velocity": 0.6299212598425197
        },
        {
          "duration": 0.18359375,
          "durationTicks": 47,
          "midi": 68,
          "name": "G#4",
          "ticks": 4560,
          "time": 17.8125,
          "velocity": 0.6299212598425197
        },
        {
          "duration": 0.99609375,
          "durationTicks": 255,
          "midi": 69,
          "name": "A4",
          "ticks": 4608,
          "time": 18,
          "velocity": 0.6299212598425197
        },
        {
          "duration": 0.24609375,
          "durationTicks": 63,
          "midi": 69,
          "name": "A4",
          "ticks": 4864,
          "time": 19,
          "velocity": 0.6299212598425197
        },
        {
          "duration": 0.24609375,
          "durationTicks": 63,
          "midi": 64,
          "name": "E4",
          "ticks": 4928,
          "time": 19.25,
          "velocity": 0.6299212598425197
        },
        {
          "duration": 0.99609375,
          "durationTicks": 255,
          "midi": 68,
          "name": "G#4",
          "ticks": 4992,
          "time": 19.5,
          "velocity": 0.6299212598425197
        },
        {
          "duration": 0.24609375,
          "durationTicks": 63,
          "midi": 69,
          "name": "A4",
          "ticks": 5248,
          "time": 20.5,
          "velocity": 0.6299212598425197
        },
        {
          "duration": 0.24609375,
          "durationTicks": 63,
          "midi": 68,
          "name": "G#4",
          "ticks": 5312,
          "time": 20.75,
          "velocity": 0.6299212598425197
        },
        {
          "duration": 0.99609375,
          "durationTicks": 255,
          "midi": 67,
          "name": "G4",
          "ticks": 5376,
          "time": 21,
          "velocity": 0.6299212598425197
        },
        {
          "duration": 0.24609375,
          "durationTicks": 63,
          "midi": 67,
          "name": "G4",
          "ticks": 5632,
          "time": 22,
          "velocity": 0.6299212598425197
        },
        {
          "duration": 0.24609375,
          "durationTicks": 63,
          "midi": 62,
          "name": "D4",
          "ticks": 5696,
          "time": 22.25,
          "velocity": 0.6299212598425197
        },
        {
          "duration": 0.74609375,
          "durationTicks": 191,
          "midi": 66,
          "name": "F#4",
          "ticks": 5760,
          "time": 22.5,
          "velocity": 0.6299212598425197
        },
        {
          "duration": 0.18359375,
          "durationTicks": 47,
          "midi": 64,
          "name": "E4",
          "ticks": 5952,
          "time": 23.25,
          "velocity": 0.6299212598425197
        },
        {
          "duration": 0.18359375,
          "durationTicks": 47,
          "midi": 66,
          "name": "F#4",
          "ticks": 6000,
          "time": 23.4375,
          "velocity": 0.6299212598425197
        },
        {
          "duration": 0.18359375,
          "durationTicks": 47,
          "midi": 67,
          "name": "G4",
          "ticks": 6048,
          "time": 23.625,
          "velocity": 0.6299212598425197
        },
        {
          "duration": 0.18359375,
          "durationTicks": 47,
          "midi": 68,
          "name": "G#4",
          "ticks": 6096,
          "time": 23.8125,
          "velocity": 0.6299212598425197
        },
        {
          "duration": 0.99609375,
          "durationTicks": 255,
          "midi": 69,
          "name": "A4",
          "ticks": 6144,
          "time": 24,
          "velocity": 0.6299212598425197
        },
        {
          "duration": 0.24609375,
          "durationTicks": 63,
          "midi": 69,
          "name": "A4",
          "ticks": 6400,
          "time": 25,
          "velocity": 0.6299212598425197
        },
        {
          "duration": 0.24609375,
          "durationTicks": 63,
          "midi": 64,
          "name": "E4",
          "ticks": 6464,
          "time": 25.25,
          "velocity": 0.6299212598425197
        },
        {
          "duration": 0.99609375,
          "durationTicks": 255,
          "midi": 68,
          "name": "G#4",
          "ticks": 6528,
          "time": 25.5,
          "velocity": 0.6299212598425197
        },
        {
          "duration": 0.24609375,
          "durationTicks": 63,
          "midi": 69,
          "name": "A4",
          "ticks": 6784,
          "time": 26.5,
          "velocity": 0.6299212598425197
        },
        {
          "duration": 0.24609375,
          "durationTicks": 63,
          "midi": 68,
          "name": "G#4",
          "ticks": 6848,
          "time": 26.75,
          "velocity": 0.6299212598425197
        },
        {
          "duration": 0.99609375,
          "durationTicks": 255,
          "midi": 67,
          "name": "G4",
          "ticks": 6912,
          "time": 27,
          "velocity": 0.6299212598425197
        },
        {
          "duration": 0.24609375,
          "durationTicks": 63,
          "midi": 67,
          "name": "G4",
          "ticks": 7168,
          "time": 28,
          "velocity": 0.6299212598425197
        },
        {
          "duration": 0.24609375,
          "durationTicks": 63,
          "midi": 62,
          "name": "D4",
          "ticks": 7232,
          "time": 28.25,
          "velocity": 0.6299212598425197
        },
        {
          "duration": 0.18359375,
          "durationTicks": 47,
          "midi": 64,
          "name": "E4",
          "ticks": 7296,
          "time": 28.5,
          "velocity": 0.6299212598425197
        },
        {
          "duration": 0.18359375,
          "durationTicks": 47,
          "midi": 69,
          "name": "A4",
          "ticks": 7488,
          "time": 29.25,
          "velocity": 0.6299212598425197
        },
        {
          "duration": 0.18359375,
          "durationTicks": 47,
          "midi": 67,
          "name": "G4",
          "ticks": 7536,
          "time": 29.4375,
          "velocity": 0.6299212598425197
        },
        {
          "duration": 0.18359375,
          "durationTicks": 47,
          "midi": 65,
          "name": "F4",
          "ticks": 7584,
          "time": 29.625,
          "velocity": 0.6299212598425197
        },
        {
          "duration": 0.18359375,
          "durationTicks": 47,
          "midi": 64,
          "name": "E4",
          "ticks": 7632,
          "time": 29.8125,
          "velocity": 0.6299212598425197
        },
        {
          "duration": 1.12109375,
          "durationTicks": 287,
          "midi": 62,
          "name": "D4",
          "ticks": 7680,
          "time": 30,
          "velocity": 0.6299212598425197
        },
        {
          "duration": 0.37109375,
          "durationTicks": 95,
          "midi": 57,
          "name": "A3",
          "ticks": 7968,
          "time": 31.125,
          "velocity": 0.6299212598425197
        },
        {
          "duration": 0.99609375,
          "durationTicks": 255,
          "midi": 61,
          "name": "C#4",
          "ticks": 8064,
          "time": 31.5,
          "velocity": 0.6299212598425197
        },
        {
          "duration": 0.24609375,
          "durationTicks": 63,
          "midi": 62,
          "name": "D4",
          "ticks": 8320,
          "time": 32.5,
          "velocity": 0.6299212598425197
        },
        {
          "duration": 0.24609375,
          "durationTicks": 63,
          "midi": 61,
          "name": "C#4",
          "ticks": 8384,
          "time": 32.75,
          "velocity": 0.6299212598425197
        },
        {
          "duration": 1.12109375,
          "durationTicks": 287,
          "midi": 60,
          "name": "C4",
          "ticks": 8448,
          "time": 33,
          "velocity": 0.6299212598425197
        },
        {
          "duration": 0.37109375,
          "durationTicks": 95,
          "midi": 55,
          "name": "G3",
          "ticks": 8736,
          "time": 34.125,
          "velocity": 0.6299212598425197
        },
        {
          "duration": 0.74609375,
          "durationTicks": 191,
          "midi": 59,
          "name": "B3",
          "ticks": 8832,
          "time": 34.5,
          "velocity": 0.6299212598425197
        },
        {
          "duration": 0.18359375,
          "durationTicks": 47,
          "midi": 57,
          "name": "A3",
          "ticks": 9024,
          "time": 35.25,
          "velocity": 0.6299212598425197
        },
        {
          "duration": 0.18359375,
          "durationTicks": 47,
          "midi": 59,
          "name": "B3",
          "ticks": 9072,
          "time": 35.4375,
          "velocity": 0.6299212598425197
        },
        {
          "duration": 0.18359375,
          "durationTicks": 47,
          "midi": 60,
          "name": "C4",
          "ticks": 9120,
          "time": 35.625,
          "velocity": 0.6299212598425197
        },
        {
          "duration": 0.18359375,
          "durationTicks": 47,
          "midi": 61,
          "name": "C#4",
          "ticks": 9168,
          "time": 35.8125,
          "velocity": 0.6299212598425197
        },
        {
          "duration": 1.12109375,
          "durationTicks": 287,
          "midi": 62,
          "name": "D4",
          "ticks": 9216,
          "time": 36,
          "velocity": 0.6299212598425197
        },
        {
          "duration": 0.37109375,
          "durationTicks": 95,
          "midi": 57,
          "name": "A3",
          "ticks": 9504,
          "time": 37.125,
          "velocity": 0.6299212598425197
        },
        {
          "duration": 1.12109375,
          "durationTicks": 287,
          "midi": 61,
          "name": "C#4",
          "ticks": 9600,
          "time": 37.5,
          "velocity": 0.6299212598425197
        },
        {
          "duration": 0.18359375,
          "durationTicks": 47,
          "midi": 62,
          "name": "D4",
          "ticks": 9888,
          "time": 38.625,
          "velocity": 0.6299212598425197
        },
        {
          "duration": 0.18359375,
          "durationTicks": 47,
          "midi": 61,
          "name": "C#4",
          "ticks": 9936,
          "time": 38.8125,
          "velocity": 0.6299212598425197
        },
        {
          "duration": 1.12109375,
          "durationTicks": 287,
          "midi": 60,
          "name": "C4",
          "ticks": 9984,
          "time": 39,
          "velocity": 0.6299212598425197
        },
        {
          "duration": 0.37109375,
          "durationTicks": 95,
          "midi": 55,
          "name": "G3",
          "ticks": 10272,
          "time": 40.125,
          "velocity": 0.6299212598425197
        },
        {
          "duration": 0.74609375,
          "durationTicks": 191,
          "midi": 59,
          "name": "B3",
          "ticks": 10368,
          "time": 40.5,
          "velocity": 0.6299212598425197
        },
        {
          "duration": 0.18359375,
          "durationTicks": 47,
          "midi": 57,
          "name": "A3",
          "ticks": 10560,
          "time": 41.25,
          "velocity": 0.6299212598425197
        },
        {
          "duration": 0.18359375,
          "durationTicks": 47,
          "midi": 55,
          "name": "G3",
          "ticks": 10608,
          "time": 41.4375,
          "velocity": 0.6299212598425197
        },
        {
          "duration": 0.18359375,
          "durationTicks": 47,
          "midi": 57,
          "name": "A3",
          "ticks": 10656,
          "time": 41.625,
          "velocity": 0.6299212598425197
        },
        {
          "duration": 0.18359375,
          "durationTicks": 47,
          "midi": 60,
          "name": "C4",
          "ticks": 10704,
          "time": 41.8125,
          "velocity": 0.6299212598425197
        },
        {
          "duration": 0.60546875,
          "durationTicks": 155,
          "midi": 58,
          "name": "A#3",
          "ticks": 10752,
          "time": 42,
          "velocity": 0.6299212598425197
        },
        {
          "duration": 0.23046875,
          "durationTicks": 59,
          "midi": 58,
          "name": "A#3",
          "ticks": 10944,
          "time": 42.75,
          "velocity": 0.6299212598425197
        },
        {
          "duration": 0.74609375,
          "durationTicks": 191,
          "midi": 60,
          "name": "C4",
          "ticks": 11099,
          "time": 43.35546875,
          "velocity": 0.6299212598425197
        },
        {
          "duration": 0.1328125,
          "durationTicks": 34,
          "midi": 60,
          "name": "C4",
          "ticks": 11291,
          "time": 44.10546875,
          "velocity": 0.6299212598425197
        },
        {
          "duration": 0.37109375,
          "durationTicks": 95,
          "midi": 60,
          "name": "C4",
          "ticks": 11328,
          "time": 44.25,
          "velocity": 0.6299212598425197
        },
        {
          "duration": 0.2265625,
          "durationTicks": 58,
          "midi": 60,
          "name": "C4",
          "ticks": 11424,
          "time": 44.625,
          "velocity": 0.6299212598425197
        },
        {
          "duration": 0.37109375,
          "durationTicks": 95,
          "midi": 62,
          "name": "D4",
          "ticks": 11520,
          "time": 45,
          "velocity": 0.6299212598425197
        },
        {
          "duration": 0.37109375,
          "durationTicks": 95,
          "midi": 62,
          "name": "D4",
          "ticks": 11616,
          "time": 45.375,
          "velocity": 0.6299212598425197
        },
        {
          "duration": 0.23046875,
          "durationTicks": 59,
          "midi": 62,
          "name": "D4",
          "ticks": 11712,
          "time": 45.75,
          "velocity": 0.6299212598425197
        },
        {
          "duration": 0.18359375,
          "durationTicks": 47,
          "midi": 64,
          "name": "E4",
          "ticks": 11904,
          "time": 46.5,
          "velocity": 0.6299212598425197
        },
        {
          "duration": 0.2265625,
          "durationTicks": 58,
          "midi": 64,
          "name": "E4",
          "ticks": 12000,
          "time": 46.875,
          "velocity": 0.6299212598425197
        },
        {
          "duration": 0.2265625,
          "durationTicks": 58,
          "midi": 64,
          "name": "E4",
          "ticks": 12096,
          "time": 47.25,
          "velocity": 0.6299212598425197
        },
        {
          "duration": 0.140625,
          "durationTicks": 36,
          "midi": 64,
          "name": "E4",
          "ticks": 12155,
          "time": 47.48046875,
          "velocity": 0.6299212598425197
        },
        {
          "duration": 0.796875,
          "durationTicks": 204,
          "midi": 65,
          "name": "F4",
          "ticks": 12251,
          "time": 47.85546875,
          "velocity": 0.6299212598425197
        },
        {
          "duration": 0.23046875,
          "durationTicks": 59,
          "midi": 65,
          "name": "F4",
          "ticks": 12480,
          "time": 48.75,
          "velocity": 0.6299212598425197
        },
        {
          "duration": 0.74609375,
          "durationTicks": 191,
          "midi": 67,
          "name": "G4",
          "ticks": 12635,
          "time": 49.35546875,
          "velocity": 0.6299212598425197
        },
        {
          "duration": 0.1328125,
          "durationTicks": 34,
          "midi": 67,
          "name": "G4",
          "ticks": 12827,
          "time": 50.10546875,
          "velocity": 0.6299212598425197
        },
        {
          "duration": 0.37109375,
          "durationTicks": 95,
          "midi": 67,
          "name": "G4",
          "ticks": 12864,
          "time": 50.25,
          "velocity": 0.6299212598425197
        },
        {
          "duration": 0.2265625,
          "durationTicks": 58,
          "midi": 67,
          "name": "G4",
          "ticks": 12960,
          "time": 50.625,
          "velocity": 0.6299212598425197
        },
        {
          "duration": 0.37109375,
          "durationTicks": 95,
          "midi": 69,
          "name": "A4",
          "ticks": 13056,
          "time": 51,
          "velocity": 0.6299212598425197
        },
        {
          "duration": 0.37109375,
          "durationTicks": 95,
          "midi": 69,
          "name": "A4",
          "ticks": 13152,
          "time": 51.375,
          "velocity": 0.6299212598425197
        },
        {
          "duration": 0.23046875,
          "durationTicks": 59,
          "midi": 69,
          "name": "A4",
          "ticks": 13248,
          "time": 51.75,
          "velocity": 0.6299212598425197
        },
        {
          "duration": 1.12109375,
          "durationTicks": 287,
          "midi": 62,
          "name": "D4",
          "ticks": 13824,
          "time": 54,
          "velocity": 0.6299212598425197
        },
        {
          "duration": 0.37109375,
          "durationTicks": 95,
          "midi": 57,
          "name": "A3",
          "ticks": 14112,
          "time": 55.125,
          "velocity": 0.6299212598425197
        },
        {
          "duration": 0.93359375,
          "durationTicks": 239,
          "midi": 61,
          "name": "C#4",
          "ticks": 14208,
          "time": 55.5,
          "velocity": 0.6299212598425197
        },
        {
          "duration": 0.27734375,
          "durationTicks": 71,
          "midi": 62,
          "name": "D4",
          "ticks": 14448,
          "time": 56.4375,
          "velocity": 0.6299212598425197
        },
        {
          "duration": 0.27734375,
          "durationTicks": 71,
          "midi": 61,
          "name": "C#4",
          "ticks": 14520,
          "time": 56.71875,
          "velocity": 0.6299212598425197
        },
        {
          "duration": 1.12109375,
          "durationTicks": 287,
          "midi": 60,
          "name": "C4",
          "ticks": 14592,
          "time": 57,
          "velocity": 0.6299212598425197
        },
        {
          "duration": 0.37109375,
          "durationTicks": 95,
          "midi": 57,
          "name": "A3",
          "ticks": 14880,
          "time": 58.125,
          "velocity": 0.6299212598425197
        },
        {
          "duration": 0.74609375,
          "durationTicks": 191,
          "midi": 59,
          "name": "B3",
          "ticks": 14976,
          "time": 58.5,
          "velocity": 0.6299212598425197
        },
        {
          "duration": 0.18359375,
          "durationTicks": 47,
          "midi": 57,
          "name": "A3",
          "ticks": 15168,
          "time": 59.25,
          "velocity": 0.6299212598425197
        },
        {
          "duration": 0.18359375,
          "durationTicks": 47,
          "midi": 59,
          "name": "B3",
          "ticks": 15216,
          "time": 59.4375,
          "velocity": 0.6299212598425197
        },
        {
          "duration": 0.18359375,
          "durationTicks": 47,
          "midi": 60,
          "name": "C4",
          "ticks": 15264,
          "time": 59.625,
          "velocity": 0.6299212598425197
        },
        {
          "duration": 0.18359375,
          "durationTicks": 47,
          "midi": 61,
          "name": "C#4",
          "ticks": 15312,
          "time": 59.8125,
          "velocity": 0.6299212598425197
        },
        {
          "duration": 1.12109375,
          "durationTicks": 287,
          "midi": 62,
          "name": "D4",
          "ticks": 15360,
          "time": 60,
          "velocity": 0.6299212598425197
        },
        {
          "duration": 0.37109375,
          "durationTicks": 95,
          "midi": 57,
          "name": "A3",
          "ticks": 15648,
          "time": 61.125,
          "velocity": 0.6299212598425197
        },
        {
          "duration": 0.93359375,
          "durationTicks": 239,
          "midi": 61,
          "name": "C#4",
          "ticks": 15744,
          "time": 61.5,
          "velocity": 0.6299212598425197
        },
        {
          "duration": 0.27734375,
          "durationTicks": 71,
          "midi": 62,
          "name": "D4",
          "ticks": 15984,
          "time": 62.4375,
          "velocity": 0.6299212598425197
        },
        {
          "duration": 0.27734375,
          "durationTicks": 71,
          "midi": 61,
          "name": "C#4",
          "ticks": 16056,
          "time": 62.71875,
          "velocity": 0.6299212598425197
        },
        {
          "duration": 1.12109375,
          "durationTicks": 287,
          "midi": 60,
          "name": "C4",
          "ticks": 16128,
          "time": 63,
          "velocity": 0.6299212598425197
        },
        {
          "duration": 0.37109375,
          "durationTicks": 95,
          "midi": 57,
          "name": "A3",
          "ticks": 16416,
          "time": 64.125,
          "velocity": 0.6299212598425197
        },
        {
          "duration": 0.74609375,
          "durationTicks": 191,
          "midi": 59,
          "name": "B3",
          "ticks": 16512,
          "time": 64.5,
          "velocity": 0.6299212598425197
        },
        {
          "duration": 0.18359375,
          "durationTicks": 47,
          "midi": 62,
          "name": "D4",
          "ticks": 16704,
          "time": 65.25,
          "velocity": 0.6299212598425197
        },
        {
          "duration": 0.18359375,
          "durationTicks": 47,
          "midi": 60,
          "name": "C4",
          "ticks": 16752,
          "time": 65.4375,
          "velocity": 0.6299212598425197
        },
        {
          "duration": 0.18359375,
          "durationTicks": 47,
          "midi": 58,
          "name": "A#3",
          "ticks": 16800,
          "time": 65.625,
          "velocity": 0.6299212598425197
        },
        {
          "duration": 0.18359375,
          "durationTicks": 47,
          "midi": 57,
          "name": "A3",
          "ticks": 16848,
          "time": 65.8125,
          "velocity": 0.6299212598425197
        },
        {
          "duration": 0.60546875,
          "durationTicks": 155,
          "midi": 58,
          "name": "A#3",
          "ticks": 16896,
          "time": 66,
          "velocity": 0.6299212598425197
        },
        {
          "duration": 0.23046875,
          "durationTicks": 59,
          "midi": 58,
          "name": "A#3",
          "ticks": 17088,
          "time": 66.75,
          "velocity": 0.6299212598425197
        },
        {
          "duration": 0.74609375,
          "durationTicks": 191,
          "midi": 60,
          "name": "C4",
          "ticks": 17243,
          "time": 67.35546875,
          "velocity": 0.6299212598425197
        },
        {
          "duration": 0.1328125,
          "durationTicks": 34,
          "midi": 60,
          "name": "C4",
          "ticks": 17435,
          "time": 68.10546875,
          "velocity": 0.6299212598425197
        },
        {
          "duration": 0.37109375,
          "durationTicks": 95,
          "midi": 60,
          "name": "C4",
          "ticks": 17472,
          "time": 68.25,
          "velocity": 0.6299212598425197
        },
        {
          "duration": 0.2265625,
          "durationTicks": 58,
          "midi": 60,
          "name": "C4",
          "ticks": 17568,
          "time": 68.625,
          "velocity": 0.6299212598425197
        },
        {
          "duration": 0.37109375,
          "durationTicks": 95,
          "midi": 62,
          "name": "D4",
          "ticks": 17664,
          "time": 69,
          "velocity": 0.6299212598425197
        },
        {
          "duration": 0.37109375,
          "durationTicks": 95,
          "midi": 62,
          "name": "D4",
          "ticks": 17760,
          "time": 69.375,
          "velocity": 0.6299212598425197
        },
        {
          "duration": 0.23046875,
          "durationTicks": 59,
          "midi": 62,
          "name": "D4",
          "ticks": 17856,
          "time": 69.75,
          "velocity": 0.6299212598425197
        },
        {
          "duration": 0.18359375,
          "durationTicks": 47,
          "midi": 64,
          "name": "E4",
          "ticks": 18048,
          "time": 70.5,
          "velocity": 0.6299212598425197
        },
        {
          "duration": 0.2265625,
          "durationTicks": 58,
          "midi": 64,
          "name": "E4",
          "ticks": 18144,
          "time": 70.875,
          "velocity": 0.6299212598425197
        },
        {
          "duration": 0.2265625,
          "durationTicks": 58,
          "midi": 64,
          "name": "E4",
          "ticks": 18240,
          "time": 71.25,
          "velocity": 0.6299212598425197
        },
        {
          "duration": 0.140625,
          "durationTicks": 36,
          "midi": 64,
          "name": "E4",
          "ticks": 18299,
          "time": 71.48046875,
          "velocity": 0.6299212598425197
        },
        {
          "duration": 0.796875,
          "durationTicks": 204,
          "midi": 65,
          "name": "F4",
          "ticks": 18395,
          "time": 71.85546875,
          "velocity": 0.6299212598425197
        },
        {
          "duration": 0.23046875,
          "durationTicks": 59,
          "midi": 65,
          "name": "F4",
          "ticks": 18624,
          "time": 72.75,
          "velocity": 0.6299212598425197
        },
        {
          "duration": 0.74609375,
          "durationTicks": 191,
          "midi": 67,
          "name": "G4",
          "ticks": 18779,
          "time": 73.35546875,
          "velocity": 0.6299212598425197
        },
        {
          "duration": 0.1328125,
          "durationTicks": 34,
          "midi": 67,
          "name": "G4",
          "ticks": 18971,
          "time": 74.10546875,
          "velocity": 0.6299212598425197
        },
        {
          "duration": 0.37109375,
          "durationTicks": 95,
          "midi": 67,
          "name": "G4",
          "ticks": 19008,
          "time": 74.25,
          "velocity": 0.6299212598425197
        },
        {
          "duration": 0.2265625,
          "durationTicks": 58,
          "midi": 67,
          "name": "G4",
          "ticks": 19104,
          "time": 74.625,
          "velocity": 0.6299212598425197
        },
        {
          "duration": 0.37109375,
          "durationTicks": 95,
          "midi": 69,
          "name": "A4",
          "ticks": 19200,
          "time": 75,
          "velocity": 0.6299212598425197
        },
        {
          "duration": 0.37109375,
          "durationTicks": 95,
          "midi": 69,
          "name": "A4",
          "ticks": 19296,
          "time": 75.375,
          "velocity": 0.6299212598425197
        },
        {
          "duration": 0.23046875,
          "durationTicks": 59,
          "midi": 69,
          "name": "A4",
          "ticks": 19392,
          "time": 75.75,
          "velocity": 0.6299212598425197
        },
        {
          "duration": 1.12109375,
          "durationTicks": 287,
          "midi": 62,
          "name": "D4",
          "ticks": 19968,
          "time": 78,
          "velocity": 0.6299212598425197
        },
        {
          "duration": 0.37109375,
          "durationTicks": 95,
          "midi": 57,
          "name": "A3",
          "ticks": 20256,
          "time": 79.125,
          "velocity": 0.6299212598425197
        },
        {
          "duration": 1.12109375,
          "durationTicks": 287,
          "midi": 61,
          "name": "C#4",
          "ticks": 20352,
          "time": 79.5,
          "velocity": 0.6299212598425197
        },
        {
          "duration": 0.18359375,
          "durationTicks": 47,
          "midi": 62,
          "name": "D4",
          "ticks": 20640,
          "time": 80.625,
          "velocity": 0.6299212598425197
        },
        {
          "duration": 0.18359375,
          "durationTicks": 47,
          "midi": 61,
          "name": "C#4",
          "ticks": 20688,
          "time": 80.8125,
          "velocity": 0.6299212598425197
        },
        {
          "duration": 1.12109375,
          "durationTicks": 287,
          "midi": 60,
          "name": "C4",
          "ticks": 20736,
          "time": 81,
          "velocity": 0.6299212598425197
        },
        {
          "duration": 0.37109375,
          "durationTicks": 95,
          "midi": 55,
          "name": "G3",
          "ticks": 21024,
          "time": 82.125,
          "velocity": 0.6299212598425197
        },
        {
          "duration": 0.74609375,
          "durationTicks": 191,
          "midi": 59,
          "name": "B3",
          "ticks": 21120,
          "time": 82.5,
          "velocity": 0.6299212598425197
        },
        {
          "duration": 0.18359375,
          "durationTicks": 47,
          "midi": 57,
          "name": "A3",
          "ticks": 21312,
          "time": 83.25,
          "velocity": 0.6299212598425197
        },
        {
          "duration": 0.18359375,
          "durationTicks": 47,
          "midi": 59,
          "name": "B3",
          "ticks": 21360,
          "time": 83.4375,
          "velocity": 0.6299212598425197
        },
        {
          "duration": 0.18359375,
          "durationTicks": 47,
          "midi": 60,
          "name": "C4",
          "ticks": 21408,
          "time": 83.625,
          "velocity": 0.6299212598425197
        },
        {
          "duration": 0.18359375,
          "durationTicks": 47,
          "midi": 61,
          "name": "C#4",
          "ticks": 21456,
          "time": 83.8125,
          "velocity": 0.6299212598425197
        },
        {
          "duration": 1.12109375,
          "durationTicks": 287,
          "midi": 62,
          "name": "D4",
          "ticks": 21504,
          "time": 84,
          "velocity": 0.6299212598425197
        },
        {
          "duration": 0.37109375,
          "durationTicks": 95,
          "midi": 57,
          "name": "A3",
          "ticks": 21792,
          "time": 85.125,
          "velocity": 0.6299212598425197
        },
        {
          "duration": 1.12109375,
          "durationTicks": 287,
          "midi": 61,
          "name": "C#4",
          "ticks": 21888,
          "time": 85.5,
          "velocity": 0.6299212598425197
        },
        {
          "duration": 0.18359375,
          "durationTicks": 47,
          "midi": 62,
          "name": "D4",
          "ticks": 22176,
          "time": 86.625,
          "velocity": 0.6299212598425197
        },
        {
          "duration": 0.18359375,
          "durationTicks": 47,
          "midi": 61,
          "name": "C#4",
          "ticks": 22224,
          "time": 86.8125,
          "velocity": 0.6299212598425197
        },
        {
          "duration": 1.12109375,
          "durationTicks": 287,
          "midi": 60,
          "name": "C4",
          "ticks": 22272,
          "time": 87,
          "velocity": 0.6299212598425197
        },
        {
          "duration": 0.37109375,
          "durationTicks": 95,
          "midi": 55,
          "name": "G3",
          "ticks": 22560,
          "time": 88.125,
          "velocity": 0.6299212598425197
        },
        {
          "duration": 0.74609375,
          "durationTicks": 191,
          "midi": 59,
          "name": "B3",
          "ticks": 22656,
          "time": 88.5,
          "velocity": 0.6299212598425197
        },
        {
          "duration": 0.18359375,
          "durationTicks": 47,
          "midi": 57,
          "name": "A3",
          "ticks": 22848,
          "time": 89.25,
          "velocity": 0.6299212598425197
        },
        {
          "duration": 0.18359375,
          "durationTicks": 47,
          "midi": 59,
          "name": "B3",
          "ticks": 22896,
          "time": 89.4375,
          "velocity": 0.6299212598425197
        },
        {
          "duration": 0.18359375,
          "durationTicks": 47,
          "midi": 60,
          "name": "C4",
          "ticks": 22944,
          "time": 89.625,
          "velocity": 0.6299212598425197
        },
        {
          "duration": 0.18359375,
          "durationTicks": 47,
          "midi": 61,
          "name": "C#4",
          "ticks": 22992,
          "time": 89.8125,
          "velocity": 0.6299212598425197
        },
        {
          "duration": 1.12109375,
          "durationTicks": 287,
          "midi": 62,
          "name": "D4",
          "ticks": 23040,
          "time": 90,
          "velocity": 0.6299212598425197
        },
        {
          "duration": 0.37109375,
          "durationTicks": 95,
          "midi": 57,
          "name": "A3",
          "ticks": 23328,
          "time": 91.125,
          "velocity": 0.6299212598425197
        },
        {
          "duration": 0.93359375,
          "durationTicks": 239,
          "midi": 61,
          "name": "C#4",
          "ticks": 23424,
          "time": 91.5,
          "velocity": 0.6299212598425197
        },
        {
          "duration": 0.27734375,
          "durationTicks": 71,
          "midi": 62,
          "name": "D4",
          "ticks": 23664,
          "time": 92.4375,
          "velocity": 0.6299212598425197
        },
        {
          "duration": 0.27734375,
          "durationTicks": 71,
          "midi": 61,
          "name": "C#4",
          "ticks": 23736,
          "time": 92.71875,
          "velocity": 0.6299212598425197
        },
        {
          "duration": 1.12109375,
          "durationTicks": 287,
          "midi": 60,
          "name": "C4",
          "ticks": 23808,
          "time": 93,
          "velocity": 0.6299212598425197
        },
        {
          "duration": 0.37109375,
          "durationTicks": 95,
          "midi": 55,
          "name": "G3",
          "ticks": 24096,
          "time": 94.125,
          "velocity": 0.6299212598425197
        },
        {
          "duration": 0.74609375,
          "durationTicks": 191,
          "midi": 59,
          "name": "B3",
          "ticks": 24192,
          "time": 94.5,
          "velocity": 0.6299212598425197
        },
        {
          "duration": 0.18359375,
          "durationTicks": 47,
          "midi": 62,
          "name": "D4",
          "ticks": 24384,
          "time": 95.25,
          "velocity": 0.6299212598425197
        },
        {
          "duration": 0.18359375,
          "durationTicks": 47,
          "midi": 64,
          "name": "E4",
          "ticks": 24432,
          "time": 95.4375,
          "velocity": 0.6299212598425197
        },
        {
          "duration": 0.18359375,
          "durationTicks": 47,
          "midi": 65,
          "name": "F4",
          "ticks": 24480,
          "time": 95.625,
          "velocity": 0.6299212598425197
        },
        {
          "duration": 0.18359375,
          "durationTicks": 47,
          "midi": 66,
          "name": "F#4",
          "ticks": 24528,
          "time": 95.8125,
          "velocity": 0.6299212598425197
        },
        {
          "duration": 1.12109375,
          "durationTicks": 287,
          "midi": 67,
          "name": "G4",
          "ticks": 24576,
          "time": 96,
          "velocity": 0.6299212598425197
        },
        {
          "duration": 0.37109375,
          "durationTicks": 95,
          "midi": 62,
          "name": "D4",
          "ticks": 24864,
          "time": 97.125,
          "velocity": 0.6299212598425197
        },
        {
          "duration": 0.93359375,
          "durationTicks": 239,
          "midi": 66,
          "name": "F#4",
          "ticks": 24960,
          "time": 97.5,
          "velocity": 0.6299212598425197
        },
        {
          "duration": 0.27734375,
          "durationTicks": 71,
          "midi": 67,
          "name": "G4",
          "ticks": 25200,
          "time": 98.4375,
          "velocity": 0.6299212598425197
        },
        {
          "duration": 0.27734375,
          "durationTicks": 71,
          "midi": 66,
          "name": "F#4",
          "ticks": 25272,
          "time": 98.71875,
          "velocity": 0.6299212598425197
        },
        {
          "duration": 1.12109375,
          "durationTicks": 287,
          "midi": 65,
          "name": "F4",
          "ticks": 25344,
          "time": 99,
          "velocity": 0.6299212598425197
        },
        {
          "duration": 0.37109375,
          "durationTicks": 95,
          "midi": 60,
          "name": "C4",
          "ticks": 25632,
          "time": 100.125,
          "velocity": 0.6299212598425197
        },
        {
          "duration": 0.74609375,
          "durationTicks": 191,
          "midi": 64,
          "name": "E4",
          "ticks": 25728,
          "time": 100.5,
          "velocity": 0.6299212598425197
        },
        {
          "duration": 0.18359375,
          "durationTicks": 47,
          "midi": 57,
          "name": "A3",
          "ticks": 25920,
          "time": 101.25,
          "velocity": 0.6299212598425197
        },
        {
          "duration": 0.18359375,
          "durationTicks": 47,
          "midi": 60,
          "name": "C4",
          "ticks": 25968,
          "time": 101.4375,
          "velocity": 0.6299212598425197
        },
        {
          "duration": 0.18359375,
          "durationTicks": 47,
          "midi": 62,
          "name": "D4",
          "ticks": 26016,
          "time": 101.625,
          "velocity": 0.6299212598425197
        },
        {
          "duration": 0.18359375,
          "durationTicks": 47,
          "midi": 64,
          "name": "E4",
          "ticks": 26064,
          "time": 101.8125,
          "velocity": 0.6299212598425197
        },
        {
          "duration": 0.60546875,
          "durationTicks": 155,
          "midi": 65,
          "name": "F4",
          "ticks": 26112,
          "time": 102,
          "velocity": 0.6299212598425197
        },
        {
          "duration": 0.23046875,
          "durationTicks": 59,
          "midi": 65,
          "name": "F4",
          "ticks": 26304,
          "time": 102.75,
          "velocity": 0.6299212598425197
        },
        {
          "duration": 0.74609375,
          "durationTicks": 191,
          "midi": 67,
          "name": "G4",
          "ticks": 26459,
          "time": 103.35546875,
          "velocity": 0.6299212598425197
        },
        {
          "duration": 0.1328125,
          "durationTicks": 34,
          "midi": 67,
          "name": "G4",
          "ticks": 26651,
          "time": 104.10546875,
          "velocity": 0.6299212598425197
        },
        {
          "duration": 0.37109375,
          "durationTicks": 95,
          "midi": 67,
          "name": "G4",
          "ticks": 26688,
          "time": 104.25,
          "velocity": 0.6299212598425197
        },
        {
          "duration": 0.2265625,
          "durationTicks": 58,
          "midi": 62,
          "name": "D4",
          "ticks": 26880,
          "time": 105,
          "velocity": 0.6299212598425197
        },
        {
          "duration": 0.2265625,
          "durationTicks": 58,
          "midi": 64,
          "name": "E4",
          "ticks": 26976,
          "time": 105.375,
          "velocity": 0.6299212598425197
        },
        {
          "duration": 0.2265625,
          "durationTicks": 58,
          "midi": 65,
          "name": "F4",
          "ticks": 27072,
          "time": 105.75,
          "velocity": 0.6299212598425197
        },
        {
          "duration": 0.2265625,
          "durationTicks": 58,
          "midi": 67,
          "name": "G4",
          "ticks": 27168,
          "time": 106.125,
          "velocity": 0.6299212598425197
        },
        {
          "duration": 2.99609375,
          "durationTicks": 767,
          "midi": 68,
          "name": "G#4",
          "ticks": 27264,
          "time": 106.5,
          "velocity": 0.6299212598425197
        }
      ]
    },
    {
      "channel": 0,
      "controlChanges": {
        "0": [
          {
            "number": 0,
            "ticks": 0,
            "time": 0,
            "value": 0
          }
        ],
        "32": [
          {
            "number": 32,
            "ticks": 0,
            "time": 0,
            "value": 0
          }
        ]
      },
      "instrument": {
        "family": "brass",
        "name": "trombone",
        "number": 57
      },
      "name": "MIDI 02",
      "notes": [
        {
          "duration": 5.99609375,
          "durationTicks": 1535,
          "midi": 69,
          "name": "A4",
          "ticks": 4608,
          "time": 18,
          "velocity": 0.6299212598425197
        },
        {
          "duration": 0.99609375,
          "durationTicks": 255,
          "midi": 64,
          "name": "E4",
          "ticks": 6144,
          "time": 24,
          "velocity": 0.6299212598425197
        },
        {
          "duration": 0.24609375,
          "durationTicks": 63,
          "midi": 64,
          "name": "E4",
          "ticks": 6400,
          "time": 25,
          "velocity": 0.6299212598425197
        },
        {
          "duration": 0.24609375,
          "durationTicks": 63,
          "midi": 59,
          "name": "B3",
          "ticks": 6464,
          "time": 25.25,
          "velocity": 0.6299212598425197
        },
        {
          "duration": 0.99609375,
          "durationTicks": 255,
          "midi": 63,
          "name": "D#4",
          "ticks": 6528,
          "time": 25.5,
          "velocity": 0.6299212598425197
        },
        {
          "duration": 0.24609375,
          "durationTicks": 63,
          "midi": 64,
          "name": "E4",
          "ticks": 6784,
          "time": 26.5,
          "velocity": 0.6299212598425197
        },
        {
          "duration": 0.24609375,
          "durationTicks": 63,
          "midi": 63,
          "name": "D#4",
          "ticks": 6848,
          "time": 26.75,
          "velocity": 0.6299212598425197
        },
        {
          "duration": 0.99609375,
          "durationTicks": 255,
          "midi": 62,
          "name": "D4",
          "ticks": 6912,
          "time": 27,
          "velocity": 0.6299212598425197
        },
        {
          "duration": 0.24609375,
          "durationTicks": 63,
          "midi": 62,
          "name": "D4",
          "ticks": 7168,
          "time": 28,
          "velocity": 0.6299212598425197
        },
        {
          "duration": 0.24609375,
          "durationTicks": 63,
          "midi": 57,
          "name": "A3",
          "ticks": 7232,
          "time": 28.25,
          "velocity": 0.6299212598425197
        },
        {
          "duration": 0.18359375,
          "durationTicks": 47,
          "midi": 57,
          "name": "A3",
          "ticks": 7296,
          "time": 28.5,
          "velocity": 0.6299212598425197
        },
        {
          "duration": 0.18359375,
          "durationTicks": 47,
          "midi": 69,
          "name": "A4",
          "ticks": 7488,
          "time": 29.25,
          "velocity": 0.6299212598425197
        },
        {
          "duration": 0.18359375,
          "durationTicks": 47,
          "midi": 67,
          "name": "G4",
          "ticks": 7536,
          "time": 29.4375,
          "velocity": 0.6299212598425197
        },
        {
          "duration": 0.18359375,
          "durationTicks": 47,
          "midi": 65,
          "name": "F4",
          "ticks": 7584,
          "time": 29.625,
          "velocity": 0.6299212598425197
        },
        {
          "duration": 0.18359375,
          "durationTicks": 47,
          "midi": 64,
          "name": "E4",
          "ticks": 7632,
          "time": 29.8125,
          "velocity": 0.6299212598425197
        },
        {
          "duration": 1.12109375,
          "durationTicks": 287,
          "midi": 62,
          "name": "D4",
          "ticks": 7680,
          "time": 30,
          "velocity": 0.6299212598425197
        },
        {
          "duration": 0.37109375,
          "durationTicks": 95,
          "midi": 57,
          "name": "A3",
          "ticks": 7968,
          "time": 31.125,
          "velocity": 0.6299212598425197
        },
        {
          "duration": 0.99609375,
          "durationTicks": 255,
          "midi": 61,
          "name": "C#4",
          "ticks": 8064,
          "time": 31.5,
          "velocity": 0.6299212598425197
        },
        {
          "duration": 0.24609375,
          "durationTicks": 63,
          "midi": 62,
          "name": "D4",
          "ticks": 8320,
          "time": 32.5,
          "velocity": 0.6299212598425197
        },
        {
          "duration": 0.24609375,
          "durationTicks": 63,
          "midi": 61,
          "name": "C#4",
          "ticks": 8384,
          "time": 32.75,
          "velocity": 0.6299212598425197
        },
        {
          "duration": 1.12109375,
          "durationTicks": 287,
          "midi": 60,
          "name": "C4",
          "ticks": 8448,
          "time": 33,
          "velocity": 0.6299212598425197
        },
        {
          "duration": 0.37109375,
          "durationTicks": 95,
          "midi": 55,
          "name": "G3",
          "ticks": 8736,
          "time": 34.125,
          "velocity": 0.6299212598425197
        },
        {
          "duration": 0.74609375,
          "durationTicks": 191,
          "midi": 59,
          "name": "B3",
          "ticks": 8832,
          "time": 34.5,
          "velocity": 0.6299212598425197
        },
        {
          "duration": 0.18359375,
          "durationTicks": 47,
          "midi": 57,
          "name": "A3",
          "ticks": 9024,
          "time": 35.25,
          "velocity": 0.6299212598425197
        },
        {
          "duration": 0.18359375,
          "durationTicks": 47,
          "midi": 59,
          "name": "B3",
          "ticks": 9072,
          "time": 35.4375,
          "velocity": 0.6299212598425197
        },
        {
          "duration": 0.18359375,
          "durationTicks": 47,
          "midi": 60,
          "name": "C4",
          "ticks": 9120,
          "time": 35.625,
          "velocity": 0.6299212598425197
        },
        {
          "duration": 0.18359375,
          "durationTicks": 47,
          "midi": 61,
          "name": "C#4",
          "ticks": 9168,
          "time": 35.8125,
          "velocity": 0.6299212598425197
        },
        {
          "duration": 1.12109375,
          "durationTicks": 287,
          "midi": 62,
          "name": "D4",
          "ticks": 9216,
          "time": 36,
          "velocity": 0.6299212598425197
        },
        {
          "duration": 0.37109375,
          "durationTicks": 95,
          "midi": 57,
          "name": "A3",
          "ticks": 9504,
          "time": 37.125,
          "velocity": 0.6299212598425197
        },
        {
          "duration": 1.12109375,
          "durationTicks": 287,
          "midi": 61,
          "name": "C#4",
          "ticks": 9600,
          "time": 37.5,
          "velocity": 0.6299212598425197
        },
        {
          "duration": 0.18359375,
          "durationTicks": 47,
          "midi": 62,
          "name": "D4",
          "ticks": 9888,
          "time": 38.625,
          "velocity": 0.6299212598425197
        },
        {
          "duration": 0.18359375,
          "durationTicks": 47,
          "midi": 61,
          "name": "C#4",
          "ticks": 9936,
          "time": 38.8125,
          "velocity": 0.6299212598425197
        },
        {
          "duration": 1.12109375,
          "durationTicks": 287,
          "midi": 60,
          "name": "C4",
          "ticks": 9984,
          "time": 39,
          "velocity": 0.6299212598425197
        },
        {
          "duration": 0.37109375,
          "durationTicks": 95,
          "midi": 55,
          "name": "G3",
          "ticks": 10272,
          "time": 40.125,
          "velocity": 0.6299212598425197
        },
        {
          "duration": 0.74609375,
          "durationTicks": 191,
          "midi": 59,
          "name": "B3",
          "ticks": 10368,
          "time": 40.5,
          "velocity": 0.6299212598425197
        },
        {
          "duration": 0.18359375,
          "durationTicks": 47,
          "midi": 57,
          "name": "A3",
          "ticks": 10560,
          "time": 41.25,
          "velocity": 0.6299212598425197
        },
        {
          "duration": 0.18359375,
          "durationTicks": 47,
          "midi": 55,
          "name": "G3",
          "ticks": 10608,
          "time": 41.4375,
          "velocity": 0.6299212598425197
        },
        {
          "duration": 0.18359375,
          "durationTicks": 47,
          "midi": 57,
          "name": "A3",
          "ticks": 10656,
          "time": 41.625,
          "velocity": 0.6299212598425197
        },
        {
          "duration": 0.18359375,
          "durationTicks": 47,
          "midi": 60,
          "name": "C4",
          "ticks": 10704,
          "time": 41.8125,
          "velocity": 0.6299212598425197
        },
        {
          "duration": 0.60546875,
          "durationTicks": 155,
          "midi": 50,
          "name": "D3",
          "ticks": 10752,
          "time": 42,
          "velocity": 0.6299212598425197
        },
        {
          "duration": 0.23046875,
          "durationTicks": 59,
          "midi": 50,
          "name": "D3",
          "ticks": 10944,
          "time": 42.75,
          "velocity": 0.6299212598425197
        },
        {
          "duration": 0.74609375,
          "durationTicks": 191,
          "midi": 52,
          "name": "E3",
          "ticks": 11099,
          "time": 43.35546875,
          "velocity": 0.6299212598425197
        },
        {
          "duration": 0.1328125,
          "durationTicks": 34,
          "midi": 52,
          "name": "E3",
          "ticks": 11291,
          "time": 44.10546875,
          "velocity": 0.6299212598425197
        },
        {
          "duration": 0.37109375,
          "durationTicks": 95,
          "midi": 52,
          "name": "E3",
          "ticks": 11328,
          "time": 44.25,
          "velocity": 0.6299212598425197
        },
        {
          "duration": 0.2265625,
          "durationTicks": 58,
          "midi": 52,
          "name": "E3",
          "ticks": 11424,
          "time": 44.625,
          "velocity": 0.6299212598425197
        },
        {
          "duration": 0.37109375,
          "durationTicks": 95,
          "midi": 53,
          "name": "F3",
          "ticks": 11520,
          "time": 45,
          "velocity": 0.6299212598425197
        },
        {
          "duration": 0.37109375,
          "durationTicks": 95,
          "midi": 53,
          "name": "F3",
          "ticks": 11616,
          "time": 45.375,
          "velocity": 0.6299212598425197
        },
        {
          "duration": 0.23046875,
          "durationTicks": 59,
          "midi": 53,
          "name": "F3",
          "ticks": 11712,
          "time": 45.75,
          "velocity": 0.6299212598425197
        },
        {
          "duration": 0.2265625,
          "durationTicks": 58,
          "midi": 55,
          "name": "G3",
          "ticks": 11904,
          "time": 46.5,
          "velocity": 0.6299212598425197
        },
        {
          "duration": 0.2265625,
          "durationTicks": 58,
          "midi": 55,
          "name": "G3",
          "ticks": 12000,
          "time": 46.875,
          "velocity": 0.6299212598425197
        },
        {
          "duration": 0.2265625,
          "durationTicks": 58,
          "midi": 55,
          "name": "G3",
          "ticks": 12096,
          "time": 47.25,
          "velocity": 0.6299212598425197
        },
        {
          "duration": 0.140625,
          "durationTicks": 36,
          "midi": 55,
          "name": "G3",
          "ticks": 12155,
          "time": 47.48046875,
          "velocity": 0.6299212598425197
        },
        {
          "duration": 0.796875,
          "durationTicks": 204,
          "midi": 57,
          "name": "A3",
          "ticks": 12251,
          "time": 47.85546875,
          "velocity": 0.6299212598425197
        },
        {
          "duration": 0.140625,
          "durationTicks": 36,
          "midi": 57,
          "name": "A3",
          "ticks": 12539,
          "time": 48.98046875,
          "velocity": 0.6299212598425197
        },
        {
          "duration": 0.74609375,
          "durationTicks": 191,
          "midi": 60,
          "name": "C4",
          "ticks": 12635,
          "time": 49.35546875,
          "velocity": 0.6299212598425197
        },
        {
          "duration": 0.1328125,
          "durationTicks": 34,
          "midi": 60,
          "name": "C4",
          "ticks": 12827,
          "time": 50.10546875,
          "velocity": 0.6299212598425197
        },
        {
          "duration": 0.37109375,
          "durationTicks": 95,
          "midi": 60,
          "name": "C4",
          "ticks": 12864,
          "time": 50.25,
          "velocity": 0.6299212598425197
        },
        {
          "duration": 0.2265625,
          "durationTicks": 58,
          "midi": 60,
          "name": "C4",
          "ticks": 12960,
          "time": 50.625,
          "velocity": 0.6299212598425197
        },
        {
          "duration": 0.37109375,
          "durationTicks": 95,
          "midi": 62,
          "name": "D4",
          "ticks": 13056,
          "time": 51,
          "velocity": 0.6299212598425197
        },
        {
          "duration": 0.37109375,
          "durationTicks": 95,
          "midi": 62,
          "name": "D4",
          "ticks": 13152,
          "time": 51.375,
          "velocity": 0.6299212598425197
        },
        {
          "duration": 0.23046875,
          "durationTicks": 59,
          "midi": 62,
          "name": "D4",
          "ticks": 13248,
          "time": 51.75,
          "velocity": 0.6299212598425197
        },
        {
          "duration": 2.24609375,
          "durationTicks": 575,
          "midi": 69,
          "name": "A4",
          "ticks": 13824,
          "time": 54,
          "velocity": 0.6299212598425197
        },
        {
          "duration": 1.87109375,
          "durationTicks": 479,
          "midi": 64,
          "name": "E4",
          "ticks": 14400,
          "time": 56.25,
          "velocity": 0.6299212598425197
        },
        {
          "duration": 0.37109375,
          "durationTicks": 95,
          "midi": 65,
          "name": "F4",
          "ticks": 14880,
          "time": 58.125,
          "velocity": 0.6299212598425197
        },
        {
          "duration": 1.12109375,
          "durationTicks": 287,
          "midi": 67,
          "name": "G4",
          "ticks": 14976,
          "time": 58.5,
          "velocity": 0.6299212598425197
        },
        {
          "duration": 0.18359375,
          "durationTicks": 47,
          "midi": 65,
          "name": "F4",
          "ticks": 15264,
          "time": 59.625,
          "velocity": 0.6299212598425197
        },
        {
          "duration": 0.18359375,
          "durationTicks": 47,
          "midi": 67,
          "name": "G4",
          "ticks": 15312,
          "time": 59.8125,
          "velocity": 0.6299212598425197
        },
        {
          "duration": 2.24609375,
          "durationTicks": 575,
          "midi": 69,
          "name": "A4",
          "ticks": 15360,
          "time": 60,
          "velocity": 0.6299212598425197
        },
        {
          "duration": 1.87109375,
          "durationTicks": 479,
          "midi": 64,
          "name": "E4",
          "ticks": 15936,
          "time": 62.25,
          "velocity": 0.6299212598425197
        },
        {
          "duration": 0.37109375,
          "durationTicks": 95,
          "midi": 65,
          "name": "F4",
          "ticks": 16416,
          "time": 64.125,
          "velocity": 0.6299212598425197
        },
        {
          "duration": 1.12109375,
          "durationTicks": 287,
          "midi": 67,
          "name": "G4",
          "ticks": 16512,
          "time": 64.5,
          "velocity": 0.6299212598425197
        },
        {
          "duration": 0.37109375,
          "durationTicks": 95,
          "midi": 65,
          "name": "F4",
          "ticks": 16800,
          "time": 65.625,
          "velocity": 0.6299212598425197
        },
        {
          "duration": 2.24609375,
          "durationTicks": 575,
          "midi": 69,
          "name": "A4",
          "ticks": 16896,
          "time": 66,
          "velocity": 0.6299212598425197
        },
        {
          "duration": 1.87109375,
          "durationTicks": 479,
          "midi": 64,
          "name": "E4",
          "ticks": 17472,
          "time": 68.25,
          "velocity": 0.6299212598425197
        },
        {
          "duration": 0.37109375,
          "durationTicks": 95,
          "midi": 65,
          "name": "F4",
          "ticks": 17952,
          "time": 70.125,
          "velocity": 0.6299212598425197
        },
        {
          "duration": 1.12109375,
          "durationTicks": 287,
          "midi": 67,
          "name": "G4",
          "ticks": 18048,
          "time": 70.5,
          "velocity": 0.6299212598425197
        },
        {
          "duration": 0.2265625,
          "durationTicks": 58,
          "midi": 72,
          "name": "C5",
          "ticks": 18336,
          "time": 71.625,
          "velocity": 0.6299212598425197
        },
        {
          "duration": 0.140625,
          "durationTicks": 36,
          "midi": 70,
          "name": "A#4",
          "ticks": 18395,
          "time": 71.85546875,
          "velocity": 0.6299212598425197
        },
        {
          "duration": 2.24609375,
          "durationTicks": 575,
          "midi": 69,
          "name": "A4",
          "ticks": 18432,
          "time": 72,
          "velocity": 0.6299212598425197
        },
        {
          "duration": 1.49609375,
          "durationTicks": 383,
          "midi": 64,
          "name": "E4",
          "ticks": 19008,
          "time": 74.25,
          "velocity": 0.6299212598425197
        },
        {
          "duration": 0.2265625,
          "durationTicks": 58,
          "midi": 62,
          "name": "D4",
          "ticks": 19392,
          "time": 75.75,
          "velocity": 0.6299212598425197
        },
        {
          "duration": 0.140625,
          "durationTicks": 36,
          "midi": 62,
          "name": "D4",
          "ticks": 19451,
          "time": 75.98046875,
          "velocity": 0.6299212598425197
        },
        {
          "duration": 1.12109375,
          "durationTicks": 287,
          "midi": 67,
          "name": "G4",
          "ticks": 19968,
          "time": 78,
          "velocity": 0.6299212598425197
        },
        {
          "duration": 0.37109375,
          "durationTicks": 95,
          "midi": 62,
          "name": "D4",
          "ticks": 20256,
          "time": 79.125,
          "velocity": 0.6299212598425197
        },
        {
          "duration": 1.12109375,
          "durationTicks": 287,
          "midi": 66,
          "name": "F#4",
          "ticks": 20352,
          "time": 79.5,
          "velocity": 0.6299212598425197
        },
        {
          "duration": 0.18359375,
          "durationTicks": 47,
          "midi": 67,
          "name": "G4",
          "ticks": 20640,
          "time": 80.625,
          "velocity": 0.6299212598425197
        },
        {
          "duration": 0.18359375,
          "durationTicks": 47,
          "midi": 66,
          "name": "F#4",
          "ticks": 20688,
          "time": 80.8125,
          "velocity": 0.6299212598425197
        },
        {
          "duration": 1.12109375,
          "durationTicks": 287,
          "midi": 65,
          "name": "F4",
          "ticks": 20736,
          "time": 81,
          "velocity": 0.6299212598425197
        },
        {
          "duration": 0.37109375,
          "durationTicks": 95,
          "midi": 60,
          "name": "C4",
          "ticks": 21024,
          "time": 82.125,
          "velocity": 0.6299212598425197
        },
        {
          "duration": 0.74609375,
          "durationTicks": 191,
          "midi": 64,
          "name": "E4",
          "ticks": 21120,
          "time": 82.5,
          "velocity": 0.6299212598425197
        },
        {
          "duration": 0.18359375,
          "durationTicks": 47,
          "midi": 62,
          "name": "D4",
          "ticks": 21312,
          "time": 83.25,
          "velocity": 0.6299212598425197
        },
        {
          "duration": 0.18359375,
          "durationTicks": 47,
          "midi": 64,
          "name": "E4",
          "ticks": 21360,
          "time": 83.4375,
          "velocity": 0.6299212598425197
        },
        {
          "duration": 0.18359375,
          "durationTicks": 47,
          "midi": 65,
          "name": "F4",
          "ticks": 21408,
          "time": 83.625,
          "velocity": 0.6299212598425197
        },
        {
          "duration": 0.18359375,
          "durationTicks": 47,
          "midi": 66,
          "name": "F#4",
          "ticks": 21456,
          "time": 83.8125,
          "velocity": 0.6299212598425197
        },
        {
          "duration": 1.12109375,
          "durationTicks": 287,
          "midi": 67,
          "name": "G4",
          "ticks": 21504,
          "time": 84,
          "velocity": 0.6299212598425197
        },
        {
          "duration": 0.37109375,
          "durationTicks": 95,
          "midi": 62,
          "name": "D4",
          "ticks": 21792,
          "time": 85.125,
          "velocity": 0.6299212598425197
        },
        {
          "duration": 1.12109375,
          "durationTicks": 287,
          "midi": 66,
          "name": "F#4",
          "ticks": 21888,
          "time": 85.5,
          "velocity": 0.6299212598425197
        },
        {
          "duration": 0.18359375,
          "durationTicks": 47,
          "midi": 67,
          "name": "G4",
          "ticks": 22176,
          "time": 86.625,
          "velocity": 0.6299212598425197
        },
        {
          "duration": 0.18359375,
          "durationTicks": 47,
          "midi": 66,
          "name": "F#4",
          "ticks": 22224,
          "time": 86.8125,
          "velocity": 0.6299212598425197
        },
        {
          "duration": 1.12109375,
          "durationTicks": 287,
          "midi": 65,
          "name": "F4",
          "ticks": 22272,
          "time": 87,
          "velocity": 0.6299212598425197
        },
        {
          "duration": 0.37109375,
          "durationTicks": 95,
          "midi": 60,
          "name": "C4",
          "ticks": 22560,
          "time": 88.125,
          "velocity": 0.6299212598425197
        },
        {
          "duration": 0.74609375,
          "durationTicks": 191,
          "midi": 64,
          "name": "E4",
          "ticks": 22656,
          "time": 88.5,
          "velocity": 0.6299212598425197
        },
        {
          "duration": 0.18359375,
          "durationTicks": 47,
          "midi": 62,
          "name": "D4",
          "ticks": 22848,
          "time": 89.25,
          "velocity": 0.6299212598425197
        },
        {
          "duration": 0.18359375,
          "durationTicks": 47,
          "midi": 64,
          "name": "E4",
          "ticks": 22896,
          "time": 89.4375,
          "velocity": 0.6299212598425197
        },
        {
          "duration": 0.18359375,
          "durationTicks": 47,
          "midi": 65,
          "name": "F4",
          "ticks": 22944,
          "time": 89.625,
          "velocity": 0.6299212598425197
        },
        {
          "duration": 0.18359375,
          "durationTicks": 47,
          "midi": 67,
          "name": "G4",
          "ticks": 22992,
          "time": 89.8125,
          "velocity": 0.6299212598425197
        },
        {
          "duration": 1.12109375,
          "durationTicks": 287,
          "midi": 69,
          "name": "A4",
          "ticks": 23040,
          "time": 90,
          "velocity": 0.6299212598425197
        },
        {
          "duration": 0.37109375,
          "durationTicks": 95,
          "midi": 64,
          "name": "E4",
          "ticks": 23328,
          "time": 91.125,
          "velocity": 0.6299212598425197
        },
        {
          "duration": 0.93359375,
          "durationTicks": 239,
          "midi": 68,
          "name": "G#4",
          "ticks": 23424,
          "time": 91.5,
          "velocity": 0.6299212598425197
        },
        {
          "duration": 0.27734375,
          "durationTicks": 71,
          "midi": 69,
          "name": "A4",
          "ticks": 23664,
          "time": 92.4375,
          "velocity": 0.6299212598425197
        },
        {
          "duration": 0.27734375,
          "durationTicks": 71,
          "midi": 68,
          "name": "G#4",
          "ticks": 23736,
          "time": 92.71875,
          "velocity": 0.6299212598425197
        },
        {
          "duration": 1.12109375,
          "durationTicks": 287,
          "midi": 67,
          "name": "G4",
          "ticks": 23808,
          "time": 93,
          "velocity": 0.6299212598425197
        },
        {
          "duration": 0.37109375,
          "durationTicks": 95,
          "midi": 62,
          "name": "D4",
          "ticks": 24096,
          "time": 94.125,
          "velocity": 0.6299212598425197
        },
        {
          "duration": 0.74609375,
          "durationTicks": 191,
          "midi": 66,
          "name": "F#4",
          "ticks": 24192,
          "time": 94.5,
          "velocity": 0.6299212598425197
        },
        {
          "duration": 0.18359375,
          "durationTicks": 47,
          "midi": 60,
          "name": "C4",
          "ticks": 24384,
          "time": 95.25,
          "velocity": 0.6299212598425197
        },
        {
          "duration": 0.18359375,
          "durationTicks": 47,
          "midi": 62,
          "name": "D4",
          "ticks": 24432,
          "time": 95.4375,
          "velocity": 0.6299212598425197
        },
        {
          "duration": 0.18359375,
          "durationTicks": 47,
          "midi": 67,
          "name": "G4",
          "ticks": 24480,
          "time": 95.625,
          "velocity": 0.6299212598425197
        },
        {
          "duration": 0.18359375,
          "durationTicks": 47,
          "midi": 68,
          "name": "G#4",
          "ticks": 24528,
          "time": 95.8125,
          "velocity": 0.6299212598425197
        },
        {
          "duration": 1.12109375,
          "durationTicks": 287,
          "midi": 69,
          "name": "A4",
          "ticks": 24576,
          "time": 96,
          "velocity": 0.6299212598425197
        },
        {
          "duration": 0.37109375,
          "durationTicks": 95,
          "midi": 64,
          "name": "E4",
          "ticks": 24864,
          "time": 97.125,
          "velocity": 0.6299212598425197
        },
        {
          "duration": 0.93359375,
          "durationTicks": 239,
          "midi": 68,
          "name": "G#4",
          "ticks": 24960,
          "time": 97.5,
          "velocity": 0.6299212598425197
        },
        {
          "duration": 0.27734375,
          "durationTicks": 71,
          "midi": 69,
          "name": "A4",
          "ticks": 25200,
          "time": 98.4375,
          "velocity": 0.6299212598425197
        },
        {
          "duration": 0.27734375,
          "durationTicks": 71,
          "midi": 68,
          "name": "G#4",
          "ticks": 25272,
          "time": 98.71875,
          "velocity": 0.6299212598425197
        },
        {
          "duration": 1.12109375,
          "durationTicks": 287,
          "midi": 67,
          "name": "G4",
          "ticks": 25344,
          "time": 99,
          "velocity": 0.6299212598425197
        },
        {
          "duration": 0.37109375,
          "durationTicks": 95,
          "midi": 62,
          "name": "D4",
          "ticks": 25632,
          "time": 100.125,
          "velocity": 0.6299212598425197
        },
        {
          "duration": 0.74609375,
          "durationTicks": 191,
          "midi": 66,
          "name": "F#4",
          "ticks": 25728,
          "time": 100.5,
          "velocity": 0.6299212598425197
        },
        {
          "duration": 0.18359375,
          "durationTicks": 47,
          "midi": 64,
          "name": "E4",
          "ticks": 25920,
          "time": 101.25,
          "velocity": 0.6299212598425197
        },
        {
          "duration": 0.18359375,
          "durationTicks": 47,
          "midi": 65,
          "name": "F4",
          "ticks": 25968,
          "time": 101.4375,
          "velocity": 0.6299212598425197
        },
        {
          "duration": 0.18359375,
          "durationTicks": 47,
          "midi": 67,
          "name": "G4",
          "ticks": 26016,
          "time": 101.625,
          "velocity": 0.6299212598425197
        },
        {
          "duration": 0.18359375,
          "durationTicks": 47,
          "midi": 68,
          "name": "G#4",
          "ticks": 26064,
          "time": 101.8125,
          "velocity": 0.6299212598425197
        },
        {
          "duration": 0.2265625,
          "durationTicks": 58,
          "midi": 69,
          "name": "A4",
          "ticks": 26112,
          "time": 102,
          "velocity": 0.6299212598425197
        },
        {
          "duration": 0.140625,
          "durationTicks": 36,
          "midi": 69,
          "name": "A4",
          "ticks": 26267,
          "time": 102.60546875,
          "velocity": 0.6299212598425197
        },
        {
          "duration": 0.2265625,
          "durationTicks": 58,
          "midi": 69,
          "name": "A4",
          "ticks": 26304,
          "time": 102.75,
          "velocity": 0.6299212598425197
        },
        {
          "duration": 0.140625,
          "durationTicks": 36,
          "midi": 69,
          "name": "A4",
          "ticks": 26363,
          "time": 102.98046875,
          "velocity": 0.6299212598425197
        },
        {
          "duration": 0.2265625,
          "durationTicks": 58,
          "midi": 69,
          "name": "A4",
          "ticks": 26496,
          "time": 103.5,
          "velocity": 0.6299212598425197
        },
        {
          "duration": 0.140625,
          "durationTicks": 36,
          "midi": 69,
          "name": "A4",
          "ticks": 26651,
          "time": 104.10546875,
          "velocity": 0.6299212598425197
        },
        {
          "duration": 0.2265625,
          "durationTicks": 58,
          "midi": 69,
          "name": "A4",
          "ticks": 26688,
          "time": 104.25,
          "velocity": 0.6299212598425197
        },
        {
          "duration": 0.140625,
          "durationTicks": 36,
          "midi": 69,
          "name": "A4",
          "ticks": 26747,
          "time": 104.48046875,
          "velocity": 0.6299212598425197
        },
        {
          "duration": 0.2265625,
          "durationTicks": 58,
          "midi": 62,
          "name": "D4",
          "ticks": 26880,
          "time": 105,
          "velocity": 0.6299212598425197
        },
        {
          "duration": 0.2265625,
          "durationTicks": 58,
          "midi": 62,
          "name": "D4",
          "ticks": 26976,
          "time": 105.375,
          "velocity": 0.6299212598425197
        },
        {
          "duration": 0.2265625,
          "durationTicks": 58,
          "midi": 62,
          "name": "D4",
          "ticks": 27072,
          "time": 105.75,
          "velocity": 0.6299212598425197
        },
        {
          "duration": 0.2265625,
          "durationTicks": 58,
          "midi": 62,
          "name": "D4",
          "ticks": 27168,
          "time": 106.125,
          "velocity": 0.6299212598425197
        },
        {
          "duration": 2.99609375,
          "durationTicks": 767,
          "midi": 64,
          "name": "E4",
          "ticks": 27264,
          "time": 106.5,
          "velocity": 0.6299212598425197
        }
      ]
    },
    {
      "channel": 0,
      "controlChanges": {
        "0": [
          {
            "number": 0,
            "ticks": 0,
            "time": 0,
            "value": 0
          }
        ],
        "32": [
          {
            "number": 32,
            "ticks": 0,
            "time": 0,
            "value": 0
          }
        ]
      },
      "instrument": {
        "family": "piano",
        "name": "acoustic grand piano",
        "number": 0
      },
      "name": "MIDI 03",
      "notes": [
        {
          "duration": 0.18359375,
          "durationTicks": 47,
          "midi": 57,
          "name": "A3",
          "ticks": 1536,
          "time": 6,
          "velocity": 0.6299212598425197
        },
        {
          "duration": 0.18359375,
          "durationTicks": 47,
          "midi": 64,
          "name": "E4",
          "ticks": 1584,
          "time": 6.1875,
          "velocity": 0.6299212598425197
        },
        {
          "duration": 0.18359375,
          "durationTicks": 47,
          "midi": 65,
          "name": "F4",
          "ticks": 1632,
          "time": 6.375,
          "velocity": 0.6299212598425197
        },
        {
          "duration": 0.18359375,
          "durationTicks": 47,
          "midi": 64,
          "name": "E4",
          "ticks": 1680,
          "time": 6.5625,
          "velocity": 0.6299212598425197
        },
        {
          "duration": 0.18359375,
          "durationTicks": 47,
          "midi": 72,
          "name": "C5",
          "ticks": 1728,
          "time": 6.75,
          "velocity": 0.6299212598425197
        },
        {
          "duration": 0.18359375,
          "durationTicks": 47,
          "midi": 64,
          "name": "E4",
          "ticks": 1776,
          "time": 6.9375,
          "velocity": 0.6299212598425197
        },
        {
          "duration": 0.18359375,
          "durationTicks": 47,
          "midi": 65,
          "name": "F4",
          "ticks": 1824,
          "time": 7.125,
          "velocity": 0.6299212598425197
        },
        {
          "duration": 0.18359375,
          "durationTicks": 47,
          "midi": 64,
          "name": "E4",
          "ticks": 1872,
          "time": 7.3125,
          "velocity": 0.6299212598425197
        },
        {
          "duration": 0.18359375,
          "durationTicks": 47,
          "midi": 57,
          "name": "A3",
          "ticks": 1920,
          "time": 7.5,
          "velocity": 0.6299212598425197
        },
        {
          "duration": 0.18359375,
          "durationTicks": 47,
          "midi": 63,
          "name": "D#4",
          "ticks": 1968,
          "time": 7.6875,
          "velocity": 0.6299212598425197
        },
        {
          "duration": 0.18359375,
          "durationTicks": 47,
          "midi": 64,
          "name": "E4",
          "ticks": 2016,
          "time": 7.875,
          "velocity": 0.6299212598425197
        },
        {
          "duration": 0.18359375,
          "durationTicks": 47,
          "midi": 63,
          "name": "D#4",
          "ticks": 2064,
          "time": 8.0625,
          "velocity": 0.6299212598425197
        },
        {
          "duration": 0.18359375,
          "durationTicks": 47,
          "midi": 71,
          "name": "B4",
          "ticks": 2112,
          "time": 8.25,
          "velocity": 0.6299212598425197
        },
        {
          "duration": 0.18359375,
          "durationTicks": 47,
          "midi": 63,
          "name": "D#4",
          "ticks": 2160,
          "time": 8.4375,
          "velocity": 0.6299212598425197
        },
        {
          "duration": 0.18359375,
          "durationTicks": 47,
          "midi": 64,
          "name": "E4",
          "ticks": 2208,
          "time": 8.625,
          "velocity": 0.6299212598425197
        },
        {
          "duration": 0.18359375,
          "durationTicks": 47,
          "midi": 63,
          "name": "D#4",
          "ticks": 2256,
          "time": 8.8125,
          "velocity": 0.6299212598425197
        },
        {
          "duration": 0.18359375,
          "durationTicks": 47,
          "midi": 57,
          "name": "A3",
          "ticks": 2304,
          "time": 9,
          "velocity": 0.6299212598425197
        },
        {
          "duration": 0.18359375,
          "durationTicks": 47,
          "midi": 62,
          "name": "D4",
          "ticks": 2352,
          "time": 9.1875,
          "velocity": 0.6299212598425197
        },
        {
          "duration": 0.18359375,
          "durationTicks": 47,
          "midi": 64,
          "name": "E4",
          "ticks": 2400,
          "time": 9.375,
          "velocity": 0.6299212598425197
        },
        {
          "duration": 0.18359375,
          "durationTicks": 47,
          "midi": 62,
          "name": "D4",
          "ticks": 2448,
          "time": 9.5625,
          "velocity": 0.6299212598425197
        },
        {
          "duration": 0.18359375,
          "durationTicks": 47,
          "midi": 70,
          "name": "A#4",
          "ticks": 2496,
          "time": 9.75,
          "velocity": 0.6299212598425197
        },
        {
          "duration": 0.18359375,
          "durationTicks": 47,
          "midi": 62,
          "name": "D4",
          "ticks": 2544,
          "time": 9.9375,
          "velocity": 0.6299212598425197
        },
        {
          "duration": 0.18359375,
          "durationTicks": 47,
          "midi": 64,
          "name": "E4",
          "ticks": 2592,
          "time": 10.125,
          "velocity": 0.6299212598425197
        },
        {
          "duration": 0.18359375,
          "durationTicks": 47,
          "midi": 62,
          "name": "D4",
          "ticks": 2640,
          "time": 10.3125,
          "velocity": 0.6299212598425197
        },
        {
          "duration": 0.18359375,
          "durationTicks": 47,
          "midi": 57,
          "name": "A3",
          "ticks": 2688,
          "time": 10.5,
          "velocity": 0.6299212598425197
        },
        {
          "duration": 0.18359375,
          "durationTicks": 47,
          "midi": 66,
          "name": "F#4",
          "ticks": 2736,
          "time": 10.6875,
          "velocity": 0.6299212598425197
        },
        {
          "duration": 0.18359375,
          "durationTicks": 47,
          "midi": 67,
          "name": "G4",
          "ticks": 2784,
          "time": 10.875,
          "velocity": 0.6299212598425197
        },
        {
          "duration": 0.18359375,
          "durationTicks": 47,
          "midi": 69,
          "name": "A4",
          "ticks": 2832,
          "time": 11.0625,
          "velocity": 0.6299212598425197
        },
        {
          "duration": 0.18359375,
          "durationTicks": 47,
          "midi": 64,
          "name": "E4",
          "ticks": 2880,
          "time": 11.25,
          "velocity": 0.6299212598425197
        },
        {
          "duration": 0.18359375,
          "durationTicks": 47,
          "midi": 65,
          "name": "F4",
          "ticks": 2928,
          "time": 11.4375,
          "velocity": 0.6299212598425197
        },
        {
          "duration": 0.18359375,
          "durationTicks": 47,
          "midi": 67,
          "name": "G4",
          "ticks": 2976,
          "time": 11.625,
          "velocity": 0.6299212598425197
        },
        {
          "duration": 0.18359375,
          "durationTicks": 47,
          "midi": 65,
          "name": "F4",
          "ticks": 3024,
          "time": 11.8125,
          "velocity": 0.6299212598425197
        },
        {
          "duration": 0.18359375,
          "durationTicks": 47,
          "midi": 57,
          "name": "A3",
          "ticks": 3072,
          "time": 12,
          "velocity": 0.6299212598425197
        },
        {
          "duration": 0.18359375,
          "durationTicks": 47,
          "midi": 64,
          "name": "E4",
          "ticks": 3120,
          "time": 12.1875,
          "velocity": 0.6299212598425197
        },
        {
          "duration": 0.18359375,
          "durationTicks": 47,
          "midi": 65,
          "name": "F4",
          "ticks": 3168,
          "time": 12.375,
          "velocity": 0.6299212598425197
        },
        {
          "duration": 0.18359375,
          "durationTicks": 47,
          "midi": 64,
          "name": "E4",
          "ticks": 3216,
          "time": 12.5625,
          "velocity": 0.6299212598425197
        },
        {
          "duration": 0.18359375,
          "durationTicks": 47,
          "midi": 72,
          "name": "C5",
          "ticks": 3264,
          "time": 12.75,
          "velocity": 0.6299212598425197
        },
        {
          "duration": 0.18359375,
          "durationTicks": 47,
          "midi": 64,
          "name": "E4",
          "ticks": 3312,
          "time": 12.9375,
          "velocity": 0.6299212598425197
        },
        {
          "duration": 0.18359375,
          "durationTicks": 47,
          "midi": 65,
          "name": "F4",
          "ticks": 3360,
          "time": 13.125,
          "velocity": 0.6299212598425197
        },
        {
          "duration": 0.18359375,
          "durationTicks": 47,
          "midi": 64,
          "name": "E4",
          "ticks": 3408,
          "time": 13.3125,
          "velocity": 0.6299212598425197
        },
        {
          "duration": 0.18359375,
          "durationTicks": 47,
          "midi": 57,
          "name": "A3",
          "ticks": 3456,
          "time": 13.5,
          "velocity": 0.6299212598425197
        },
        {
          "duration": 0.18359375,
          "durationTicks": 47,
          "midi": 63,
          "name": "D#4",
          "ticks": 3504,
          "time": 13.6875,
          "velocity": 0.6299212598425197
        },
        {
          "duration": 0.18359375,
          "durationTicks": 47,
          "midi": 64,
          "name": "E4",
          "ticks": 3552,
          "time": 13.875,
          "velocity": 0.6299212598425197
        },
        {
          "duration": 0.18359375,
          "durationTicks": 47,
          "midi": 63,
          "name": "D#4",
          "ticks": 3600,
          "time": 14.0625,
          "velocity": 0.6299212598425197
        },
        {
          "duration": 0.18359375,
          "durationTicks": 47,
          "midi": 71,
          "name": "B4",
          "ticks": 3648,
          "time": 14.25,
          "velocity": 0.6299212598425197
        },
        {
          "duration": 0.18359375,
          "durationTicks": 47,
          "midi": 63,
          "name": "D#4",
          "ticks": 3696,
          "time": 14.4375,
          "velocity": 0.6299212598425197
        },
        {
          "duration": 0.18359375,
          "durationTicks": 47,
          "midi": 64,
          "name": "E4",
          "ticks": 3744,
          "time": 14.625,
          "velocity": 0.6299212598425197
        },
        {
          "duration": 0.18359375,
          "durationTicks": 47,
          "midi": 63,
          "name": "D#4",
          "ticks": 3792,
          "time": 14.8125,
          "velocity": 0.6299212598425197
        },
        {
          "duration": 0.18359375,
          "durationTicks": 47,
          "midi": 57,
          "name": "A3",
          "ticks": 3840,
          "time": 15,
          "velocity": 0.6299212598425197
        },
        {
          "duration": 0.18359375,
          "durationTicks": 47,
          "midi": 62,
          "name": "D4",
          "ticks": 3888,
          "time": 15.1875,
          "velocity": 0.6299212598425197
        },
        {
          "duration": 0.18359375,
          "durationTicks": 47,
          "midi": 64,
          "name": "E4",
          "ticks": 3936,
          "time": 15.375,
          "velocity": 0.6299212598425197
        },
        {
          "duration": 0.18359375,
          "durationTicks": 47,
          "midi": 62,
          "name": "D4",
          "ticks": 3984,
          "time": 15.5625,
          "velocity": 0.6299212598425197
        },
        {
          "duration": 0.18359375,
          "durationTicks": 47,
          "midi": 70,
          "name": "A#4",
          "ticks": 4032,
          "time": 15.75,
          "velocity": 0.6299212598425197
        },
        {
          "duration": 0.18359375,
          "durationTicks": 47,
          "midi": 62,
          "name": "D4",
          "ticks": 4080,
          "time": 15.9375,
          "velocity": 0.6299212598425197
        },
        {
          "duration": 0.18359375,
          "durationTicks": 47,
          "midi": 64,
          "name": "E4",
          "ticks": 4128,
          "time": 16.125,
          "velocity": 0.6299212598425197
        },
        {
          "duration": 0.18359375,
          "durationTicks": 47,
          "midi": 62,
          "name": "D4",
          "ticks": 4176,
          "time": 16.3125,
          "velocity": 0.6299212598425197
        },
        {
          "duration": 0.18359375,
          "durationTicks": 47,
          "midi": 57,
          "name": "A3",
          "ticks": 4224,
          "time": 16.5,
          "velocity": 0.6299212598425197
        },
        {
          "duration": 0.18359375,
          "durationTicks": 47,
          "midi": 66,
          "name": "F#4",
          "ticks": 4272,
          "time": 16.6875,
          "velocity": 0.6299212598425197
        },
        {
          "duration": 0.18359375,
          "durationTicks": 47,
          "midi": 67,
          "name": "G4",
          "ticks": 4320,
          "time": 16.875,
          "velocity": 0.6299212598425197
        },
        {
          "duration": 0.18359375,
          "durationTicks": 47,
          "midi": 69,
          "name": "A4",
          "ticks": 4368,
          "time": 17.0625,
          "velocity": 0.6299212598425197
        },
        {
          "duration": 0.18359375,
          "durationTicks": 47,
          "midi": 64,
          "name": "E4",
          "ticks": 4416,
          "time": 17.25,
          "velocity": 0.6299212598425197
        },
        {
          "duration": 0.18359375,
          "durationTicks": 47,
          "midi": 65,
          "name": "F4",
          "ticks": 4464,
          "time": 17.4375,
          "velocity": 0.6299212598425197
        },
        {
          "duration": 0.18359375,
          "durationTicks": 47,
          "midi": 67,
          "name": "G4",
          "ticks": 4512,
          "time": 17.625,
          "velocity": 0.6299212598425197
        },
        {
          "duration": 0.18359375,
          "durationTicks": 47,
          "midi": 65,
          "name": "F4",
          "ticks": 4560,
          "time": 17.8125,
          "velocity": 0.6299212598425197
        },
        {
          "duration": 0.18359375,
          "durationTicks": 47,
          "midi": 57,
          "name": "A3",
          "ticks": 4608,
          "time": 18,
          "velocity": 0.6299212598425197
        },
        {
          "duration": 0.18359375,
          "durationTicks": 47,
          "midi": 64,
          "name": "E4",
          "ticks": 4656,
          "time": 18.1875,
          "velocity": 0.6299212598425197
        },
        {
          "duration": 0.18359375,
          "durationTicks": 47,
          "midi": 65,
          "name": "F4",
          "ticks": 4704,
          "time": 18.375,
          "velocity": 0.6299212598425197
        },
        {
          "duration": 0.18359375,
          "durationTicks": 47,
          "midi": 64,
          "name": "E4",
          "ticks": 4752,
          "time": 18.5625,
          "velocity": 0.6299212598425197
        },
        {
          "duration": 0.18359375,
          "durationTicks": 47,
          "midi": 72,
          "name": "C5",
          "ticks": 4800,
          "time": 18.75,
          "velocity": 0.6299212598425197
        },
        {
          "duration": 0.18359375,
          "durationTicks": 47,
          "midi": 64,
          "name": "E4",
          "ticks": 4848,
          "time": 18.9375,
          "velocity": 0.6299212598425197
        },
        {
          "duration": 0.18359375,
          "durationTicks": 47,
          "midi": 65,
          "name": "F4",
          "ticks": 4896,
          "time": 19.125,
          "velocity": 0.6299212598425197
        },
        {
          "duration": 0.18359375,
          "durationTicks": 47,
          "midi": 64,
          "name": "E4",
          "ticks": 4944,
          "time": 19.3125,
          "velocity": 0.6299212598425197
        },
        {
          "duration": 0.18359375,
          "durationTicks": 47,
          "midi": 57,
          "name": "A3",
          "ticks": 4992,
          "time": 19.5,
          "velocity": 0.6299212598425197
        },
        {
          "duration": 0.18359375,
          "durationTicks": 47,
          "midi": 63,
          "name": "D#4",
          "ticks": 5040,
          "time": 19.6875,
          "velocity": 0.6299212598425197
        },
        {
          "duration": 0.18359375,
          "durationTicks": 47,
          "midi": 64,
          "name": "E4",
          "ticks": 5088,
          "time": 19.875,
          "velocity": 0.6299212598425197
        },
        {
          "duration": 0.18359375,
          "durationTicks": 47,
          "midi": 63,
          "name": "D#4",
          "ticks": 5136,
          "time": 20.0625,
          "velocity": 0.6299212598425197
        },
        {
          "duration": 0.18359375,
          "durationTicks": 47,
          "midi": 71,
          "name": "B4",
          "ticks": 5184,
          "time": 20.25,
          "velocity": 0.6299212598425197
        },
        {
          "duration": 0.18359375,
          "durationTicks": 47,
          "midi": 63,
          "name": "D#4",
          "ticks": 5232,
          "time": 20.4375,
          "velocity": 0.6299212598425197
        },
        {
          "duration": 0.18359375,
          "durationTicks": 47,
          "midi": 64,
          "name": "E4",
          "ticks": 5280,
          "time": 20.625,
          "velocity": 0.6299212598425197
        },
        {
          "duration": 0.18359375,
          "durationTicks": 47,
          "midi": 63,
          "name": "D#4",
          "ticks": 5328,
          "time": 20.8125,
          "velocity": 0.6299212598425197
        },
        {
          "duration": 0.18359375,
          "durationTicks": 47,
          "midi": 57,
          "name": "A3",
          "ticks": 5376,
          "time": 21,
          "velocity": 0.6299212598425197
        },
        {
          "duration": 0.18359375,
          "durationTicks": 47,
          "midi": 62,
          "name": "D4",
          "ticks": 5424,
          "time": 21.1875,
          "velocity": 0.6299212598425197
        },
        {
          "duration": 0.18359375,
          "durationTicks": 47,
          "midi": 64,
          "name": "E4",
          "ticks": 5472,
          "time": 21.375,
          "velocity": 0.6299212598425197
        },
        {
          "duration": 0.18359375,
          "durationTicks": 47,
          "midi": 62,
          "name": "D4",
          "ticks": 5520,
          "time": 21.5625,
          "velocity": 0.6299212598425197
        },
        {
          "duration": 0.18359375,
          "durationTicks": 47,
          "midi": 70,
          "name": "A#4",
          "ticks": 5568,
          "time": 21.75,
          "velocity": 0.6299212598425197
        },
        {
          "duration": 0.18359375,
          "durationTicks": 47,
          "midi": 62,
          "name": "D4",
          "ticks": 5616,
          "time": 21.9375,
          "velocity": 0.6299212598425197
        },
        {
          "duration": 0.18359375,
          "durationTicks": 47,
          "midi": 64,
          "name": "E4",
          "ticks": 5664,
          "time": 22.125,
          "velocity": 0.6299212598425197
        },
        {
          "duration": 0.18359375,
          "durationTicks": 47,
          "midi": 62,
          "name": "D4",
          "ticks": 5712,
          "time": 22.3125,
          "velocity": 0.6299212598425197
        },
        {
          "duration": 0.18359375,
          "durationTicks": 47,
          "midi": 57,
          "name": "A3",
          "ticks": 5760,
          "time": 22.5,
          "velocity": 0.6299212598425197
        },
        {
          "duration": 0.18359375,
          "durationTicks": 47,
          "midi": 66,
          "name": "F#4",
          "ticks": 5808,
          "time": 22.6875,
          "velocity": 0.6299212598425197
        },
        {
          "duration": 0.18359375,
          "durationTicks": 47,
          "midi": 67,
          "name": "G4",
          "ticks": 5856,
          "time": 22.875,
          "velocity": 0.6299212598425197
        },
        {
          "duration": 0.18359375,
          "durationTicks": 47,
          "midi": 69,
          "name": "A4",
          "ticks": 5904,
          "time": 23.0625,
          "velocity": 0.6299212598425197
        },
        {
          "duration": 0.18359375,
          "durationTicks": 47,
          "midi": 64,
          "name": "E4",
          "ticks": 5952,
          "time": 23.25,
          "velocity": 0.6299212598425197
        },
        {
          "duration": 0.18359375,
          "durationTicks": 47,
          "midi": 65,
          "name": "F4",
          "ticks": 6000,
          "time": 23.4375,
          "velocity": 0.6299212598425197
        },
        {
          "duration": 0.18359375,
          "durationTicks": 47,
          "midi": 67,
          "name": "G4",
          "ticks": 6048,
          "time": 23.625,
          "velocity": 0.6299212598425197
        },
        {
          "duration": 0.18359375,
          "durationTicks": 47,
          "midi": 65,
          "name": "F4",
          "ticks": 6096,
          "time": 23.8125,
          "velocity": 0.6299212598425197
        },
        {
          "duration": 0.18359375,
          "durationTicks": 47,
          "midi": 57,
          "name": "A3",
          "ticks": 6144,
          "time": 24,
          "velocity": 0.6299212598425197
        },
        {
          "duration": 0.18359375,
          "durationTicks": 47,
          "midi": 64,
          "name": "E4",
          "ticks": 6192,
          "time": 24.1875,
          "velocity": 0.6299212598425197
        },
        {
          "duration": 0.18359375,
          "durationTicks": 47,
          "midi": 65,
          "name": "F4",
          "ticks": 6240,
          "time": 24.375,
          "velocity": 0.6299212598425197
        },
        {
          "duration": 0.18359375,
          "durationTicks": 47,
          "midi": 64,
          "name": "E4",
          "ticks": 6288,
          "time": 24.5625,
          "velocity": 0.6299212598425197
        },
        {
          "duration": 0.18359375,
          "durationTicks": 47,
          "midi": 72,
          "name": "C5",
          "ticks": 6336,
          "time": 24.75,
          "velocity": 0.6299212598425197
        },
        {
          "duration": 0.18359375,
          "durationTicks": 47,
          "midi": 64,
          "name": "E4",
          "ticks": 6384,
          "time": 24.9375,
          "velocity": 0.6299212598425197
        },
        {
          "duration": 0.18359375,
          "durationTicks": 47,
          "midi": 65,
          "name": "F4",
          "ticks": 6432,
          "time": 25.125,
          "velocity": 0.6299212598425197
        },
        {
          "duration": 0.18359375,
          "durationTicks": 47,
          "midi": 64,
          "name": "E4",
          "ticks": 6480,
          "time": 25.3125,
          "velocity": 0.6299212598425197
        },
        {
          "duration": 0.18359375,
          "durationTicks": 47,
          "midi": 57,
          "name": "A3",
          "ticks": 6528,
          "time": 25.5,
          "velocity": 0.6299212598425197
        },
        {
          "duration": 0.18359375,
          "durationTicks": 47,
          "midi": 63,
          "name": "D#4",
          "ticks": 6576,
          "time": 25.6875,
          "velocity": 0.6299212598425197
        },
        {
          "duration": 0.18359375,
          "durationTicks": 47,
          "midi": 64,
          "name": "E4",
          "ticks": 6624,
          "time": 25.875,
          "velocity": 0.6299212598425197
        },
        {
          "duration": 0.18359375,
          "durationTicks": 47,
          "midi": 63,
          "name": "D#4",
          "ticks": 6672,
          "time": 26.0625,
          "velocity": 0.6299212598425197
        },
        {
          "duration": 0.18359375,
          "durationTicks": 47,
          "midi": 71,
          "name": "B4",
          "ticks": 6720,
          "time": 26.25,
          "velocity": 0.6299212598425197
        },
        {
          "duration": 0.18359375,
          "durationTicks": 47,
          "midi": 63,
          "name": "D#4",
          "ticks": 6768,
          "time": 26.4375,
          "velocity": 0.6299212598425197
        },
        {
          "duration": 0.18359375,
          "durationTicks": 47,
          "midi": 64,
          "name": "E4",
          "ticks": 6816,
          "time": 26.625,
          "velocity": 0.6299212598425197
        },
        {
          "duration": 0.18359375,
          "durationTicks": 47,
          "midi": 63,
          "name": "D#4",
          "ticks": 6864,
          "time": 26.8125,
          "velocity": 0.6299212598425197
        },
        {
          "duration": 0.18359375,
          "durationTicks": 47,
          "midi": 57,
          "name": "A3",
          "ticks": 6912,
          "time": 27,
          "velocity": 0.6299212598425197
        },
        {
          "duration": 0.18359375,
          "durationTicks": 47,
          "midi": 62,
          "name": "D4",
          "ticks": 6960,
          "time": 27.1875,
          "velocity": 0.6299212598425197
        },
        {
          "duration": 0.18359375,
          "durationTicks": 47,
          "midi": 64,
          "name": "E4",
          "ticks": 7008,
          "time": 27.375,
          "velocity": 0.6299212598425197
        },
        {
          "duration": 0.18359375,
          "durationTicks": 47,
          "midi": 62,
          "name": "D4",
          "ticks": 7056,
          "time": 27.5625,
          "velocity": 0.6299212598425197
        },
        {
          "duration": 0.18359375,
          "durationTicks": 47,
          "midi": 70,
          "name": "A#4",
          "ticks": 7104,
          "time": 27.75,
          "velocity": 0.6299212598425197
        },
        {
          "duration": 0.18359375,
          "durationTicks": 47,
          "midi": 62,
          "name": "D4",
          "ticks": 7152,
          "time": 27.9375,
          "velocity": 0.6299212598425197
        },
        {
          "duration": 0.18359375,
          "durationTicks": 47,
          "midi": 64,
          "name": "E4",
          "ticks": 7200,
          "time": 28.125,
          "velocity": 0.6299212598425197
        },
        {
          "duration": 0.18359375,
          "durationTicks": 47,
          "midi": 62,
          "name": "D4",
          "ticks": 7248,
          "time": 28.3125,
          "velocity": 0.6299212598425197
        },
        {
          "duration": 0.18359375,
          "durationTicks": 47,
          "midi": 57,
          "name": "A3",
          "ticks": 7296,
          "time": 28.5,
          "velocity": 0.6299212598425197
        },
        {
          "duration": 0.18359375,
          "durationTicks": 47,
          "midi": 33,
          "name": "A1",
          "ticks": 7488,
          "time": 29.25,
          "velocity": 0.6299212598425197
        },
        {
          "duration": 0.18359375,
          "durationTicks": 47,
          "midi": 35,
          "name": "B1",
          "ticks": 7536,
          "time": 29.4375,
          "velocity": 0.6299212598425197
        },
        {
          "duration": 0.18359375,
          "durationTicks": 47,
          "midi": 36,
          "name": "C2",
          "ticks": 7584,
          "time": 29.625,
          "velocity": 0.6299212598425197
        },
        {
          "duration": 0.18359375,
          "durationTicks": 47,
          "midi": 37,
          "name": "C#2",
          "ticks": 7632,
          "time": 29.8125,
          "velocity": 0.6299212598425197
        },
        {
          "duration": 1.49609375,
          "durationTicks": 383,
          "midi": 38,
          "name": "D2",
          "ticks": 7680,
          "time": 30,
          "velocity": 0.6299212598425197
        },
        {
          "duration": 1.30859375,
          "durationTicks": 335,
          "midi": 62,
          "name": "D4",
          "ticks": 7728,
          "time": 30.1875,
          "velocity": 0.6299212598425197
        },
        {
          "duration": 1.30859375,
          "durationTicks": 335,
          "midi": 67,
          "name": "G4",
          "ticks": 7728,
          "time": 30.1875,
          "velocity": 0.6299212598425197
        },
        {
          "duration": 1.30859375,
          "durationTicks": 335,
          "midi": 69,
          "name": "A4",
          "ticks": 7728,
          "time": 30.1875,
          "velocity": 0.6299212598425197
        },
        {
          "duration": 1.49609375,
          "durationTicks": 383,
          "midi": 38,
          "name": "D2",
          "ticks": 8064,
          "time": 31.5,
          "velocity": 0.6299212598425197
        },
        {
          "duration": 1.30859375,
          "durationTicks": 335,
          "midi": 61,
          "name": "C#4",
          "ticks": 8112,
          "time": 31.6875,
          "velocity": 0.6299212598425197
        },
        {
          "duration": 1.30859375,
          "durationTicks": 335,
          "midi": 66,
          "name": "F#4",
          "ticks": 8112,
          "time": 31.6875,
          "velocity": 0.6299212598425197
        },
        {
          "duration": 1.30859375,
          "durationTicks": 335,
          "midi": 69,
          "name": "A4",
          "ticks": 8112,
          "time": 31.6875,
          "velocity": 0.6299212598425197
        },
        {
          "duration": 1.30859375,
          "durationTicks": 335,
          "midi": 64,
          "name": "E4",
          "ticks": 8112,
          "time": 31.6875,
          "velocity": 0.6299212598425197
        },
        {
          "duration": 1.49609375,
          "durationTicks": 383,
          "midi": 38,
          "name": "D2",
          "ticks": 8448,
          "time": 33,
          "velocity": 0.6299212598425197
        },
        {
          "duration": 1.30859375,
          "durationTicks": 335,
          "midi": 55,
          "name": "G3",
          "ticks": 8496,
          "time": 33.1875,
          "velocity": 0.6299212598425197
        },
        {
          "duration": 1.30859375,
          "durationTicks": 335,
          "midi": 64,
          "name": "E4",
          "ticks": 8496,
          "time": 33.1875,
          "velocity": 0.6299212598425197
        },
        {
          "duration": 1.30859375,
          "durationTicks": 335,
          "midi": 60,
          "name": "C4",
          "ticks": 8496,
          "time": 33.1875,
          "velocity": 0.6299212598425197
        },
        {
          "duration": 1.30859375,
          "durationTicks": 335,
          "midi": 65,
          "name": "F4",
          "ticks": 8496,
          "time": 33.1875,
          "velocity": 0.6299212598425197
        },
        {
          "duration": 1.49609375,
          "durationTicks": 383,
          "midi": 38,
          "name": "D2",
          "ticks": 8832,
          "time": 34.5,
          "velocity": 0.6299212598425197
        },
        {
          "duration": 1.30859375,
          "durationTicks": 335,
          "midi": 54,
          "name": "F#3",
          "ticks": 8880,
          "time": 34.6875,
          "velocity": 0.6299212598425197
        },
        {
          "duration": 1.30859375,
          "durationTicks": 335,
          "midi": 59,
          "name": "B3",
          "ticks": 8880,
          "time": 34.6875,
          "velocity": 0.6299212598425197
        },
        {
          "duration": 1.30859375,
          "durationTicks": 335,
          "midi": 62,
          "name": "D4",
          "ticks": 8880,
          "time": 34.6875,
          "velocity": 0.6299212598425197
        },
        {
          "duration": 1.30859375,
          "durationTicks": 335,
          "midi": 55,
          "name": "G3",
          "ticks": 8880,
          "time": 34.6875,
          "velocity": 0.6299212598425197
        },
        {
          "duration": 1.49609375,
          "durationTicks": 383,
          "midi": 38,
          "name": "D2",
          "ticks": 9216,
          "time": 36,
          "velocity": 0.6299212598425197
        },
        {
          "duration": 1.30859375,
          "durationTicks": 335,
          "midi": 62,
          "name": "D4",
          "ticks": 9264,
          "time": 36.1875,
          "velocity": 0.6299212598425197
        },
        {
          "duration": 1.30859375,
          "durationTicks": 335,
          "midi": 67,
          "name": "G4",
          "ticks": 9264,
          "time": 36.1875,
          "velocity": 0.6299212598425197
        },
        {
          "duration": 1.30859375,
          "durationTicks": 335,
          "midi": 69,
          "name": "A4",
          "ticks": 9264,
          "time": 36.1875,
          "velocity": 0.6299212598425197
        },
        {
          "duration": 1.49609375,
          "durationTicks": 383,
          "midi": 38,
          "name": "D2",
          "ticks": 9600,
          "time": 37.5,
          "velocity": 0.6299212598425197
        },
        {
          "duration": 1.30859375,
          "durationTicks": 335,
          "midi": 61,
          "name": "C#4",
          "ticks": 9648,
          "time": 37.6875,
          "velocity": 0.6299212598425197
        },
        {
          "duration": 1.30859375,
          "durationTicks": 335,
          "midi": 66,
          "name": "F#4",
          "ticks": 9648,
          "time": 37.6875,
          "velocity": 0.6299212598425197
        },
        {
          "duration": 1.30859375,
          "durationTicks": 335,
          "midi": 69,
          "name": "A4",
          "ticks": 9648,
          "time": 37.6875,
          "velocity": 0.6299212598425197
        },
        {
          "duration": 1.30859375,
          "durationTicks": 335,
          "midi": 64,
          "name": "E4",
          "ticks": 9648,
          "time": 37.6875,
          "velocity": 0.6299212598425197
        },
        {
          "duration": 1.49609375,
          "durationTicks": 383,
          "midi": 38,
          "name": "D2",
          "ticks": 9984,
          "time": 39,
          "velocity": 0.6299212598425197
        },
        {
          "duration": 1.30859375,
          "durationTicks": 335,
          "midi": 55,
          "name": "G3",
          "ticks": 10032,
          "time": 39.1875,
          "velocity": 0.6299212598425197
        },
        {
          "duration": 1.30859375,
          "durationTicks": 335,
          "midi": 64,
          "name": "E4",
          "ticks": 10032,
          "time": 39.1875,
          "velocity": 0.6299212598425197
        },
        {
          "duration": 1.30859375,
          "durationTicks": 335,
          "midi": 60,
          "name": "C4",
          "ticks": 10032,
          "time": 39.1875,
          "velocity": 0.6299212598425197
        },
        {
          "duration": 1.30859375,
          "durationTicks": 335,
          "midi": 65,
          "name": "F4",
          "ticks": 10032,
          "time": 39.1875,
          "velocity": 0.6299212598425197
        },
        {
          "duration": 1.49609375,
          "durationTicks": 383,
          "midi": 38,
          "name": "D2",
          "ticks": 10368,
          "time": 40.5,
          "velocity": 0.6299212598425197
        },
        {
          "duration": 1.30859375,
          "durationTicks": 335,
          "midi": 57,
          "name": "A3",
          "ticks": 10416,
          "time": 40.6875,
          "velocity": 0.6299212598425197
        },
        {
          "duration": 1.30859375,
          "durationTicks": 335,
          "midi": 59,
          "name": "B3",
          "ticks": 10416,
          "time": 40.6875,
          "velocity": 0.6299212598425197
        },
        {
          "duration": 1.30859375,
          "durationTicks": 335,
          "midi": 64,
          "name": "E4",
          "ticks": 10416,
          "time": 40.6875,
          "velocity": 0.6299212598425197
        },
        {
          "duration": 1.30859375,
          "durationTicks": 335,
          "midi": 67,
          "name": "G4",
          "ticks": 10416,
          "time": 40.6875,
          "velocity": 0.6299212598425197
        },
        {
          "duration": 0.8828125,
          "durationTicks": 226,
          "midi": 58,
          "name": "A#3",
          "ticks": 10908,
          "time": 42.609375,
          "velocity": 0.6299212598425197
        },
        {
          "duration": 0.88671875,
          "durationTicks": 227,
          "midi": 65,
          "name": "F4",
          "ticks": 10908,
          "time": 42.609375,
          "velocity": 0.6299212598425197
        },
        {
          "duration": 0.88671875,
          "durationTicks": 227,
          "midi": 62,
          "name": "D4",
          "ticks": 10908,
          "time": 42.609375,
          "velocity": 0.6299212598425197
        },
        {
          "duration": 0.88671875,
          "durationTicks": 227,
          "midi": 57,
          "name": "A3",
          "ticks": 10908,
          "time": 42.609375,
          "velocity": 0.6299212598425197
        },
        {
          "duration": 0.8828125,
          "durationTicks": 226,
          "midi": 60,
          "name": "C4",
          "ticks": 11292,
          "time": 44.109375,
          "velocity": 0.6299212598425197
        },
        {
          "duration": 0.88671875,
          "durationTicks": 227,
          "midi": 67,
          "name": "G4",
          "ticks": 11292,
          "time": 44.109375,
          "velocity": 0.6299212598425197
        },
        {
          "duration": 0.88671875,
          "durationTicks": 227,
          "midi": 64,
          "name": "E4",
          "ticks": 11292,
          "time": 44.109375,
          "velocity": 0.6299212598425197
        },
        {
          "duration": 0.88671875,
          "durationTicks": 227,
          "midi": 62,
          "name": "D4",
          "ticks": 11292,
          "time": 44.109375,
          "velocity": 0.6299212598425197
        },
        {
          "duration": 0.37109375,
          "durationTicks": 95,
          "midi": 62,
          "name": "D4",
          "ticks": 11616,
          "time": 45.375,
          "velocity": 0.6299212598425197
        },
        {
          "duration": 0.37109375,
          "durationTicks": 95,
          "midi": 56,
          "name": "G#3",
          "ticks": 11616,
          "time": 45.375,
          "velocity": 0.6299212598425197
        },
        {
          "duration": 0.37109375,
          "durationTicks": 95,
          "midi": 60,
          "name": "C4",
          "ticks": 11616,
          "time": 45.375,
          "velocity": 0.6299212598425197
        },
        {
          "duration": 0.37109375,
          "durationTicks": 95,
          "midi": 67,
          "name": "G4",
          "ticks": 11616,
          "time": 45.375,
          "velocity": 0.6299212598425197
        },
        {
          "duration": 0.23046875,
          "durationTicks": 59,
          "midi": 62,
          "name": "D4",
          "ticks": 11712,
          "time": 45.75,
          "velocity": 0.6299212598425197
        },
        {
          "duration": 0.23046875,
          "durationTicks": 59,
          "midi": 56,
          "name": "G#3",
          "ticks": 11712,
          "time": 45.75,
          "velocity": 0.6299212598425197
        },
        {
          "duration": 0.23046875,
          "durationTicks": 59,
          "midi": 60,
          "name": "C4",
          "ticks": 11712,
          "time": 45.75,
          "velocity": 0.6299212598425197
        },
        {
          "duration": 0.23046875,
          "durationTicks": 59,
          "midi": 67,
          "name": "G4",
          "ticks": 11712,
          "time": 45.75,
          "velocity": 0.6299212598425197
        },
        {
          "duration": 0.51171875,
          "durationTicks": 131,
          "midi": 62,
          "name": "D4",
          "ticks": 11772,
          "time": 45.984375,
          "velocity": 0.6299212598425197
        },
        {
          "duration": 0.51171875,
          "durationTicks": 131,
          "midi": 56,
          "name": "G#3",
          "ticks": 11772,
          "time": 45.984375,
          "velocity": 0.6299212598425197
        },
        {
          "duration": 0.51171875,
          "durationTicks": 131,
          "midi": 60,
          "name": "C4",
          "ticks": 11772,
          "time": 45.984375,
          "velocity": 0.6299212598425197
        },
        {
          "duration": 0.51171875,
          "durationTicks": 131,
          "midi": 67,
          "name": "G4",
          "ticks": 11772,
          "time": 45.984375,
          "velocity": 0.6299212598425197
        },
        {
          "duration": 0.37109375,
          "durationTicks": 95,
          "midi": 61,
          "name": "C#4",
          "ticks": 11904,
          "time": 46.5,
          "velocity": 0.6299212598425197
        },
        {
          "duration": 0.37109375,
          "durationTicks": 95,
          "midi": 55,
          "name": "G3",
          "ticks": 11904,
          "time": 46.5,
          "velocity": 0.6299212598425197
        },
        {
          "duration": 0.37109375,
          "durationTicks": 95,
          "midi": 65,
          "name": "F4",
          "ticks": 11904,
          "time": 46.5,
          "velocity": 0.6299212598425197
        },
        {
          "duration": 0.37109375,
          "durationTicks": 95,
          "midi": 70,
          "name": "A#4",
          "ticks": 11904,
          "time": 46.5,
          "velocity": 0.6299212598425197
        },
        {
          "duration": 0.37109375,
          "durationTicks": 95,
          "midi": 61,
          "name": "C#4",
          "ticks": 12000,
          "time": 46.875,
          "velocity": 0.6299212598425197
        },
        {
          "duration": 0.37109375,
          "durationTicks": 95,
          "midi": 55,
          "name": "G3",
          "ticks": 12000,
          "time": 46.875,
          "velocity": 0.6299212598425197
        },
        {
          "duration": 0.37109375,
          "durationTicks": 95,
          "midi": 65,
          "name": "F4",
          "ticks": 12000,
          "time": 46.875,
          "velocity": 0.6299212598425197
        },
        {
          "duration": 0.37109375,
          "durationTicks": 95,
          "midi": 70,
          "name": "A#4",
          "ticks": 12000,
          "time": 46.875,
          "velocity": 0.6299212598425197
        },
        {
          "duration": 0.23046875,
          "durationTicks": 59,
          "midi": 61,
          "name": "C#4",
          "ticks": 12096,
          "time": 47.25,
          "velocity": 0.6299212598425197
        },
        {
          "duration": 0.23046875,
          "durationTicks": 59,
          "midi": 55,
          "name": "G3",
          "ticks": 12096,
          "time": 47.25,
          "velocity": 0.6299212598425197
        },
        {
          "duration": 0.23046875,
          "durationTicks": 59,
          "midi": 65,
          "name": "F4",
          "ticks": 12096,
          "time": 47.25,
          "velocity": 0.6299212598425197
        },
        {
          "duration": 0.23046875,
          "durationTicks": 59,
          "midi": 70,
          "name": "A#4",
          "ticks": 12096,
          "time": 47.25,
          "velocity": 0.6299212598425197
        },
        {
          "duration": 0.890625,
          "durationTicks": 228,
          "midi": 69,
          "name": "A4",
          "ticks": 12251,
          "time": 47.85546875,
          "velocity": 0.6299212598425197
        },
        {
          "duration": 0.890625,
          "durationTicks": 228,
          "midi": 58,
          "name": "A#3",
          "ticks": 12251,
          "time": 47.85546875,
          "velocity": 0.6299212598425197
        },
        {
          "duration": 0.890625,
          "durationTicks": 228,
          "midi": 60,
          "name": "C4",
          "ticks": 12251,
          "time": 47.85546875,
          "velocity": 0.6299212598425197
        },
        {
          "duration": 0.890625,
          "durationTicks": 228,
          "midi": 65,
          "name": "F4",
          "ticks": 12251,
          "time": 47.85546875,
          "velocity": 0.6299212598425197
        },
        {
          "duration": 0.515625,
          "durationTicks": 132,
          "midi": 58,
          "name": "A#3",
          "ticks": 12539,
          "time": 48.98046875,
          "velocity": 0.6299212598425197
        },
        {
          "duration": 0.515625,
          "durationTicks": 132,
          "midi": 62,
          "name": "D4",
          "ticks": 12539,
          "time": 48.98046875,
          "velocity": 0.6299212598425197
        },
        {
          "duration": 0.515625,
          "durationTicks": 132,
          "midi": 65,
          "name": "F4",
          "ticks": 12539,
          "time": 48.98046875,
          "velocity": 0.6299212598425197
        },
        {
          "duration": 0.515625,
          "durationTicks": 132,
          "midi": 60,
          "name": "C4",
          "ticks": 12539,
          "time": 48.98046875,
          "velocity": 0.6299212598425197
        },
        {
          "duration": 0.88671875,
          "durationTicks": 227,
          "midi": 67,
          "name": "G4",
          "ticks": 12828,
          "time": 50.109375,
          "velocity": 0.6299212598425197
        },
        {
          "duration": 0.88671875,
          "durationTicks": 227,
          "midi": 64,
          "name": "E4",
          "ticks": 12828,
          "time": 50.109375,
          "velocity": 0.6299212598425197
        },
        {
          "duration": 0.88671875,
          "durationTicks": 227,
          "midi": 60,
          "name": "C4",
          "ticks": 12828,
          "time": 50.109375,
          "velocity": 0.6299212598425197
        },
        {
          "duration": 0.88671875,
          "durationTicks": 227,
          "midi": 59,
          "name": "B3",
          "ticks": 12828,
          "time": 50.109375,
          "velocity": 0.6299212598425197
        },
        {
          "duration": 0.37109375,
          "durationTicks": 95,
          "midi": 62,
          "name": "D4",
          "ticks": 13152,
          "time": 51.375,
          "velocity": 0.6299212598425197
        },
        {
          "duration": 0.37109375,
          "durationTicks": 95,
          "midi": 65,
          "name": "F4",
          "ticks": 13152,
          "time": 51.375,
          "velocity": 0.6299212598425197
        },
        {
          "duration": 0.37109375,
          "durationTicks": 95,
          "midi": 57,
          "name": "A3",
          "ticks": 13152,
          "time": 51.375,
          "velocity": 0.6299212598425197
        },
        {
          "duration": 0.37109375,
          "durationTicks": 95,
          "midi": 58,
          "name": "A#3",
          "ticks": 13152,
          "time": 51.375,
          "velocity": 0.6299212598425197
        },
        {
          "duration": 0.23046875,
          "durationTicks": 59,
          "midi": 62,
          "name": "D4",
          "ticks": 13248,
          "time": 51.75,
          "velocity": 0.6299212598425197
        },
        {
          "duration": 0.23046875,
          "durationTicks": 59,
          "midi": 65,
          "name": "F4",
          "ticks": 13248,
          "time": 51.75,
          "velocity": 0.6299212598425197
        },
        {
          "duration": 0.23046875,
          "durationTicks": 59,
          "midi": 57,
          "name": "A3",
          "ticks": 13248,
          "time": 51.75,
          "velocity": 0.6299212598425197
        },
        {
          "duration": 0.23046875,
          "durationTicks": 59,
          "midi": 58,
          "name": "A#3",
          "ticks": 13248,
          "time": 51.75,
          "velocity": 0.6299212598425197
        },
        {
          "duration": 0.13671875,
          "durationTicks": 35,
          "midi": 58,
          "name": "A#3",
          "ticks": 13308,
          "time": 51.984375,
          "velocity": 0.6299212598425197
        },
        {
          "duration": 0.13671875,
          "durationTicks": 35,
          "midi": 57,
          "name": "A3",
          "ticks": 13308,
          "time": 51.984375,
          "velocity": 0.6299212598425197
        },
        {
          "duration": 0.13671875,
          "durationTicks": 35,
          "midi": 65,
          "name": "F4",
          "ticks": 13308,
          "time": 51.984375,
          "velocity": 0.6299212598425197
        },
        {
          "duration": 0.13671875,
          "durationTicks": 35,
          "midi": 62,
          "name": "D4",
          "ticks": 13308,
          "time": 51.984375,
          "velocity": 0.6299212598425197
        },
        {
          "duration": 1.26171875,
          "durationTicks": 323,
          "midi": 94,
          "name": "A#6",
          "ticks": 13500,
          "time": 52.734375,
          "velocity": 0.6299212598425197
        },
        {
          "duration": 1.21484375,
          "durationTicks": 311,
          "midi": 89,
          "name": "F6",
          "ticks": 13512,
          "time": 52.78125,
          "velocity": 0.6299212598425197
        },
        {
          "duration": 1.16796875,
          "durationTicks": 299,
          "midi": 88,
          "name": "E6",
          "ticks": 13524,
          "time": 52.828125,
          "velocity": 0.6299212598425197
        },
        {
          "duration": 1.12109375,
          "durationTicks": 287,
          "midi": 83,
          "name": "B5",
          "ticks": 13536,
          "time": 52.875,
          "velocity": 0.6299212598425197
        },
        {
          "duration": 1.49609375,
          "durationTicks": 383,
          "midi": 38,
          "name": "D2",
          "ticks": 13824,
          "time": 54,
          "velocity": 0.6299212598425197
        },
        {
          "duration": 1.30859375,
          "durationTicks": 335,
          "midi": 62,
          "name": "D4",
          "ticks": 13872,
          "time": 54.1875,
          "velocity": 0.6299212598425197
        },
        {
          "duration": 1.30859375,
          "durationTicks": 335,
          "midi": 67,
          "name": "G4",
          "ticks": 13872,
          "time": 54.1875,
          "velocity": 0.6299212598425197
        },
        {
          "duration": 1.30859375,
          "durationTicks": 335,
          "midi": 69,
          "name": "A4",
          "ticks": 13872,
          "time": 54.1875,
          "velocity": 0.6299212598425197
        },
        {
          "duration": 1.49609375,
          "durationTicks": 383,
          "midi": 38,
          "name": "D2",
          "ticks": 14208,
          "time": 55.5,
          "velocity": 0.6299212598425197
        },
        {
          "duration": 1.30859375,
          "durationTicks": 335,
          "midi": 61,
          "name": "C#4",
          "ticks": 14256,
          "time": 55.6875,
          "velocity": 0.6299212598425197
        },
        {
          "duration": 1.30859375,
          "durationTicks": 335,
          "midi": 66,
          "name": "F#4",
          "ticks": 14256,
          "time": 55.6875,
          "velocity": 0.6299212598425197
        },
        {
          "duration": 1.30859375,
          "durationTicks": 335,
          "midi": 69,
          "name": "A4",
          "ticks": 14256,
          "time": 55.6875,
          "velocity": 0.6299212598425197
        },
        {
          "duration": 1.30859375,
          "durationTicks": 335,
          "midi": 64,
          "name": "E4",
          "ticks": 14256,
          "time": 55.6875,
          "velocity": 0.6299212598425197
        },
        {
          "duration": 1.49609375,
          "durationTicks": 383,
          "midi": 38,
          "name": "D2",
          "ticks": 14592,
          "time": 57,
          "velocity": 0.6299212598425197
        },
        {
          "duration": 1.30859375,
          "durationTicks": 335,
          "midi": 55,
          "name": "G3",
          "ticks": 14640,
          "time": 57.1875,
          "velocity": 0.6299212598425197
        },
        {
          "duration": 1.30859375,
          "durationTicks": 335,
          "midi": 64,
          "name": "E4",
          "ticks": 14640,
          "time": 57.1875,
          "velocity": 0.6299212598425197
        },
        {
          "duration": 1.30859375,
          "durationTicks": 335,
          "midi": 60,
          "name": "C4",
          "ticks": 14640,
          "time": 57.1875,
          "velocity": 0.6299212598425197
        },
        {
          "duration": 1.30859375,
          "durationTicks": 335,
          "midi": 65,
          "name": "F4",
          "ticks": 14640,
          "time": 57.1875,
          "velocity": 0.6299212598425197
        },
        {
          "duration": 1.49609375,
          "durationTicks": 383,
          "midi": 38,
          "name": "D2",
          "ticks": 14976,
          "time": 58.5,
          "velocity": 0.6299212598425197
        },
        {
          "duration": 1.30859375,
          "durationTicks": 335,
          "midi": 57,
          "name": "A3",
          "ticks": 15024,
          "time": 58.6875,
          "velocity": 0.6299212598425197
        },
        {
          "duration": 1.30859375,
          "durationTicks": 335,
          "midi": 59,
          "name": "B3",
          "ticks": 15024,
          "time": 58.6875,
          "velocity": 0.6299212598425197
        },
        {
          "duration": 1.30859375,
          "durationTicks": 335,
          "midi": 64,
          "name": "E4",
          "ticks": 15024,
          "time": 58.6875,
          "velocity": 0.6299212598425197
        },
        {
          "duration": 1.30859375,
          "durationTicks": 335,
          "midi": 67,
          "name": "G4",
          "ticks": 15024,
          "time": 58.6875,
          "velocity": 0.6299212598425197
        },
        {
          "duration": 1.49609375,
          "durationTicks": 383,
          "midi": 38,
          "name": "D2",
          "ticks": 15360,
          "time": 60,
          "velocity": 0.6299212598425197
        },
        {
          "duration": 1.30859375,
          "durationTicks": 335,
          "midi": 62,
          "name": "D4",
          "ticks": 15408,
          "time": 60.1875,
          "velocity": 0.6299212598425197
        },
        {
          "duration": 1.30859375,
          "durationTicks": 335,
          "midi": 67,
          "name": "G4",
          "ticks": 15408,
          "time": 60.1875,
          "velocity": 0.6299212598425197
        },
        {
          "duration": 1.30859375,
          "durationTicks": 335,
          "midi": 69,
          "name": "A4",
          "ticks": 15408,
          "time": 60.1875,
          "velocity": 0.6299212598425197
        },
        {
          "duration": 1.49609375,
          "durationTicks": 383,
          "midi": 38,
          "name": "D2",
          "ticks": 15744,
          "time": 61.5,
          "velocity": 0.6299212598425197
        },
        {
          "duration": 1.30859375,
          "durationTicks": 335,
          "midi": 61,
          "name": "C#4",
          "ticks": 15792,
          "time": 61.6875,
          "velocity": 0.6299212598425197
        },
        {
          "duration": 1.30859375,
          "durationTicks": 335,
          "midi": 66,
          "name": "F#4",
          "ticks": 15792,
          "time": 61.6875,
          "velocity": 0.6299212598425197
        },
        {
          "duration": 1.30859375,
          "durationTicks": 335,
          "midi": 69,
          "name": "A4",
          "ticks": 15792,
          "time": 61.6875,
          "velocity": 0.6299212598425197
        },
        {
          "duration": 1.30859375,
          "durationTicks": 335,
          "midi": 64,
          "name": "E4",
          "ticks": 15792,
          "time": 61.6875,
          "velocity": 0.6299212598425197
        },
        {
          "duration": 1.49609375,
          "durationTicks": 383,
          "midi": 38,
          "name": "D2",
          "ticks": 16128,
          "time": 63,
          "velocity": 0.6299212598425197
        },
        {
          "duration": 1.30859375,
          "durationTicks": 335,
          "midi": 55,
          "name": "G3",
          "ticks": 16176,
          "time": 63.1875,
          "velocity": 0.6299212598425197
        },
        {
          "duration": 1.30859375,
          "durationTicks": 335,
          "midi": 64,
          "name": "E4",
          "ticks": 16176,
          "time": 63.1875,
          "velocity": 0.6299212598425197
        },
        {
          "duration": 1.30859375,
          "durationTicks": 335,
          "midi": 60,
          "name": "C4",
          "ticks": 16176,
          "time": 63.1875,
          "velocity": 0.6299212598425197
        },
        {
          "duration": 1.30859375,
          "durationTicks": 335,
          "midi": 65,
          "name": "F4",
          "ticks": 16176,
          "time": 63.1875,
          "velocity": 0.6299212598425197
        },
        {
          "duration": 1.49609375,
          "durationTicks": 383,
          "midi": 38,
          "name": "D2",
          "ticks": 16512,
          "time": 64.5,
          "velocity": 0.6299212598425197
        },
        {
          "duration": 1.30859375,
          "durationTicks": 335,
          "midi": 54,
          "name": "F#3",
          "ticks": 16560,
          "time": 64.6875,
          "velocity": 0.6299212598425197
        },
        {
          "duration": 1.30859375,
          "durationTicks": 335,
          "midi": 59,
          "name": "B3",
          "ticks": 16560,
          "time": 64.6875,
          "velocity": 0.6299212598425197
        },
        {
          "duration": 1.30859375,
          "durationTicks": 335,
          "midi": 62,
          "name": "D4",
          "ticks": 16560,
          "time": 64.6875,
          "velocity": 0.6299212598425197
        },
        {
          "duration": 1.30859375,
          "durationTicks": 335,
          "midi": 55,
          "name": "G3",
          "ticks": 16560,
          "time": 64.6875,
          "velocity": 0.6299212598425197
        },
        {
          "duration": 0.8828125,
          "durationTicks": 226,
          "midi": 58,
          "name": "A#3",
          "ticks": 17052,
          "time": 66.609375,
          "velocity": 0.6299212598425197
        },
        {
          "duration": 0.88671875,
          "durationTicks": 227,
          "midi": 65,
          "name": "F4",
          "ticks": 17052,
          "time": 66.609375,
          "velocity": 0.6299212598425197
        },
        {
          "duration": 0.88671875,
          "durationTicks": 227,
          "midi": 62,
          "name": "D4",
          "ticks": 17052,
          "time": 66.609375,
          "velocity": 0.6299212598425197
        },
        {
          "duration": 0.88671875,
          "durationTicks": 227,
          "midi": 57,
          "name": "A3",
          "ticks": 17052,
          "time": 66.609375,
          "velocity": 0.6299212598425197
        },
        {
          "duration": 0.8828125,
          "durationTicks": 226,
          "midi": 60,
          "name": "C4",
          "ticks": 17436,
          "time": 68.109375,
          "velocity": 0.6299212598425197
        },
        {
          "duration": 0.88671875,
          "durationTicks": 227,
          "midi": 67,
          "name": "G4",
          "ticks": 17436,
          "time": 68.109375,
          "velocity": 0.6299212598425197
        },
        {
          "duration": 0.88671875,
          "durationTicks": 227,
          "midi": 64,
          "name": "E4",
          "ticks": 17436,
          "time": 68.109375,
          "velocity": 0.6299212598425197
        },
        {
          "duration": 0.88671875,
          "durationTicks": 227,
          "midi": 62,
          "name": "D4",
          "ticks": 17436,
          "time": 68.109375,
          "velocity": 0.6299212598425197
        },
        {
          "duration": 0.37109375,
          "durationTicks": 95,
          "midi": 62,
          "name": "D4",
          "ticks": 17760,
          "time": 69.375,
          "velocity": 0.6299212598425197
        },
        {
          "duration": 0.37109375,
          "durationTicks": 95,
          "midi": 56,
          "name": "G#3",
          "ticks": 17760,
          "time": 69.375,
          "velocity": 0.6299212598425197
        },
        {
          "duration": 0.37109375,
          "durationTicks": 95,
          "midi": 60,
          "name": "C4",
          "ticks": 17760,
          "time": 69.375,
          "velocity": 0.6299212598425197
        },
        {
          "duration": 0.37109375,
          "durationTicks": 95,
          "midi": 67,
          "name": "G4",
          "ticks": 17760,
          "time": 69.375,
          "velocity": 0.6299212598425197
        },
        {
          "duration": 0.23046875,
          "durationTicks": 59,
          "midi": 62,
          "name": "D4",
          "ticks": 17856,
          "time": 69.75,
          "velocity": 0.6299212598425197
        },
        {
          "duration": 0.23046875,
          "durationTicks": 59,
          "midi": 56,
          "name": "G#3",
          "ticks": 17856,
          "time": 69.75,
          "velocity": 0.6299212598425197
        },
        {
          "duration": 0.23046875,
          "durationTicks": 59,
          "midi": 60,
          "name": "C4",
          "ticks": 17856,
          "time": 69.75,
          "velocity": 0.6299212598425197
        },
        {
          "duration": 0.23046875,
          "durationTicks": 59,
          "midi": 67,
          "name": "G4",
          "ticks": 17856,
          "time": 69.75,
          "velocity": 0.6299212598425197
        },
        {
          "duration": 0.51171875,
          "durationTicks": 131,
          "midi": 62,
          "name": "D4",
          "ticks": 17916,
          "time": 69.984375,
          "velocity": 0.6299212598425197
        },
        {
          "duration": 0.51171875,
          "durationTicks": 131,
          "midi": 56,
          "name": "G#3",
          "ticks": 17916,
          "time": 69.984375,
          "velocity": 0.6299212598425197
        },
        {
          "duration": 0.51171875,
          "durationTicks": 131,
          "midi": 60,
          "name": "C4",
          "ticks": 17916,
          "time": 69.984375,
          "velocity": 0.6299212598425197
        },
        {
          "duration": 0.51171875,
          "durationTicks": 131,
          "midi": 67,
          "name": "G4",
          "ticks": 17916,
          "time": 69.984375,
          "velocity": 0.6299212598425197
        },
        {
          "duration": 0.37109375,
          "durationTicks": 95,
          "midi": 61,
          "name": "C#4",
          "ticks": 18048,
          "time": 70.5,
          "velocity": 0.6299212598425197
        },
        {
          "duration": 0.37109375,
          "durationTicks": 95,
          "midi": 55,
          "name": "G3",
          "ticks": 18048,
          "time": 70.5,
          "velocity": 0.6299212598425197
        },
        {
          "duration": 0.37109375,
          "durationTicks": 95,
          "midi": 65,
          "name": "F4",
          "ticks": 18048,
          "time": 70.5,
          "velocity": 0.6299212598425197
        },
        {
          "duration": 0.37109375,
          "durationTicks": 95,
          "midi": 70,
          "name": "A#4",
          "ticks": 18048,
          "time": 70.5,
          "velocity": 0.6299212598425197
        },
        {
          "duration": 0.37109375,
          "durationTicks": 95,
          "midi": 61,
          "name": "C#4",
          "ticks": 18144,
          "time": 70.875,
          "velocity": 0.6299212598425197
        },
        {
          "duration": 0.37109375,
          "durationTicks": 95,
          "midi": 55,
          "name": "G3",
          "ticks": 18144,
          "time": 70.875,
          "velocity": 0.6299212598425197
        },
        {
          "duration": 0.37109375,
          "durationTicks": 95,
          "midi": 65,
          "name": "F4",
          "ticks": 18144,
          "time": 70.875,
          "velocity": 0.6299212598425197
        },
        {
          "duration": 0.37109375,
          "durationTicks": 95,
          "midi": 70,
          "name": "A#4",
          "ticks": 18144,
          "time": 70.875,
          "velocity": 0.6299212598425197
        },
        {
          "duration": 0.23046875,
          "durationTicks": 59,
          "midi": 61,
          "name": "C#4",
          "ticks": 18240,
          "time": 71.25,
          "velocity": 0.6299212598425197
        },
        {
          "duration": 0.23046875,
          "durationTicks": 59,
          "midi": 55,
          "name": "G3",
          "ticks": 18240,
          "time": 71.25,
          "velocity": 0.6299212598425197
        },
        {
          "duration": 0.23046875,
          "durationTicks": 59,
          "midi": 65,
          "name": "F4",
          "ticks": 18240,
          "time": 71.25,
          "velocity": 0.6299212598425197
        },
        {
          "duration": 0.23046875,
          "durationTicks": 59,
          "midi": 70,
          "name": "A#4",
          "ticks": 18240,
          "time": 71.25,
          "velocity": 0.6299212598425197
        },
        {
          "duration": 0.32421875,
          "durationTicks": 83,
          "midi": 61,
          "name": "C#4",
          "ticks": 18300,
          "time": 71.484375,
          "velocity": 0.6299212598425197
        },
        {
          "duration": 0.32421875,
          "durationTicks": 83,
          "midi": 55,
          "name": "G3",
          "ticks": 18300,
          "time": 71.484375,
          "velocity": 0.6299212598425197
        },
        {
          "duration": 0.32421875,
          "durationTicks": 83,
          "midi": 65,
          "name": "F4",
          "ticks": 18300,
          "time": 71.484375,
          "velocity": 0.6299212598425197
        },
        {
          "duration": 0.32421875,
          "durationTicks": 83,
          "midi": 70,
          "name": "A#4",
          "ticks": 18300,
          "time": 71.484375,
          "velocity": 0.6299212598425197
        },
        {
          "duration": 0.74609375,
          "durationTicks": 191,
          "midi": 60,
          "name": "C4",
          "ticks": 18384,
          "time": 71.8125,
          "velocity": 0.6299212598425197
        },
        {
          "duration": 0.74609375,
          "durationTicks": 191,
          "midi": 65,
          "name": "F4",
          "ticks": 18384,
          "time": 71.8125,
          "velocity": 0.6299212598425197
        },
        {
          "duration": 0.74609375,
          "durationTicks": 191,
          "midi": 62,
          "name": "D4",
          "ticks": 18384,
          "time": 71.8125,
          "velocity": 0.6299212598425197
        },
        {
          "duration": 0.74609375,
          "durationTicks": 191,
          "midi": 69,
          "name": "A4",
          "ticks": 18384,
          "time": 71.8125,
          "velocity": 0.6299212598425197
        },
        {
          "duration": 0.93359375,
          "durationTicks": 239,
          "midi": 60,
          "name": "C4",
          "ticks": 18576,
          "time": 72.5625,
          "velocity": 0.6299212598425197
        },
        {
          "duration": 0.93359375,
          "durationTicks": 239,
          "midi": 65,
          "name": "F4",
          "ticks": 18576,
          "time": 72.5625,
          "velocity": 0.6299212598425197
        },
        {
          "duration": 0.93359375,
          "durationTicks": 239,
          "midi": 62,
          "name": "D4",
          "ticks": 18576,
          "time": 72.5625,
          "velocity": 0.6299212598425197
        },
        {
          "duration": 0.93359375,
          "durationTicks": 239,
          "midi": 57,
          "name": "A3",
          "ticks": 18576,
          "time": 72.5625,
          "velocity": 0.6299212598425197
        },
        {
          "duration": 0.88671875,
          "durationTicks": 227,
          "midi": 67,
          "name": "G4",
          "ticks": 18972,
          "time": 74.109375,
          "velocity": 0.6299212598425197
        },
        {
          "duration": 0.88671875,
          "durationTicks": 227,
          "midi": 64,
          "name": "E4",
          "ticks": 18972,
          "time": 74.109375,
          "velocity": 0.6299212598425197
        },
        {
          "duration": 0.88671875,
          "durationTicks": 227,
          "midi": 60,
          "name": "C4",
          "ticks": 18972,
          "time": 74.109375,
          "velocity": 0.6299212598425197
        },
        {
          "duration": 0.88671875,
          "durationTicks": 227,
          "midi": 59,
          "name": "B3",
          "ticks": 18972,
          "time": 74.109375,
          "velocity": 0.6299212598425197
        },
        {
          "duration": 0.37109375,
          "durationTicks": 95,
          "midi": 62,
          "name": "D4",
          "ticks": 19296,
          "time": 75.375,
          "velocity": 0.6299212598425197
        },
        {
          "duration": 0.37109375,
          "durationTicks": 95,
          "midi": 65,
          "name": "F4",
          "ticks": 19296,
          "time": 75.375,
          "velocity": 0.6299212598425197
        },
        {
          "duration": 0.37109375,
          "durationTicks": 95,
          "midi": 57,
          "name": "A3",
          "ticks": 19296,
          "time": 75.375,
          "velocity": 0.6299212598425197
        },
        {
          "duration": 0.37109375,
          "durationTicks": 95,
          "midi": 58,
          "name": "A#3",
          "ticks": 19296,
          "time": 75.375,
          "velocity": 0.6299212598425197
        },
        {
          "duration": 0.23046875,
          "durationTicks": 59,
          "midi": 62,
          "name": "D4",
          "ticks": 19392,
          "time": 75.75,
          "velocity": 0.6299212598425197
        },
        {
          "duration": 0.23046875,
          "durationTicks": 59,
          "midi": 65,
          "name": "F4",
          "ticks": 19392,
          "time": 75.75,
          "velocity": 0.6299212598425197
        },
        {
          "duration": 0.23046875,
          "durationTicks": 59,
          "midi": 57,
          "name": "A3",
          "ticks": 19392,
          "time": 75.75,
          "velocity": 0.6299212598425197
        },
        {
          "duration": 0.23046875,
          "durationTicks": 59,
          "midi": 58,
          "name": "A#3",
          "ticks": 19392,
          "time": 75.75,
          "velocity": 0.6299212598425197
        },
        {
          "duration": 0.13671875,
          "durationTicks": 35,
          "midi": 58,
          "name": "A#3",
          "ticks": 19452,
          "time": 75.984375,
          "velocity": 0.6299212598425197
        },
        {
          "duration": 0.13671875,
          "durationTicks": 35,
          "midi": 57,
          "name": "A3",
          "ticks": 19452,
          "time": 75.984375,
          "velocity": 0.6299212598425197
        },
        {
          "duration": 0.13671875,
          "durationTicks": 35,
          "midi": 65,
          "name": "F4",
          "ticks": 19452,
          "time": 75.984375,
          "velocity": 0.6299212598425197
        },
        {
          "duration": 0.13671875,
          "durationTicks": 35,
          "midi": 62,
          "name": "D4",
          "ticks": 19452,
          "time": 75.984375,
          "velocity": 0.6299212598425197
        },
        {
          "duration": 0.04296875,
          "durationTicks": 11,
          "midi": 68,
          "name": "G#4",
          "ticks": 19644,
          "time": 76.734375,
          "velocity": 0.6299212598425197
        },
        {
          "duration": 0.04296875,
          "durationTicks": 11,
          "midi": 70,
          "name": "A#4",
          "ticks": 19656,
          "time": 76.78125,
          "velocity": 0.6299212598425197
        },
        {
          "duration": 0.04296875,
          "durationTicks": 11,
          "midi": 72,
          "name": "C5",
          "ticks": 19668,
          "time": 76.828125,
          "velocity": 0.6299212598425197
        },
        {
          "duration": 0.08984375,
          "durationTicks": 23,
          "midi": 73,
          "name": "C#5",
          "ticks": 19680,
          "time": 76.875,
          "velocity": 0.6299212598425197
        },
        {
          "duration": 0.08984375,
          "durationTicks": 23,
          "midi": 73,
          "name": "C#5",
          "ticks": 19728,
          "time": 77.0625,
          "velocity": 0.6299212598425197
        },
        {
          "duration": 0.08984375,
          "durationTicks": 23,
          "midi": 75,
          "name": "D#5",
          "ticks": 19776,
          "time": 77.25,
          "velocity": 0.6299212598425197
        },
        {
          "duration": 0.08984375,
          "durationTicks": 23,
          "midi": 77,
          "name": "F5",
          "ticks": 19824,
          "time": 77.4375,
          "velocity": 0.6299212598425197
        },
        {
          "duration": 0.08984375,
          "durationTicks": 23,
          "midi": 73,
          "name": "C#5",
          "ticks": 19872,
          "time": 77.625,
          "velocity": 0.6299212598425197
        },
        {
          "duration": 0.08984375,
          "durationTicks": 23,
          "midi": 77,
          "name": "F5",
          "ticks": 19920,
          "time": 77.8125,
          "velocity": 0.6299212598425197
        },
        {
          "duration": 2.24609375,
          "durationTicks": 575,
          "midi": 69,
          "name": "A4",
          "ticks": 19968,
          "time": 78,
          "velocity": 0.6299212598425197
        },
        {
          "duration": 1.49609375,
          "durationTicks": 383,
          "midi": 67,
          "name": "G4",
          "ticks": 19968,
          "time": 78,
          "velocity": 0.6299212598425197
        },
        {
          "duration": 1.49609375,
          "durationTicks": 383,
          "midi": 62,
          "name": "D4",
          "ticks": 19968,
          "time": 78,
          "velocity": 0.6299212598425197
        },
        {
          "duration": 0.5,
          "durationTicks": 128,
          "midi": 57,
          "name": "A3",
          "ticks": 19968,
          "time": 78,
          "velocity": 0.5039370078740157
        },
        {
          "duration": 0.74609375,
          "durationTicks": 191,
          "midi": 66,
          "name": "F#4",
          "ticks": 20352,
          "time": 79.5,
          "velocity": 0.6299212598425197
        },
        {
          "duration": 0.74609375,
          "durationTicks": 191,
          "midi": 61,
          "name": "C#4",
          "ticks": 20352,
          "time": 79.5,
          "velocity": 0.6299212598425197
        },
        {
          "duration": 0.5,
          "durationTicks": 128,
          "midi": 59,
          "name": "B3",
          "ticks": 20352,
          "time": 79.5,
          "velocity": 0.5039370078740157
        },
        {
          "duration": 1.87109375,
          "durationTicks": 479,
          "midi": 64,
          "name": "E4",
          "ticks": 20544,
          "time": 80.25,
          "velocity": 0.6299212598425197
        },
        {
          "duration": 0.74609375,
          "durationTicks": 191,
          "midi": 54,
          "name": "F#3",
          "ticks": 20544,
          "time": 80.25,
          "velocity": 0.6299212598425197
        },
        {
          "duration": 1.87109375,
          "durationTicks": 479,
          "midi": 57,
          "name": "A3",
          "ticks": 20544,
          "time": 80.25,
          "velocity": 0.6299212598425197
        },
        {
          "duration": 0.74609375,
          "durationTicks": 191,
          "midi": 61,
          "name": "C#4",
          "ticks": 20544,
          "time": 80.25,
          "velocity": 0.6299212598425197
        },
        {
          "duration": 1.12109375,
          "durationTicks": 287,
          "midi": 60,
          "name": "C4",
          "ticks": 20736,
          "time": 81,
          "velocity": 0.6299212598425197
        },
        {
          "duration": 1.12109375,
          "durationTicks": 287,
          "midi": 53,
          "name": "F3",
          "ticks": 20736,
          "time": 81,
          "velocity": 0.6299212598425197
        },
        {
          "duration": 0.37109375,
          "durationTicks": 95,
          "midi": 65,
          "name": "F4",
          "ticks": 21024,
          "time": 82.125,
          "velocity": 0.6299212598425197
        },
        {
          "duration": 0.37109375,
          "durationTicks": 95,
          "midi": 62,
          "name": "D4",
          "ticks": 21024,
          "time": 82.125,
          "velocity": 0.6299212598425197
        },
        {
          "duration": 0.37109375,
          "durationTicks": 95,
          "midi": 60,
          "name": "C4",
          "ticks": 21024,
          "time": 82.125,
          "velocity": 0.6299212598425197
        },
        {
          "duration": 0.37109375,
          "durationTicks": 95,
          "midi": 55,
          "name": "G3",
          "ticks": 21024,
          "time": 82.125,
          "velocity": 0.6299212598425197
        },
        {
          "duration": 1.12109375,
          "durationTicks": 287,
          "midi": 67,
          "name": "G4",
          "ticks": 21120,
          "time": 82.5,
          "velocity": 0.6299212598425197
        },
        {
          "duration": 1.12109375,
          "durationTicks": 287,
          "midi": 57,
          "name": "A3",
          "ticks": 21120,
          "time": 82.5,
          "velocity": 0.6299212598425197
        },
        {
          "duration": 1.12109375,
          "durationTicks": 287,
          "midi": 62,
          "name": "D4",
          "ticks": 21120,
          "time": 82.5,
          "velocity": 0.6299212598425197
        },
        {
          "duration": 0.18359375,
          "durationTicks": 47,
          "midi": 65,
          "name": "F4",
          "ticks": 21408,
          "time": 83.625,
          "velocity": 0.6299212598425197
        },
        {
          "duration": 0.18359375,
          "durationTicks": 47,
          "midi": 60,
          "name": "C4",
          "ticks": 21408,
          "time": 83.625,
          "velocity": 0.6299212598425197
        },
        {
          "duration": 0.18359375,
          "durationTicks": 47,
          "midi": 55,
          "name": "G3",
          "ticks": 21408,
          "time": 83.625,
          "velocity": 0.6299212598425197
        },
        {
          "duration": 0.18359375,
          "durationTicks": 47,
          "midi": 67,
          "name": "G4",
          "ticks": 21456,
          "time": 83.8125,
          "velocity": 0.6299212598425197
        },
        {
          "duration": 0.18359375,
          "durationTicks": 47,
          "midi": 62,
          "name": "D4",
          "ticks": 21456,
          "time": 83.8125,
          "velocity": 0.6299212598425197
        },
        {
          "duration": 0.18359375,
          "durationTicks": 47,
          "midi": 57,
          "name": "A3",
          "ticks": 21456,
          "time": 83.8125,
          "velocity": 0.6299212598425197
        },
        {
          "duration": 2.24609375,
          "durationTicks": 575,
          "midi": 69,
          "name": "A4",
          "ticks": 21504,
          "time": 84,
          "velocity": 0.6299212598425197
        },
        {
          "duration": 1.49609375,
          "durationTicks": 383,
          "midi": 67,
          "name": "G4",
          "ticks": 21504,
          "time": 84,
          "velocity": 0.6299212598425197
        },
        {
          "duration": 1.49609375,
          "durationTicks": 383,
          "midi": 62,
          "name": "D4",
          "ticks": 21504,
          "time": 84,
          "velocity": 0.6299212598425197
        },
        {
          "duration": 0.74609375,
          "durationTicks": 191,
          "midi": 66,
          "name": "F#4",
          "ticks": 21888,
          "time": 85.5,
          "velocity": 0.6299212598425197
        },
        {
          "duration": 0.74609375,
          "durationTicks": 191,
          "midi": 61,
          "name": "C#4",
          "ticks": 21888,
          "time": 85.5,
          "velocity": 0.6299212598425197
        },
        {
          "duration": 0.5,
          "durationTicks": 128,
          "midi": 59,
          "name": "B3",
          "ticks": 21888,
          "time": 85.5,
          "velocity": 0.5039370078740157
        },
        {
          "duration": 1.87109375,
          "durationTicks": 479,
          "midi": 64,
          "name": "E4",
          "ticks": 22080,
          "time": 86.25,
          "velocity": 0.6299212598425197
        },
        {
          "duration": 0.74609375,
          "durationTicks": 191,
          "midi": 54,
          "name": "F#3",
          "ticks": 22080,
          "time": 86.25,
          "velocity": 0.6299212598425197
        },
        {
          "duration": 1.87109375,
          "durationTicks": 479,
          "midi": 57,
          "name": "A3",
          "ticks": 22080,
          "time": 86.25,
          "velocity": 0.6299212598425197
        },
        {
          "duration": 0.74609375,
          "durationTicks": 191,
          "midi": 61,
          "name": "C#4",
          "ticks": 22080,
          "time": 86.25,
          "velocity": 0.6299212598425197
        },
        {
          "duration": 1.12109375,
          "durationTicks": 287,
          "midi": 60,
          "name": "C4",
          "ticks": 22272,
          "time": 87,
          "velocity": 0.6299212598425197
        },
        {
          "duration": 1.12109375,
          "durationTicks": 287,
          "midi": 53,
          "name": "F3",
          "ticks": 22272,
          "time": 87,
          "velocity": 0.6299212598425197
        },
        {
          "duration": 0.37109375,
          "durationTicks": 95,
          "midi": 65,
          "name": "F4",
          "ticks": 22560,
          "time": 88.125,
          "velocity": 0.6299212598425197
        },
        {
          "duration": 0.37109375,
          "durationTicks": 95,
          "midi": 62,
          "name": "D4",
          "ticks": 22560,
          "time": 88.125,
          "velocity": 0.6299212598425197
        },
        {
          "duration": 0.37109375,
          "durationTicks": 95,
          "midi": 60,
          "name": "C4",
          "ticks": 22560,
          "time": 88.125,
          "velocity": 0.6299212598425197
        },
        {
          "duration": 0.37109375,
          "durationTicks": 95,
          "midi": 55,
          "name": "G3",
          "ticks": 22560,
          "time": 88.125,
          "velocity": 0.6299212598425197
        },
        {
          "duration": 1.12109375,
          "durationTicks": 287,
          "midi": 67,
          "name": "G4",
          "ticks": 22656,
          "time": 88.5,
          "velocity": 0.6299212598425197
        },
        {
          "duration": 1.12109375,
          "durationTicks": 287,
          "midi": 57,
          "name": "A3",
          "ticks": 22656,
          "time": 88.5,
          "velocity": 0.6299212598425197
        },
        {
          "duration": 1.12109375,
          "durationTicks": 287,
          "midi": 62,
          "name": "D4",
          "ticks": 22656,
          "time": 88.5,
          "velocity": 0.6299212598425197
        },
        {
          "duration": 0.18359375,
          "durationTicks": 47,
          "midi": 65,
          "name": "F4",
          "ticks": 22944,
          "time": 89.625,
          "velocity": 0.6299212598425197
        },
        {
          "duration": 0.18359375,
          "durationTicks": 47,
          "midi": 60,
          "name": "C4",
          "ticks": 22944,
          "time": 89.625,
          "velocity": 0.6299212598425197
        },
        {
          "duration": 0.18359375,
          "durationTicks": 47,
          "midi": 55,
          "name": "G3",
          "ticks": 22944,
          "time": 89.625,
          "velocity": 0.6299212598425197
        },
        {
          "duration": 0.18359375,
          "durationTicks": 47,
          "midi": 67,
          "name": "G4",
          "ticks": 22992,
          "time": 89.8125,
          "velocity": 0.6299212598425197
        },
        {
          "duration": 0.18359375,
          "durationTicks": 47,
          "midi": 62,
          "name": "D4",
          "ticks": 22992,
          "time": 89.8125,
          "velocity": 0.6299212598425197
        },
        {
          "duration": 0.18359375,
          "durationTicks": 47,
          "midi": 57,
          "name": "A3",
          "ticks": 22992,
          "time": 89.8125,
          "velocity": 0.6299212598425197
        },
        {
          "duration": 0.0703125,
          "durationTicks": 18,
          "midi": 74,
          "name": "D5",
          "ticks": 23040,
          "time": 90,
          "velocity": 0.6299212598425197
        },
        {
          "duration": 0.0703125,
          "durationTicks": 18,
          "midi": 81,
          "name": "A5",
          "ticks": 23059,
          "time": 90.07421875,
          "velocity": 0.6299212598425197
        },
        {
          "duration": 0.0703125,
          "durationTicks": 18,
          "midi": 74,
          "name": "D5",
          "ticks": 23078,
          "time": 90.1484375,
          "velocity": 0.6299212598425197
        },
        {
          "duration": 0.0703125,
          "durationTicks": 18,
          "midi": 81,
          "name": "A5",
          "ticks": 23097,
          "time": 90.22265625,
          "velocity": 0.6299212598425197
        },
        {
          "duration": 0.07421875,
          "durationTicks": 19,
          "midi": 74,
          "name": "D5",
          "ticks": 23116,
          "time": 90.296875,
          "velocity": 0.6299212598425197
        },
        {
          "duration": 0.0703125,
          "durationTicks": 18,
          "midi": 81,
          "name": "A5",
          "ticks": 23136,
          "time": 90.375,
          "velocity": 0.6299212598425197
        },
        {
          "duration": 0.0703125,
          "durationTicks": 18,
          "midi": 74,
          "name": "D5",
          "ticks": 23155,
          "time": 90.44921875,
          "velocity": 0.6299212598425197
        },
        {
          "duration": 0.0703125,
          "durationTicks": 18,
          "midi": 81,
          "name": "A5",
          "ticks": 23174,
          "time": 90.5234375,
          "velocity": 0.6299212598425197
        },
        {
          "duration": 0.0703125,
          "durationTicks": 18,
          "midi": 74,
          "name": "D5",
          "ticks": 23193,
          "time": 90.59765625,
          "velocity": 0.6299212598425197
        },
        {
          "duration": 0.07421875,
          "durationTicks": 19,
          "midi": 81,
          "name": "A5",
          "ticks": 23212,
          "time": 90.671875,
          "velocity": 0.6299212598425197
        },
        {
          "duration": 0.0703125,
          "durationTicks": 18,
          "midi": 74,
          "name": "D5",
          "ticks": 23232,
          "time": 90.75,
          "velocity": 0.6299212598425197
        },
        {
          "duration": 0.0703125,
          "durationTicks": 18,
          "midi": 81,
          "name": "A5",
          "ticks": 23251,
          "time": 90.82421875,
          "velocity": 0.6299212598425197
        },
        {
          "duration": 0.0703125,
          "durationTicks": 18,
          "midi": 74,
          "name": "D5",
          "ticks": 23270,
          "time": 90.8984375,
          "velocity": 0.6299212598425197
        },
        {
          "duration": 0.0703125,
          "durationTicks": 18,
          "midi": 81,
          "name": "A5",
          "ticks": 23289,
          "time": 90.97265625,
          "velocity": 0.6299212598425197
        },
        {
          "duration": 0.07421875,
          "durationTicks": 19,
          "midi": 74,
          "name": "D5",
          "ticks": 23308,
          "time": 91.046875,
          "velocity": 0.6299212598425197
        },
        {
          "duration": 0.0703125,
          "durationTicks": 18,
          "midi": 81,
          "name": "A5",
          "ticks": 23328,
          "time": 91.125,
          "velocity": 0.6299212598425197
        },
        {
          "duration": 0.0703125,
          "durationTicks": 18,
          "midi": 74,
          "name": "D5",
          "ticks": 23347,
          "time": 91.19921875,
          "velocity": 0.6299212598425197
        },
        {
          "duration": 0.0703125,
          "durationTicks": 18,
          "midi": 81,
          "name": "A5",
          "ticks": 23366,
          "time": 91.2734375,
          "velocity": 0.6299212598425197
        },
        {
          "duration": 0.0703125,
          "durationTicks": 18,
          "midi": 74,
          "name": "D5",
          "ticks": 23385,
          "time": 91.34765625,
          "velocity": 0.6299212598425197
        },
        {
          "duration": 0.07421875,
          "durationTicks": 19,
          "midi": 81,
          "name": "A5",
          "ticks": 23404,
          "time": 91.421875,
          "velocity": 0.6299212598425197
        },
        {
          "duration": 0.0703125,
          "durationTicks": 18,
          "midi": 74,
          "name": "D5",
          "ticks": 23424,
          "time": 91.5,
          "velocity": 0.6299212598425197
        },
        {
          "duration": 0.0703125,
          "durationTicks": 18,
          "midi": 81,
          "name": "A5",
          "ticks": 23443,
          "time": 91.57421875,
          "velocity": 0.6299212598425197
        },
        {
          "duration": 0.0703125,
          "durationTicks": 18,
          "midi": 74,
          "name": "D5",
          "ticks": 23462,
          "time": 91.6484375,
          "velocity": 0.6299212598425197
        },
        {
          "duration": 0.0703125,
          "durationTicks": 18,
          "midi": 81,
          "name": "A5",
          "ticks": 23481,
          "time": 91.72265625,
          "velocity": 0.6299212598425197
        },
        {
          "duration": 0.07421875,
          "durationTicks": 19,
          "midi": 74,
          "name": "D5",
          "ticks": 23500,
          "time": 91.796875,
          "velocity": 0.6299212598425197
        },
        {
          "duration": 0.0703125,
          "durationTicks": 18,
          "midi": 81,
          "name": "A5",
          "ticks": 23520,
          "time": 91.875,
          "velocity": 0.6299212598425197
        },
        {
          "duration": 0.0703125,
          "durationTicks": 18,
          "midi": 74,
          "name": "D5",
          "ticks": 23539,
          "time": 91.94921875,
          "velocity": 0.6299212598425197
        },
        {
          "duration": 0.0703125,
          "durationTicks": 18,
          "midi": 81,
          "name": "A5",
          "ticks": 23558,
          "time": 92.0234375,
          "velocity": 0.6299212598425197
        },
        {
          "duration": 0.0703125,
          "durationTicks": 18,
          "midi": 74,
          "name": "D5",
          "ticks": 23577,
          "time": 92.09765625,
          "velocity": 0.6299212598425197
        },
        {
          "duration": 0.07421875,
          "durationTicks": 19,
          "midi": 81,
          "name": "A5",
          "ticks": 23596,
          "time": 92.171875,
          "velocity": 0.6299212598425197
        },
        {
          "duration": 0.0703125,
          "durationTicks": 18,
          "midi": 74,
          "name": "D5",
          "ticks": 23616,
          "time": 92.25,
          "velocity": 0.6299212598425197
        },
        {
          "duration": 0.0703125,
          "durationTicks": 18,
          "midi": 81,
          "name": "A5",
          "ticks": 23635,
          "time": 92.32421875,
          "velocity": 0.6299212598425197
        },
        {
          "duration": 0.0703125,
          "durationTicks": 18,
          "midi": 74,
          "name": "D5",
          "ticks": 23654,
          "time": 92.3984375,
          "velocity": 0.6299212598425197
        },
        {
          "duration": 0.0703125,
          "durationTicks": 18,
          "midi": 81,
          "name": "A5",
          "ticks": 23673,
          "time": 92.47265625,
          "velocity": 0.6299212598425197
        },
        {
          "duration": 0.07421875,
          "durationTicks": 19,
          "midi": 74,
          "name": "D5",
          "ticks": 23692,
          "time": 92.546875,
          "velocity": 0.6299212598425197
        },
        {
          "duration": 0.0703125,
          "durationTicks": 18,
          "midi": 81,
          "name": "A5",
          "ticks": 23712,
          "time": 92.625,
          "velocity": 0.6299212598425197
        },
        {
          "duration": 0.0703125,
          "durationTicks": 18,
          "midi": 74,
          "name": "D5",
          "ticks": 23731,
          "time": 92.69921875,
          "velocity": 0.6299212598425197
        },
        {
          "duration": 0.0703125,
          "durationTicks": 18,
          "midi": 81,
          "name": "A5",
          "ticks": 23750,
          "time": 92.7734375,
          "velocity": 0.6299212598425197
        },
        {
          "duration": 0.0703125,
          "durationTicks": 18,
          "midi": 74,
          "name": "D5",
          "ticks": 23769,
          "time": 92.84765625,
          "velocity": 0.6299212598425197
        },
        {
          "duration": 0.07421875,
          "durationTicks": 19,
          "midi": 81,
          "name": "A5",
          "ticks": 23788,
          "time": 92.921875,
          "velocity": 0.6299212598425197
        },
        {
          "duration": 0.0703125,
          "durationTicks": 18,
          "midi": 74,
          "name": "D5",
          "ticks": 23808,
          "time": 93,
          "velocity": 0.6299212598425197
        },
        {
          "duration": 0.0703125,
          "durationTicks": 18,
          "midi": 81,
          "name": "A5",
          "ticks": 23827,
          "time": 93.07421875,
          "velocity": 0.6299212598425197
        },
        {
          "duration": 0.0703125,
          "durationTicks": 18,
          "midi": 74,
          "name": "D5",
          "ticks": 23846,
          "time": 93.1484375,
          "velocity": 0.6299212598425197
        },
        {
          "duration": 0.0703125,
          "durationTicks": 18,
          "midi": 81,
          "name": "A5",
          "ticks": 23865,
          "time": 93.22265625,
          "velocity": 0.6299212598425197
        },
        {
          "duration": 0.07421875,
          "durationTicks": 19,
          "midi": 74,
          "name": "D5",
          "ticks": 23884,
          "time": 93.296875,
          "velocity": 0.6299212598425197
        },
        {
          "duration": 0.0703125,
          "durationTicks": 18,
          "midi": 81,
          "name": "A5",
          "ticks": 23904,
          "time": 93.375,
          "velocity": 0.6299212598425197
        },
        {
          "duration": 0.0703125,
          "durationTicks": 18,
          "midi": 74,
          "name": "D5",
          "ticks": 23923,
          "time": 93.44921875,
          "velocity": 0.6299212598425197
        },
        {
          "duration": 0.0703125,
          "durationTicks": 18,
          "midi": 81,
          "name": "A5",
          "ticks": 23942,
          "time": 93.5234375,
          "velocity": 0.6299212598425197
        },
        {
          "duration": 0.0703125,
          "durationTicks": 18,
          "midi": 74,
          "name": "D5",
          "ticks": 23961,
          "time": 93.59765625,
          "velocity": 0.6299212598425197
        },
        {
          "duration": 0.07421875,
          "durationTicks": 19,
          "midi": 81,
          "name": "A5",
          "ticks": 23980,
          "time": 93.671875,
          "velocity": 0.6299212598425197
        },
        {
          "duration": 0.0703125,
          "durationTicks": 18,
          "midi": 74,
          "name": "D5",
          "ticks": 24000,
          "time": 93.75,
          "velocity": 0.6299212598425197
        },
        {
          "duration": 0.0703125,
          "durationTicks": 18,
          "midi": 81,
          "name": "A5",
          "ticks": 24019,
          "time": 93.82421875,
          "velocity": 0.6299212598425197
        },
        {
          "duration": 0.0703125,
          "durationTicks": 18,
          "midi": 74,
          "name": "D5",
          "ticks": 24038,
          "time": 93.8984375,
          "velocity": 0.6299212598425197
        },
        {
          "duration": 0.0703125,
          "durationTicks": 18,
          "midi": 81,
          "name": "A5",
          "ticks": 24057,
          "time": 93.97265625,
          "velocity": 0.6299212598425197
        },
        {
          "duration": 0.07421875,
          "durationTicks": 19,
          "midi": 74,
          "name": "D5",
          "ticks": 24076,
          "time": 94.046875,
          "velocity": 0.6299212598425197
        },
        {
          "duration": 0.0703125,
          "durationTicks": 18,
          "midi": 81,
          "name": "A5",
          "ticks": 24096,
          "time": 94.125,
          "velocity": 0.6299212598425197
        },
        {
          "duration": 0.0703125,
          "durationTicks": 18,
          "midi": 74,
          "name": "D5",
          "ticks": 24115,
          "time": 94.19921875,
          "velocity": 0.6299212598425197
        },
        {
          "duration": 0.0703125,
          "durationTicks": 18,
          "midi": 81,
          "name": "A5",
          "ticks": 24134,
          "time": 94.2734375,
          "velocity": 0.6299212598425197
        },
        {
          "duration": 0.0703125,
          "durationTicks": 18,
          "midi": 74,
          "name": "D5",
          "ticks": 24153,
          "time": 94.34765625,
          "velocity": 0.6299212598425197
        },
        {
          "duration": 0.07421875,
          "durationTicks": 19,
          "midi": 81,
          "name": "A5",
          "ticks": 24172,
          "time": 94.421875,
          "velocity": 0.6299212598425197
        },
        {
          "duration": 0.0703125,
          "durationTicks": 18,
          "midi": 74,
          "name": "D5",
          "ticks": 24192,
          "time": 94.5,
          "velocity": 0.6299212598425197
        },
        {
          "duration": 0.0703125,
          "durationTicks": 18,
          "midi": 81,
          "name": "A5",
          "ticks": 24211,
          "time": 94.57421875,
          "velocity": 0.6299212598425197
        },
        {
          "duration": 0.0703125,
          "durationTicks": 18,
          "midi": 74,
          "name": "D5",
          "ticks": 24230,
          "time": 94.6484375,
          "velocity": 0.6299212598425197
        },
        {
          "duration": 0.0703125,
          "durationTicks": 18,
          "midi": 81,
          "name": "A5",
          "ticks": 24249,
          "time": 94.72265625,
          "velocity": 0.6299212598425197
        },
        {
          "duration": 0.07421875,
          "durationTicks": 19,
          "midi": 74,
          "name": "D5",
          "ticks": 24268,
          "time": 94.796875,
          "velocity": 0.6299212598425197
        },
        {
          "duration": 0.0703125,
          "durationTicks": 18,
          "midi": 81,
          "name": "A5",
          "ticks": 24288,
          "time": 94.875,
          "velocity": 0.6299212598425197
        },
        {
          "duration": 0.0703125,
          "durationTicks": 18,
          "midi": 74,
          "name": "D5",
          "ticks": 24307,
          "time": 94.94921875,
          "velocity": 0.6299212598425197
        },
        {
          "duration": 0.0703125,
          "durationTicks": 18,
          "midi": 81,
          "name": "A5",
          "ticks": 24326,
          "time": 95.0234375,
          "velocity": 0.6299212598425197
        },
        {
          "duration": 0.0703125,
          "durationTicks": 18,
          "midi": 74,
          "name": "D5",
          "ticks": 24345,
          "time": 95.09765625,
          "velocity": 0.6299212598425197
        },
        {
          "duration": 0.07421875,
          "durationTicks": 19,
          "midi": 81,
          "name": "A5",
          "ticks": 24364,
          "time": 95.171875,
          "velocity": 0.6299212598425197
        },
        {
          "duration": 0.0703125,
          "durationTicks": 18,
          "midi": 74,
          "name": "D5",
          "ticks": 24384,
          "time": 95.25,
          "velocity": 0.6299212598425197
        },
        {
          "duration": 0.0703125,
          "durationTicks": 18,
          "midi": 81,
          "name": "A5",
          "ticks": 24403,
          "time": 95.32421875,
          "velocity": 0.6299212598425197
        },
        {
          "duration": 0.0703125,
          "durationTicks": 18,
          "midi": 74,
          "name": "D5",
          "ticks": 24422,
          "time": 95.3984375,
          "velocity": 0.6299212598425197
        },
        {
          "duration": 0.0703125,
          "durationTicks": 18,
          "midi": 81,
          "name": "A5",
          "ticks": 24441,
          "time": 95.47265625,
          "velocity": 0.6299212598425197
        },
        {
          "duration": 0.07421875,
          "durationTicks": 19,
          "midi": 74,
          "name": "D5",
          "ticks": 24460,
          "time": 95.546875,
          "velocity": 0.6299212598425197
        },
        {
          "duration": 0.0703125,
          "durationTicks": 18,
          "midi": 81,
          "name": "A5",
          "ticks": 24480,
          "time": 95.625,
          "velocity": 0.6299212598425197
        },
        {
          "duration": 0.0703125,
          "durationTicks": 18,
          "midi": 74,
          "name": "D5",
          "ticks": 24499,
          "time": 95.69921875,
          "velocity": 0.6299212598425197
        },
        {
          "duration": 0.0703125,
          "durationTicks": 18,
          "midi": 81,
          "name": "A5",
          "ticks": 24518,
          "time": 95.7734375,
          "velocity": 0.6299212598425197
        },
        {
          "duration": 0.0703125,
          "durationTicks": 18,
          "midi": 74,
          "name": "D5",
          "ticks": 24537,
          "time": 95.84765625,
          "velocity": 0.6299212598425197
        },
        {
          "duration": 0.07421875,
          "durationTicks": 19,
          "midi": 81,
          "name": "A5",
          "ticks": 24556,
          "time": 95.921875,
          "velocity": 0.6299212598425197
        },
        {
          "duration": 0.0703125,
          "durationTicks": 18,
          "midi": 74,
          "name": "D5",
          "ticks": 24576,
          "time": 96,
          "velocity": 0.6299212598425197
        },
        {
          "duration": 0.0703125,
          "durationTicks": 18,
          "midi": 81,
          "name": "A5",
          "ticks": 24595,
          "time": 96.07421875,
          "velocity": 0.6299212598425197
        },
        {
          "duration": 0.0703125,
          "durationTicks": 18,
          "midi": 74,
          "name": "D5",
          "ticks": 24614,
          "time": 96.1484375,
          "velocity": 0.6299212598425197
        },
        {
          "duration": 0.0703125,
          "durationTicks": 18,
          "midi": 81,
          "name": "A5",
          "ticks": 24633,
          "time": 96.22265625,
          "velocity": 0.6299212598425197
        },
        {
          "duration": 0.07421875,
          "durationTicks": 19,
          "midi": 74,
          "name": "D5",
          "ticks": 24652,
          "time": 96.296875,
          "velocity": 0.6299212598425197
        },
        {
          "duration": 0.0703125,
          "durationTicks": 18,
          "midi": 81,
          "name": "A5",
          "ticks": 24672,
          "time": 96.375,
          "velocity": 0.6299212598425197
        },
        {
          "duration": 0.0703125,
          "durationTicks": 18,
          "midi": 74,
          "name": "D5",
          "ticks": 24691,
          "time": 96.44921875,
          "velocity": 0.6299212598425197
        },
        {
          "duration": 0.0703125,
          "durationTicks": 18,
          "midi": 81,
          "name": "A5",
          "ticks": 24710,
          "time": 96.5234375,
          "velocity": 0.6299212598425197
        },
        {
          "duration": 0.0703125,
          "durationTicks": 18,
          "midi": 74,
          "name": "D5",
          "ticks": 24729,
          "time": 96.59765625,
          "velocity": 0.6299212598425197
        },
        {
          "duration": 0.07421875,
          "durationTicks": 19,
          "midi": 81,
          "name": "A5",
          "ticks": 24748,
          "time": 96.671875,
          "velocity": 0.6299212598425197
        },
        {
          "duration": 0.0703125,
          "durationTicks": 18,
          "midi": 74,
          "name": "D5",
          "ticks": 24768,
          "time": 96.75,
          "velocity": 0.6299212598425197
        },
        {
          "duration": 0.0703125,
          "durationTicks": 18,
          "midi": 81,
          "name": "A5",
          "ticks": 24787,
          "time": 96.82421875,
          "velocity": 0.6299212598425197
        },
        {
          "duration": 0.0703125,
          "durationTicks": 18,
          "midi": 74,
          "name": "D5",
          "ticks": 24806,
          "time": 96.8984375,
          "velocity": 0.6299212598425197
        },
        {
          "duration": 0.0703125,
          "durationTicks": 18,
          "midi": 81,
          "name": "A5",
          "ticks": 24825,
          "time": 96.97265625,
          "velocity": 0.6299212598425197
        },
        {
          "duration": 0.07421875,
          "durationTicks": 19,
          "midi": 74,
          "name": "D5",
          "ticks": 24844,
          "time": 97.046875,
          "velocity": 0.6299212598425197
        },
        {
          "duration": 0.0703125,
          "durationTicks": 18,
          "midi": 81,
          "name": "A5",
          "ticks": 24864,
          "time": 97.125,
          "velocity": 0.6299212598425197
        },
        {
          "duration": 0.0703125,
          "durationTicks": 18,
          "midi": 74,
          "name": "D5",
          "ticks": 24883,
          "time": 97.19921875,
          "velocity": 0.6299212598425197
        },
        {
          "duration": 0.0703125,
          "durationTicks": 18,
          "midi": 81,
          "name": "A5",
          "ticks": 24902,
          "time": 97.2734375,
          "velocity": 0.6299212598425197
        },
        {
          "duration": 0.0703125,
          "durationTicks": 18,
          "midi": 74,
          "name": "D5",
          "ticks": 24921,
          "time": 97.34765625,
          "velocity": 0.6299212598425197
        },
        {
          "duration": 0.07421875,
          "durationTicks": 19,
          "midi": 81,
          "name": "A5",
          "ticks": 24940,
          "time": 97.421875,
          "velocity": 0.6299212598425197
        },
        {
          "duration": 0.0703125,
          "durationTicks": 18,
          "midi": 74,
          "name": "D5",
          "ticks": 24960,
          "time": 97.5,
          "velocity": 0.6299212598425197
        },
        {
          "duration": 0.0703125,
          "durationTicks": 18,
          "midi": 81,
          "name": "A5",
          "ticks": 24979,
          "time": 97.57421875,
          "velocity": 0.6299212598425197
        },
        {
          "duration": 0.0703125,
          "durationTicks": 18,
          "midi": 74,
          "name": "D5",
          "ticks": 24998,
          "time": 97.6484375,
          "velocity": 0.6299212598425197
        },
        {
          "duration": 0.0703125,
          "durationTicks": 18,
          "midi": 81,
          "name": "A5",
          "ticks": 25017,
          "time": 97.72265625,
          "velocity": 0.6299212598425197
        },
        {
          "duration": 0.07421875,
          "durationTicks": 19,
          "midi": 74,
          "name": "D5",
          "ticks": 25036,
          "time": 97.796875,
          "velocity": 0.6299212598425197
        },
        {
          "duration": 0.0703125,
          "durationTicks": 18,
          "midi": 81,
          "name": "A5",
          "ticks": 25056,
          "time": 97.875,
          "velocity": 0.6299212598425197
        },
        {
          "duration": 0.0703125,
          "durationTicks": 18,
          "midi": 74,
          "name": "D5",
          "ticks": 25075,
          "time": 97.94921875,
          "velocity": 0.6299212598425197
        },
        {
          "duration": 0.0703125,
          "durationTicks": 18,
          "midi": 81,
          "name": "A5",
          "ticks": 25094,
          "time": 98.0234375,
          "velocity": 0.6299212598425197
        },
        {
          "duration": 0.0703125,
          "durationTicks": 18,
          "midi": 74,
          "name": "D5",
          "ticks": 25113,
          "time": 98.09765625,
          "velocity": 0.6299212598425197
        },
        {
          "duration": 0.07421875,
          "durationTicks": 19,
          "midi": 81,
          "name": "A5",
          "ticks": 25132,
          "time": 98.171875,
          "velocity": 0.6299212598425197
        },
        {
          "duration": 0.0703125,
          "durationTicks": 18,
          "midi": 74,
          "name": "D5",
          "ticks": 25152,
          "time": 98.25,
          "velocity": 0.6299212598425197
        },
        {
          "duration": 0.0703125,
          "durationTicks": 18,
          "midi": 81,
          "name": "A5",
          "ticks": 25171,
          "time": 98.32421875,
          "velocity": 0.6299212598425197
        },
        {
          "duration": 0.0703125,
          "durationTicks": 18,
          "midi": 74,
          "name": "D5",
          "ticks": 25190,
          "time": 98.3984375,
          "velocity": 0.6299212598425197
        },
        {
          "duration": 0.0703125,
          "durationTicks": 18,
          "midi": 81,
          "name": "A5",
          "ticks": 25209,
          "time": 98.47265625,
          "velocity": 0.6299212598425197
        },
        {
          "duration": 0.07421875,
          "durationTicks": 19,
          "midi": 74,
          "name": "D5",
          "ticks": 25228,
          "time": 98.546875,
          "velocity": 0.6299212598425197
        },
        {
          "duration": 0.0703125,
          "durationTicks": 18,
          "midi": 81,
          "name": "A5",
          "ticks": 25248,
          "time": 98.625,
          "velocity": 0.6299212598425197
        },
        {
          "duration": 0.0703125,
          "durationTicks": 18,
          "midi": 74,
          "name": "D5",
          "ticks": 25267,
          "time": 98.69921875,
          "velocity": 0.6299212598425197
        },
        {
          "duration": 0.0703125,
          "durationTicks": 18,
          "midi": 81,
          "name": "A5",
          "ticks": 25286,
          "time": 98.7734375,
          "velocity": 0.6299212598425197
        },
        {
          "duration": 0.0703125,
          "durationTicks": 18,
          "midi": 74,
          "name": "D5",
          "ticks": 25305,
          "time": 98.84765625,
          "velocity": 0.6299212598425197
        },
        {
          "duration": 0.07421875,
          "durationTicks": 19,
          "midi": 81,
          "name": "A5",
          "ticks": 25324,
          "time": 98.921875,
          "velocity": 0.6299212598425197
        },
        {
          "duration": 0.0703125,
          "durationTicks": 18,
          "midi": 74,
          "name": "D5",
          "ticks": 25344,
          "time": 99,
          "velocity": 0.6299212598425197
        },
        {
          "duration": 0.0703125,
          "durationTicks": 18,
          "midi": 81,
          "name": "A5",
          "ticks": 25363,
          "time": 99.07421875,
          "velocity": 0.6299212598425197
        },
        {
          "duration": 0.0703125,
          "durationTicks": 18,
          "midi": 74,
          "name": "D5",
          "ticks": 25382,
          "time": 99.1484375,
          "velocity": 0.6299212598425197
        },
        {
          "duration": 0.0703125,
          "durationTicks": 18,
          "midi": 81,
          "name": "A5",
          "ticks": 25401,
          "time": 99.22265625,
          "velocity": 0.6299212598425197
        },
        {
          "duration": 0.07421875,
          "durationTicks": 19,
          "midi": 74,
          "name": "D5",
          "ticks": 25420,
          "time": 99.296875,
          "velocity": 0.6299212598425197
        },
        {
          "duration": 0.0703125,
          "durationTicks": 18,
          "midi": 81,
          "name": "A5",
          "ticks": 25440,
          "time": 99.375,
          "velocity": 0.6299212598425197
        },
        {
          "duration": 0.0703125,
          "durationTicks": 18,
          "midi": 74,
          "name": "D5",
          "ticks": 25459,
          "time": 99.44921875,
          "velocity": 0.6299212598425197
        },
        {
          "duration": 0.0703125,
          "durationTicks": 18,
          "midi": 81,
          "name": "A5",
          "ticks": 25478,
          "time": 99.5234375,
          "velocity": 0.6299212598425197
        },
        {
          "duration": 0.0703125,
          "durationTicks": 18,
          "midi": 74,
          "name": "D5",
          "ticks": 25497,
          "time": 99.59765625,
          "velocity": 0.6299212598425197
        },
        {
          "duration": 0.07421875,
          "durationTicks": 19,
          "midi": 81,
          "name": "A5",
          "ticks": 25516,
          "time": 99.671875,
          "velocity": 0.6299212598425197
        },
        {
          "duration": 0.0703125,
          "durationTicks": 18,
          "midi": 74,
          "name": "D5",
          "ticks": 25536,
          "time": 99.75,
          "velocity": 0.6299212598425197
        },
        {
          "duration": 0.0703125,
          "durationTicks": 18,
          "midi": 81,
          "name": "A5",
          "ticks": 25555,
          "time": 99.82421875,
          "velocity": 0.6299212598425197
        },
        {
          "duration": 0.0703125,
          "durationTicks": 18,
          "midi": 74,
          "name": "D5",
          "ticks": 25574,
          "time": 99.8984375,
          "velocity": 0.6299212598425197
        },
        {
          "duration": 0.0703125,
          "durationTicks": 18,
          "midi": 81,
          "name": "A5",
          "ticks": 25593,
          "time": 99.97265625,
          "velocity": 0.6299212598425197
        },
        {
          "duration": 0.07421875,
          "durationTicks": 19,
          "midi": 74,
          "name": "D5",
          "ticks": 25612,
          "time": 100.046875,
          "velocity": 0.6299212598425197
        },
        {
          "duration": 0.0703125,
          "durationTicks": 18,
          "midi": 81,
          "name": "A5",
          "ticks": 25632,
          "time": 100.125,
          "velocity": 0.6299212598425197
        },
        {
          "duration": 0.0703125,
          "durationTicks": 18,
          "midi": 74,
          "name": "D5",
          "ticks": 25651,
          "time": 100.19921875,
          "velocity": 0.6299212598425197
        },
        {
          "duration": 0.0703125,
          "durationTicks": 18,
          "midi": 81,
          "name": "A5",
          "ticks": 25670,
          "time": 100.2734375,
          "velocity": 0.6299212598425197
        },
        {
          "duration": 0.0703125,
          "durationTicks": 18,
          "midi": 74,
          "name": "D5",
          "ticks": 25689,
          "time": 100.34765625,
          "velocity": 0.6299212598425197
        },
        {
          "duration": 0.07421875,
          "durationTicks": 19,
          "midi": 81,
          "name": "A5",
          "ticks": 25708,
          "time": 100.421875,
          "velocity": 0.6299212598425197
        },
        {
          "duration": 0.0703125,
          "durationTicks": 18,
          "midi": 74,
          "name": "D5",
          "ticks": 25728,
          "time": 100.5,
          "velocity": 0.6299212598425197
        },
        {
          "duration": 0.0703125,
          "durationTicks": 18,
          "midi": 81,
          "name": "A5",
          "ticks": 25747,
          "time": 100.57421875,
          "velocity": 0.6299212598425197
        },
        {
          "duration": 0.0703125,
          "durationTicks": 18,
          "midi": 74,
          "name": "D5",
          "ticks": 25766,
          "time": 100.6484375,
          "velocity": 0.6299212598425197
        },
        {
          "duration": 0.0703125,
          "durationTicks": 18,
          "midi": 81,
          "name": "A5",
          "ticks": 25785,
          "time": 100.72265625,
          "velocity": 0.6299212598425197
        },
        {
          "duration": 0.07421875,
          "durationTicks": 19,
          "midi": 74,
          "name": "D5",
          "ticks": 25804,
          "time": 100.796875,
          "velocity": 0.6299212598425197
        },
        {
          "duration": 0.0703125,
          "durationTicks": 18,
          "midi": 81,
          "name": "A5",
          "ticks": 25824,
          "time": 100.875,
          "velocity": 0.6299212598425197
        },
        {
          "duration": 0.0703125,
          "durationTicks": 18,
          "midi": 74,
          "name": "D5",
          "ticks": 25843,
          "time": 100.94921875,
          "velocity": 0.6299212598425197
        },
        {
          "duration": 0.0703125,
          "durationTicks": 18,
          "midi": 81,
          "name": "A5",
          "ticks": 25862,
          "time": 101.0234375,
          "velocity": 0.6299212598425197
        },
        {
          "duration": 0.0703125,
          "durationTicks": 18,
          "midi": 74,
          "name": "D5",
          "ticks": 25881,
          "time": 101.09765625,
          "velocity": 0.6299212598425197
        },
        {
          "duration": 0.07421875,
          "durationTicks": 19,
          "midi": 81,
          "name": "A5",
          "ticks": 25900,
          "time": 101.171875,
          "velocity": 0.6299212598425197
        },
        {
          "duration": 0.0703125,
          "durationTicks": 18,
          "midi": 74,
          "name": "D5",
          "ticks": 25920,
          "time": 101.25,
          "velocity": 0.6299212598425197
        },
        {
          "duration": 0.0703125,
          "durationTicks": 18,
          "midi": 81,
          "name": "A5",
          "ticks": 25939,
          "time": 101.32421875,
          "velocity": 0.6299212598425197
        },
        {
          "duration": 0.0703125,
          "durationTicks": 18,
          "midi": 74,
          "name": "D5",
          "ticks": 25958,
          "time": 101.3984375,
          "velocity": 0.6299212598425197
        },
        {
          "duration": 0.0703125,
          "durationTicks": 18,
          "midi": 81,
          "name": "A5",
          "ticks": 25977,
          "time": 101.47265625,
          "velocity": 0.6299212598425197
        },
        {
          "duration": 0.07421875,
          "durationTicks": 19,
          "midi": 74,
          "name": "D5",
          "ticks": 25996,
          "time": 101.546875,
          "velocity": 0.6299212598425197
        },
        {
          "duration": 0.0703125,
          "durationTicks": 18,
          "midi": 81,
          "name": "A5",
          "ticks": 26016,
          "time": 101.625,
          "velocity": 0.6299212598425197
        },
        {
          "duration": 0.0703125,
          "durationTicks": 18,
          "midi": 74,
          "name": "D5",
          "ticks": 26035,
          "time": 101.69921875,
          "velocity": 0.6299212598425197
        },
        {
          "duration": 0.0703125,
          "durationTicks": 18,
          "midi": 81,
          "name": "A5",
          "ticks": 26054,
          "time": 101.7734375,
          "velocity": 0.6299212598425197
        },
        {
          "duration": 0.0703125,
          "durationTicks": 18,
          "midi": 74,
          "name": "D5",
          "ticks": 26073,
          "time": 101.84765625,
          "velocity": 0.6299212598425197
        },
        {
          "duration": 0.07421875,
          "durationTicks": 19,
          "midi": 81,
          "name": "A5",
          "ticks": 26092,
          "time": 101.921875,
          "velocity": 0.6299212598425197
        },
        {
          "duration": 0.59375,
          "durationTicks": 152,
          "midi": 81,
          "name": "A5",
          "ticks": 26112,
          "time": 102,
          "velocity": 0.6299212598425197
        },
        {
          "duration": 0.59375,
          "durationTicks": 152,
          "midi": 74,
          "name": "D5",
          "ticks": 26112,
          "time": 102,
          "velocity": 0.6299212598425197
        },
        {
          "duration": 0.8828125,
          "durationTicks": 226,
          "midi": 58,
          "name": "A#3",
          "ticks": 26267,
          "time": 102.60546875,
          "velocity": 0.6299212598425197
        },
        {
          "duration": 0.8828125,
          "durationTicks": 226,
          "midi": 65,
          "name": "F4",
          "ticks": 26267,
          "time": 102.60546875,
          "velocity": 0.6299212598425197
        },
        {
          "duration": 0.8828125,
          "durationTicks": 226,
          "midi": 62,
          "name": "D4",
          "ticks": 26267,
          "time": 102.60546875,
          "velocity": 0.6299212598425197
        },
        {
          "duration": 0.8828125,
          "durationTicks": 226,
          "midi": 57,
          "name": "A3",
          "ticks": 26267,
          "time": 102.60546875,
          "velocity": 0.6299212598425197
        },
        {
          "duration": 0.8828125,
          "durationTicks": 226,
          "midi": 60,
          "name": "C4",
          "ticks": 26651,
          "time": 104.10546875,
          "velocity": 0.6299212598425197
        },
        {
          "duration": 0.8828125,
          "durationTicks": 226,
          "midi": 67,
          "name": "G4",
          "ticks": 26651,
          "time": 104.10546875,
          "velocity": 0.6299212598425197
        },
        {
          "duration": 0.8828125,
          "durationTicks": 226,
          "midi": 64,
          "name": "E4",
          "ticks": 26651,
          "time": 104.10546875,
          "velocity": 0.6299212598425197
        },
        {
          "duration": 0.8828125,
          "durationTicks": 226,
          "midi": 62,
          "name": "D4",
          "ticks": 26651,
          "time": 104.10546875,
          "velocity": 0.6299212598425197
        },
        {
          "duration": 0.18359375,
          "durationTicks": 47,
          "midi": 62,
          "name": "D4",
          "ticks": 26880,
          "time": 105,
          "velocity": 0.6299212598425197
        },
        {
          "duration": 0.18359375,
          "durationTicks": 47,
          "midi": 53,
          "name": "F3",
          "ticks": 26880,
          "time": 105,
          "velocity": 0.6299212598425197
        },
        {
          "duration": 0.18359375,
          "durationTicks": 47,
          "midi": 58,
          "name": "A#3",
          "ticks": 26880,
          "time": 105,
          "velocity": 0.6299212598425197
        },
        {
          "duration": 0.18359375,
          "durationTicks": 47,
          "midi": 64,
          "name": "E4",
          "ticks": 26976,
          "time": 105.375,
          "velocity": 0.6299212598425197
        },
        {
          "duration": 0.18359375,
          "durationTicks": 47,
          "midi": 55,
          "name": "G3",
          "ticks": 26976,
          "time": 105.375,
          "velocity": 0.6299212598425197
        },
        {
          "duration": 0.18359375,
          "durationTicks": 47,
          "midi": 60,
          "name": "C4",
          "ticks": 26976,
          "time": 105.375,
          "velocity": 0.6299212598425197
        },
        {
          "duration": 0.18359375,
          "durationTicks": 47,
          "midi": 65,
          "name": "F4",
          "ticks": 27072,
          "time": 105.75,
          "velocity": 0.6299212598425197
        },
        {
          "duration": 0.18359375,
          "durationTicks": 47,
          "midi": 58,
          "name": "A#3",
          "ticks": 27072,
          "time": 105.75,
          "velocity": 0.6299212598425197
        },
        {
          "duration": 0.18359375,
          "durationTicks": 47,
          "midi": 62,
          "name": "D4",
          "ticks": 27072,
          "time": 105.75,
          "velocity": 0.6299212598425197
        },
        {
          "duration": 0.18359375,
          "durationTicks": 47,
          "midi": 67,
          "name": "G4",
          "ticks": 27168,
          "time": 106.125,
          "velocity": 0.6299212598425197
        },
        {
          "duration": 0.18359375,
          "durationTicks": 47,
          "midi": 60,
          "name": "C4",
          "ticks": 27168,
          "time": 106.125,
          "velocity": 0.6299212598425197
        },
        {
          "duration": 0.18359375,
          "durationTicks": 47,
          "midi": 64,
          "name": "E4",
          "ticks": 27168,
          "time": 106.125,
          "velocity": 0.6299212598425197
        },
        {
          "duration": 2.99609375,
          "durationTicks": 767,
          "midi": 62,
          "name": "D4",
          "ticks": 27264,
          "time": 106.5,
          "velocity": 0.6299212598425197
        },
        {
          "duration": 2.99609375,
          "durationTicks": 767,
          "midi": 66,
          "name": "F#4",
          "ticks": 27264,
          "time": 106.5,
          "velocity": 0.6299212598425197
        },
        {
          "duration": 2.99609375,
          "durationTicks": 767,
          "midi": 70,
          "name": "A#4",
          "ticks": 27264,
          "time": 106.5,
          "velocity": 0.6299212598425197
        },
        {
          "duration": 2.99609375,
          "durationTicks": 767,
          "midi": 74,
          "name": "D5",
          "ticks": 27264,
          "time": 106.5,
          "velocity": 0.6299212598425197
        },
        {
          "duration": 0.88671875,
          "durationTicks": 227,
          "midi": 78,
          "name": "F#5",
          "ticks": 28188,
          "time": 110.109375,
          "velocity": 0.6299212598425197
        },
        {
          "duration": 0.83984375,
          "durationTicks": 215,
          "midi": 79,
          "name": "G5",
          "ticks": 28200,
          "time": 110.15625,
          "velocity": 0.6299212598425197
        },
        {
          "duration": 0.79296875,
          "durationTicks": 203,
          "midi": 89,
          "name": "F6",
          "ticks": 28212,
          "time": 110.203125,
          "velocity": 0.6299212598425197
        },
        {
          "duration": 0.74609375,
          "durationTicks": 191,
          "midi": 83,
          "name": "B5",
          "ticks": 28224,
          "time": 110.25,
          "velocity": 0.6299212598425197
        }
      ]
    },
    {
      "channel": 0,
      "controlChanges": {
        "0": [
          {
            "number": 0,
            "ticks": 0,
            "time": 0,
            "value": 0
          }
        ],
        "32": [
          {
            "number": 32,
            "ticks": 0,
            "time": 0,
            "value": 0
          }
        ]
      },
      "instrument": {
        "family": "bass",
        "name": "acoustic bass",
        "number": 32
      },
      "name": "MIDI 04",
      "notes": [
        {
          "duration": 0.55859375,
          "durationTicks": 143,
          "midi": 33,
          "name": "A1",
          "ticks": 0,
          "time": 0,
          "velocity": 0.8267716535433071
        },
        {
          "duration": 0.55859375,
          "durationTicks": 143,
          "midi": 33,
          "name": "A1",
          "ticks": 144,
          "time": 0.5625,
          "velocity": 0.8267716535433071
        },
        {
          "duration": 0.55859375,
          "durationTicks": 143,
          "midi": 33,
          "name": "A1",
          "ticks": 288,
          "time": 1.125,
          "velocity": 0.8267716535433071
        },
        {
          "duration": 0.55859375,
          "durationTicks": 143,
          "midi": 33,
          "name": "A1",
          "ticks": 432,
          "time": 1.6875,
          "velocity": 0.8267716535433071
        },
        {
          "duration": 0.55859375,
          "durationTicks": 143,
          "midi": 33,
          "name": "A1",
          "ticks": 576,
          "time": 2.25,
          "velocity": 0.8267716535433071
        },
        {
          "duration": 0.55859375,
          "durationTicks": 143,
          "midi": 33,
          "name": "A1",
          "ticks": 720,
          "time": 2.8125,
          "velocity": 0.8267716535433071
        },
        {
          "duration": 0.55859375,
          "durationTicks": 143,
          "midi": 33,
          "name": "A1",
          "ticks": 864,
          "time": 3.375,
          "velocity": 0.8267716535433071
        },
        {
          "duration": 0.55859375,
          "durationTicks": 143,
          "midi": 33,
          "name": "A1",
          "ticks": 1008,
          "time": 3.9375,
          "velocity": 0.8267716535433071
        },
        {
          "duration": 0.55859375,
          "durationTicks": 143,
          "midi": 33,
          "name": "A1",
          "ticks": 1152,
          "time": 4.5,
          "velocity": 0.8267716535433071
        },
        {
          "duration": 0.55859375,
          "durationTicks": 143,
          "midi": 33,
          "name": "A1",
          "ticks": 1296,
          "time": 5.0625,
          "velocity": 0.8267716535433071
        },
        {
          "duration": 0.37109375,
          "durationTicks": 95,
          "midi": 33,
          "name": "A1",
          "ticks": 1440,
          "time": 5.625,
          "velocity": 0.8267716535433071
        },
        {
          "duration": 0.55859375,
          "durationTicks": 143,
          "midi": 33,
          "name": "A1",
          "ticks": 1536,
          "time": 6,
          "velocity": 0.8267716535433071
        },
        {
          "duration": 0.55859375,
          "durationTicks": 143,
          "midi": 33,
          "name": "A1",
          "ticks": 1680,
          "time": 6.5625,
          "velocity": 0.8267716535433071
        },
        {
          "duration": 0.55859375,
          "durationTicks": 143,
          "midi": 33,
          "name": "A1",
          "ticks": 1824,
          "time": 7.125,
          "velocity": 0.8267716535433071
        },
        {
          "duration": 0.55859375,
          "durationTicks": 143,
          "midi": 33,
          "name": "A1",
          "ticks": 1968,
          "time": 7.6875,
          "velocity": 0.8267716535433071
        },
        {
          "duration": 0.55859375,
          "durationTicks": 143,
          "midi": 33,
          "name": "A1",
          "ticks": 2112,
          "time": 8.25,
          "velocity": 0.8267716535433071
        },
        {
          "duration": 0.55859375,
          "durationTicks": 143,
          "midi": 33,
          "name": "A1",
          "ticks": 2256,
          "time": 8.8125,
          "velocity": 0.8267716535433071
        },
        {
          "duration": 0.55859375,
          "durationTicks": 143,
          "midi": 33,
          "name": "A1",
          "ticks": 2400,
          "time": 9.375,
          "velocity": 0.8267716535433071
        },
        {
          "duration": 0.55859375,
          "durationTicks": 143,
          "midi": 33,
          "name": "A1",
          "ticks": 2544,
          "time": 9.9375,
          "velocity": 0.8267716535433071
        },
        {
          "duration": 0.55859375,
          "durationTicks": 143,
          "midi": 33,
          "name": "A1",
          "ticks": 2688,
          "time": 10.5,
          "velocity": 0.8267716535433071
        },
        {
          "duration": 0.55859375,
          "durationTicks": 143,
          "midi": 33,
          "name": "A1",
          "ticks": 2832,
          "time": 11.0625,
          "velocity": 0.8267716535433071
        },
        {
          "duration": 0.37109375,
          "durationTicks": 95,
          "midi": 33,
          "name": "A1",
          "ticks": 2976,
          "time": 11.625,
          "velocity": 0.8267716535433071
        },
        {
          "duration": 0.55859375,
          "durationTicks": 143,
          "midi": 33,
          "name": "A1",
          "ticks": 3072,
          "time": 12,
          "velocity": 0.8267716535433071
        },
        {
          "duration": 0.55859375,
          "durationTicks": 143,
          "midi": 33,
          "name": "A1",
          "ticks": 3216,
          "time": 12.5625,
          "velocity": 0.8267716535433071
        },
        {
          "duration": 0.55859375,
          "durationTicks": 143,
          "midi": 33,
          "name": "A1",
          "ticks": 3360,
          "time": 13.125,
          "velocity": 0.8267716535433071
        },
        {
          "duration": 0.55859375,
          "durationTicks": 143,
          "midi": 33,
          "name": "A1",
          "ticks": 3504,
          "time": 13.6875,
          "velocity": 0.8267716535433071
        },
        {
          "duration": 0.55859375,
          "durationTicks": 143,
          "midi": 33,
          "name": "A1",
          "ticks": 3648,
          "time": 14.25,
          "velocity": 0.8267716535433071
        },
        {
          "duration": 0.55859375,
          "durationTicks": 143,
          "midi": 33,
          "name": "A1",
          "ticks": 3792,
          "time": 14.8125,
          "velocity": 0.8267716535433071
        },
        {
          "duration": 0.55859375,
          "durationTicks": 143,
          "midi": 33,
          "name": "A1",
          "ticks": 3936,
          "time": 15.375,
          "velocity": 0.8267716535433071
        },
        {
          "duration": 0.55859375,
          "durationTicks": 143,
          "midi": 33,
          "name": "A1",
          "ticks": 4080,
          "time": 15.9375,
          "velocity": 0.8267716535433071
        },
        {
          "duration": 0.55859375,
          "durationTicks": 143,
          "midi": 33,
          "name": "A1",
          "ticks": 4224,
          "time": 16.5,
          "velocity": 0.8267716535433071
        },
        {
          "duration": 0.55859375,
          "durationTicks": 143,
          "midi": 33,
          "name": "A1",
          "ticks": 4368,
          "time": 17.0625,
          "velocity": 0.8267716535433071
        },
        {
          "duration": 0.37109375,
          "durationTicks": 95,
          "midi": 33,
          "name": "A1",
          "ticks": 4512,
          "time": 17.625,
          "velocity": 0.8267716535433071
        },
        {
          "duration": 0.55859375,
          "durationTicks": 143,
          "midi": 33,
          "name": "A1",
          "ticks": 4608,
          "time": 18,
          "velocity": 0.8267716535433071
        },
        {
          "duration": 0.55859375,
          "durationTicks": 143,
          "midi": 33,
          "name": "A1",
          "ticks": 4752,
          "time": 18.5625,
          "velocity": 0.8267716535433071
        },
        {
          "duration": 0.55859375,
          "durationTicks": 143,
          "midi": 33,
          "name": "A1",
          "ticks": 4896,
          "time": 19.125,
          "velocity": 0.8267716535433071
        },
        {
          "duration": 0.55859375,
          "durationTicks": 143,
          "midi": 33,
          "name": "A1",
          "ticks": 5040,
          "time": 19.6875,
          "velocity": 0.8267716535433071
        },
        {
          "duration": 0.55859375,
          "durationTicks": 143,
          "midi": 33,
          "name": "A1",
          "ticks": 5184,
          "time": 20.25,
          "velocity": 0.8267716535433071
        },
        {
          "duration": 0.55859375,
          "durationTicks": 143,
          "midi": 33,
          "name": "A1",
          "ticks": 5328,
          "time": 20.8125,
          "velocity": 0.8267716535433071
        },
        {
          "duration": 0.55859375,
          "durationTicks": 143,
          "midi": 33,
          "name": "A1",
          "ticks": 5472,
          "time": 21.375,
          "velocity": 0.8267716535433071
        },
        {
          "duration": 0.55859375,
          "durationTicks": 143,
          "midi": 33,
          "name": "A1",
          "ticks": 5616,
          "time": 21.9375,
          "velocity": 0.8267716535433071
        },
        {
          "duration": 0.55859375,
          "durationTicks": 143,
          "midi": 33,
          "name": "A1",
          "ticks": 5760,
          "time": 22.5,
          "velocity": 0.8267716535433071
        },
        {
          "duration": 0.55859375,
          "durationTicks": 143,
          "midi": 33,
          "name": "A1",
          "ticks": 5904,
          "time": 23.0625,
          "velocity": 0.8267716535433071
        },
        {
          "duration": 0.37109375,
          "durationTicks": 95,
          "midi": 33,
          "name": "A1",
          "ticks": 6048,
          "time": 23.625,
          "velocity": 0.8267716535433071
        },
        {
          "duration": 0.55859375,
          "durationTicks": 143,
          "midi": 33,
          "name": "A1",
          "ticks": 6144,
          "time": 24,
          "velocity": 0.8267716535433071
        },
        {
          "duration": 0.55859375,
          "durationTicks": 143,
          "midi": 33,
          "name": "A1",
          "ticks": 6288,
          "time": 24.5625,
          "velocity": 0.8267716535433071
        },
        {
          "duration": 0.55859375,
          "durationTicks": 143,
          "midi": 33,
          "name": "A1",
          "ticks": 6432,
          "time": 25.125,
          "velocity": 0.8267716535433071
        },
        {
          "duration": 0.55859375,
          "durationTicks": 143,
          "midi": 33,
          "name": "A1",
          "ticks": 6576,
          "time": 25.6875,
          "velocity": 0.8267716535433071
        },
        {
          "duration": 0.55859375,
          "durationTicks": 143,
          "midi": 33,
          "name": "A1",
          "ticks": 6720,
          "time": 26.25,
          "velocity": 0.8267716535433071
        },
        {
          "duration": 0.55859375,
          "durationTicks": 143,
          "midi": 33,
          "name": "A1",
          "ticks": 6864,
          "time": 26.8125,
          "velocity": 0.8267716535433071
        },
        {
          "duration": 0.55859375,
          "durationTicks": 143,
          "midi": 33,
          "name": "A1",
          "ticks": 7008,
          "time": 27.375,
          "velocity": 0.8267716535433071
        },
        {
          "duration": 0.55859375,
          "durationTicks": 143,
          "midi": 33,
          "name": "A1",
          "ticks": 7152,
          "time": 27.9375,
          "velocity": 0.8267716535433071
        },
        {
          "duration": 0.18359375,
          "durationTicks": 47,
          "midi": 33,
          "name": "A1",
          "ticks": 7296,
          "time": 28.5,
          "velocity": 0.8267716535433071
        },
        {
          "duration": 0.37109375,
          "durationTicks": 95,
          "midi": 33,
          "name": "A1",
          "ticks": 7584,
          "time": 29.625,
          "velocity": 0.8267716535433071
        },
        {
          "duration": 0.55859375,
          "durationTicks": 143,
          "midi": 38,
          "name": "D2",
          "ticks": 7680,
          "time": 30,
          "velocity": 0.8267716535433071
        },
        {
          "duration": 0.55859375,
          "durationTicks": 143,
          "midi": 38,
          "name": "D2",
          "ticks": 7824,
          "time": 30.5625,
          "velocity": 0.8267716535433071
        },
        {
          "duration": 0.55859375,
          "durationTicks": 143,
          "midi": 38,
          "name": "D2",
          "ticks": 7968,
          "time": 31.125,
          "velocity": 0.8267716535433071
        },
        {
          "duration": 0.55859375,
          "durationTicks": 143,
          "midi": 38,
          "name": "D2",
          "ticks": 8112,
          "time": 31.6875,
          "velocity": 0.8267716535433071
        },
        {
          "duration": 0.55859375,
          "durationTicks": 143,
          "midi": 38,
          "name": "D2",
          "ticks": 8256,
          "time": 32.25,
          "velocity": 0.8267716535433071
        },
        {
          "duration": 0.55859375,
          "durationTicks": 143,
          "midi": 38,
          "name": "D2",
          "ticks": 8400,
          "time": 32.8125,
          "velocity": 0.8267716535433071
        },
        {
          "duration": 0.55859375,
          "durationTicks": 143,
          "midi": 38,
          "name": "D2",
          "ticks": 8544,
          "time": 33.375,
          "velocity": 0.8267716535433071
        },
        {
          "duration": 0.55859375,
          "durationTicks": 143,
          "midi": 38,
          "name": "D2",
          "ticks": 8688,
          "time": 33.9375,
          "velocity": 0.8267716535433071
        },
        {
          "duration": 0.55859375,
          "durationTicks": 143,
          "midi": 38,
          "name": "D2",
          "ticks": 8832,
          "time": 34.5,
          "velocity": 0.8267716535433071
        },
        {
          "duration": 0.55859375,
          "durationTicks": 143,
          "midi": 38,
          "name": "D2",
          "ticks": 8976,
          "time": 35.0625,
          "velocity": 0.8267716535433071
        },
        {
          "duration": 0.37109375,
          "durationTicks": 95,
          "midi": 38,
          "name": "D2",
          "ticks": 9120,
          "time": 35.625,
          "velocity": 0.8267716535433071
        },
        {
          "duration": 0.55859375,
          "durationTicks": 143,
          "midi": 38,
          "name": "D2",
          "ticks": 9216,
          "time": 36,
          "velocity": 0.8267716535433071
        },
        {
          "duration": 0.55859375,
          "durationTicks": 143,
          "midi": 38,
          "name": "D2",
          "ticks": 9360,
          "time": 36.5625,
          "velocity": 0.8267716535433071
        },
        {
          "duration": 0.55859375,
          "durationTicks": 143,
          "midi": 38,
          "name": "D2",
          "ticks": 9504,
          "time": 37.125,
          "velocity": 0.8267716535433071
        },
        {
          "duration": 0.55859375,
          "durationTicks": 143,
          "midi": 38,
          "name": "D2",
          "ticks": 9648,
          "time": 37.6875,
          "velocity": 0.8267716535433071
        },
        {
          "duration": 0.55859375,
          "durationTicks": 143,
          "midi": 38,
          "name": "D2",
          "ticks": 9792,
          "time": 38.25,
          "velocity": 0.8267716535433071
        },
        {
          "duration": 0.55859375,
          "durationTicks": 143,
          "midi": 38,
          "name": "D2",
          "ticks": 9936,
          "time": 38.8125,
          "velocity": 0.8267716535433071
        },
        {
          "duration": 0.55859375,
          "durationTicks": 143,
          "midi": 38,
          "name": "D2",
          "ticks": 10080,
          "time": 39.375,
          "velocity": 0.8267716535433071
        },
        {
          "duration": 0.55859375,
          "durationTicks": 143,
          "midi": 38,
          "name": "D2",
          "ticks": 10224,
          "time": 39.9375,
          "velocity": 0.8267716535433071
        },
        {
          "duration": 0.55859375,
          "durationTicks": 143,
          "midi": 38,
          "name": "D2",
          "ticks": 10368,
          "time": 40.5,
          "velocity": 0.8267716535433071
        },
        {
          "duration": 0.55859375,
          "durationTicks": 143,
          "midi": 38,
          "name": "D2",
          "ticks": 10512,
          "time": 41.0625,
          "velocity": 0.8267716535433071
        },
        {
          "duration": 0.37109375,
          "durationTicks": 95,
          "midi": 38,
          "name": "D2",
          "ticks": 10656,
          "time": 41.625,
          "velocity": 0.8267716535433071
        },
        {
          "duration": 1.35546875,
          "durationTicks": 347,
          "midi": 43,
          "name": "G2",
          "ticks": 10752,
          "time": 42,
          "velocity": 0.6299212598425197
        },
        {
          "duration": 0.13671875,
          "durationTicks": 35,
          "midi": 43,
          "name": "G2",
          "ticks": 11100,
          "time": 43.359375,
          "velocity": 0.6299212598425197
        },
        {
          "duration": 1.35546875,
          "durationTicks": 347,
          "midi": 45,
          "name": "A2",
          "ticks": 11136,
          "time": 43.5,
          "velocity": 0.6299212598425197
        },
        {
          "duration": 0.13671875,
          "durationTicks": 35,
          "midi": 45,
          "name": "A2",
          "ticks": 11484,
          "time": 44.859375,
          "velocity": 0.6299212598425197
        },
        {
          "duration": 0.98046875,
          "durationTicks": 251,
          "midi": 46,
          "name": "A#2",
          "ticks": 11520,
          "time": 45,
          "velocity": 0.6299212598425197
        },
        {
          "duration": 0.51171875,
          "durationTicks": 131,
          "midi": 46,
          "name": "A#2",
          "ticks": 11772,
          "time": 45.984375,
          "velocity": 0.6299212598425197
        },
        {
          "duration": 0.37109375,
          "durationTicks": 95,
          "midi": 45,
          "name": "A2",
          "ticks": 11904,
          "time": 46.5,
          "velocity": 0.6299212598425197
        },
        {
          "duration": 0.37109375,
          "durationTicks": 95,
          "midi": 45,
          "name": "A2",
          "ticks": 12000,
          "time": 46.875,
          "velocity": 0.6299212598425197
        },
        {
          "duration": 0.23046875,
          "durationTicks": 59,
          "midi": 45,
          "name": "A2",
          "ticks": 12096,
          "time": 47.25,
          "velocity": 0.6299212598425197
        },
        {
          "duration": 0.37109375,
          "durationTicks": 95,
          "midi": 45,
          "name": "A2",
          "ticks": 12156,
          "time": 47.484375,
          "velocity": 0.6299212598425197
        },
        {
          "duration": 1.49609375,
          "durationTicks": 383,
          "midi": 43,
          "name": "G2",
          "ticks": 12252,
          "time": 47.859375,
          "velocity": 0.6299212598425197
        },
        {
          "duration": 0.13671875,
          "durationTicks": 35,
          "midi": 43,
          "name": "G2",
          "ticks": 12636,
          "time": 49.359375,
          "velocity": 0.6299212598425197
        },
        {
          "duration": 1.35546875,
          "durationTicks": 347,
          "midi": 45,
          "name": "A2",
          "ticks": 12672,
          "time": 49.5,
          "velocity": 0.6299212598425197
        },
        {
          "duration": 0.13671875,
          "durationTicks": 35,
          "midi": 45,
          "name": "A2",
          "ticks": 13020,
          "time": 50.859375,
          "velocity": 0.6299212598425197
        },
        {
          "duration": 0.98046875,
          "durationTicks": 251,
          "midi": 46,
          "name": "A#2",
          "ticks": 13056,
          "time": 51,
          "velocity": 0.6299212598425197
        },
        {
          "duration": 0.51171875,
          "durationTicks": 131,
          "midi": 46,
          "name": "A#2",
          "ticks": 13308,
          "time": 51.984375,
          "velocity": 0.6299212598425197
        },
        {
          "duration": 0.55859375,
          "durationTicks": 143,
          "midi": 38,
          "name": "D2",
          "ticks": 13824,
          "time": 54,
          "velocity": 0.8267716535433071
        },
        {
          "duration": 0.37109375,
          "durationTicks": 95,
          "midi": 45,
          "name": "A2",
          "ticks": 13968,
          "time": 54.5625,
          "velocity": 0.7795275590551181
        },
        {
          "duration": 0.37109375,
          "durationTicks": 95,
          "midi": 45,
          "name": "A2",
          "ticks": 14064,
          "time": 54.9375,
          "velocity": 0.7795275590551181
        },
        {
          "duration": 0.18359375,
          "durationTicks": 47,
          "midi": 45,
          "name": "A2",
          "ticks": 14160,
          "time": 55.3125,
          "velocity": 0.7795275590551181
        },
        {
          "duration": 0.55859375,
          "durationTicks": 143,
          "midi": 38,
          "name": "D2",
          "ticks": 14208,
          "time": 55.5,
          "velocity": 0.8267716535433071
        },
        {
          "duration": 0.37109375,
          "durationTicks": 95,
          "midi": 45,
          "name": "A2",
          "ticks": 14352,
          "time": 56.0625,
          "velocity": 0.7795275590551181
        },
        {
          "duration": 0.37109375,
          "durationTicks": 95,
          "midi": 45,
          "name": "A2",
          "ticks": 14448,
          "time": 56.4375,
          "velocity": 0.7795275590551181
        },
        {
          "duration": 0.18359375,
          "durationTicks": 47,
          "midi": 45,
          "name": "A2",
          "ticks": 14544,
          "time": 56.8125,
          "velocity": 0.7795275590551181
        },
        {
          "duration": 0.55859375,
          "durationTicks": 143,
          "midi": 38,
          "name": "D2",
          "ticks": 14592,
          "time": 57,
          "velocity": 0.8267716535433071
        },
        {
          "duration": 0.37109375,
          "durationTicks": 95,
          "midi": 45,
          "name": "A2",
          "ticks": 14736,
          "time": 57.5625,
          "velocity": 0.7795275590551181
        },
        {
          "duration": 0.37109375,
          "durationTicks": 95,
          "midi": 45,
          "name": "A2",
          "ticks": 14832,
          "time": 57.9375,
          "velocity": 0.7795275590551181
        },
        {
          "duration": 0.18359375,
          "durationTicks": 47,
          "midi": 45,
          "name": "A2",
          "ticks": 14928,
          "time": 58.3125,
          "velocity": 0.7795275590551181
        },
        {
          "duration": 0.55859375,
          "durationTicks": 143,
          "midi": 38,
          "name": "D2",
          "ticks": 14976,
          "time": 58.5,
          "velocity": 0.8267716535433071
        },
        {
          "duration": 0.37109375,
          "durationTicks": 95,
          "midi": 45,
          "name": "A2",
          "ticks": 15120,
          "time": 59.0625,
          "velocity": 0.7795275590551181
        },
        {
          "duration": 0.37109375,
          "durationTicks": 95,
          "midi": 45,
          "name": "A2",
          "ticks": 15216,
          "time": 59.4375,
          "velocity": 0.7795275590551181
        },
        {
          "duration": 0.18359375,
          "durationTicks": 47,
          "midi": 45,
          "name": "A2",
          "ticks": 15312,
          "time": 59.8125,
          "velocity": 0.7795275590551181
        },
        {
          "duration": 0.55859375,
          "durationTicks": 143,
          "midi": 38,
          "name": "D2",
          "ticks": 15360,
          "time": 60,
          "velocity": 0.8267716535433071
        },
        {
          "duration": 0.37109375,
          "durationTicks": 95,
          "midi": 45,
          "name": "A2",
          "ticks": 15504,
          "time": 60.5625,
          "velocity": 0.7795275590551181
        },
        {
          "duration": 0.37109375,
          "durationTicks": 95,
          "midi": 45,
          "name": "A2",
          "ticks": 15600,
          "time": 60.9375,
          "velocity": 0.7795275590551181
        },
        {
          "duration": 0.18359375,
          "durationTicks": 47,
          "midi": 45,
          "name": "A2",
          "ticks": 15696,
          "time": 61.3125,
          "velocity": 0.7795275590551181
        },
        {
          "duration": 0.55859375,
          "durationTicks": 143,
          "midi": 38,
          "name": "D2",
          "ticks": 15744,
          "time": 61.5,
          "velocity": 0.8267716535433071
        },
        {
          "duration": 0.37109375,
          "durationTicks": 95,
          "midi": 45,
          "name": "A2",
          "ticks": 15888,
          "time": 62.0625,
          "velocity": 0.7795275590551181
        },
        {
          "duration": 0.37109375,
          "durationTicks": 95,
          "midi": 45,
          "name": "A2",
          "ticks": 15984,
          "time": 62.4375,
          "velocity": 0.7795275590551181
        },
        {
          "duration": 0.18359375,
          "durationTicks": 47,
          "midi": 45,
          "name": "A2",
          "ticks": 16080,
          "time": 62.8125,
          "velocity": 0.7795275590551181
        },
        {
          "duration": 0.55859375,
          "durationTicks": 143,
          "midi": 38,
          "name": "D2",
          "ticks": 16128,
          "time": 63,
          "velocity": 0.8267716535433071
        },
        {
          "duration": 0.37109375,
          "durationTicks": 95,
          "midi": 45,
          "name": "A2",
          "ticks": 16272,
          "time": 63.5625,
          "velocity": 0.7795275590551181
        },
        {
          "duration": 0.37109375,
          "durationTicks": 95,
          "midi": 45,
          "name": "A2",
          "ticks": 16368,
          "time": 63.9375,
          "velocity": 0.7795275590551181
        },
        {
          "duration": 0.18359375,
          "durationTicks": 47,
          "midi": 45,
          "name": "A2",
          "ticks": 16464,
          "time": 64.3125,
          "velocity": 0.7795275590551181
        },
        {
          "duration": 0.55859375,
          "durationTicks": 143,
          "midi": 38,
          "name": "D2",
          "ticks": 16512,
          "time": 64.5,
          "velocity": 0.8267716535433071
        },
        {
          "duration": 0.37109375,
          "durationTicks": 95,
          "midi": 45,
          "name": "A2",
          "ticks": 16656,
          "time": 65.0625,
          "velocity": 0.7795275590551181
        },
        {
          "duration": 0.37109375,
          "durationTicks": 95,
          "midi": 45,
          "name": "A2",
          "ticks": 16752,
          "time": 65.4375,
          "velocity": 0.7795275590551181
        },
        {
          "duration": 0.18359375,
          "durationTicks": 47,
          "midi": 45,
          "name": "A2",
          "ticks": 16848,
          "time": 65.8125,
          "velocity": 0.7795275590551181
        },
        {
          "duration": 1.35546875,
          "durationTicks": 347,
          "midi": 43,
          "name": "G2",
          "ticks": 16896,
          "time": 66,
          "velocity": 0.6299212598425197
        },
        {
          "duration": 0.13671875,
          "durationTicks": 35,
          "midi": 43,
          "name": "G2",
          "ticks": 17244,
          "time": 67.359375,
          "velocity": 0.6299212598425197
        },
        {
          "duration": 1.35546875,
          "durationTicks": 347,
          "midi": 45,
          "name": "A2",
          "ticks": 17280,
          "time": 67.5,
          "velocity": 0.6299212598425197
        },
        {
          "duration": 0.13671875,
          "durationTicks": 35,
          "midi": 45,
          "name": "A2",
          "ticks": 17628,
          "time": 68.859375,
          "velocity": 0.6299212598425197
        },
        {
          "duration": 0.98046875,
          "durationTicks": 251,
          "midi": 46,
          "name": "A#2",
          "ticks": 17664,
          "time": 69,
          "velocity": 0.6299212598425197
        },
        {
          "duration": 0.51171875,
          "durationTicks": 131,
          "midi": 46,
          "name": "A#2",
          "ticks": 17916,
          "time": 69.984375,
          "velocity": 0.6299212598425197
        },
        {
          "duration": 0.37109375,
          "durationTicks": 95,
          "midi": 45,
          "name": "A2",
          "ticks": 18048,
          "time": 70.5,
          "velocity": 0.6299212598425197
        },
        {
          "duration": 0.37109375,
          "durationTicks": 95,
          "midi": 45,
          "name": "A2",
          "ticks": 18144,
          "time": 70.875,
          "velocity": 0.6299212598425197
        },
        {
          "duration": 0.23046875,
          "durationTicks": 59,
          "midi": 45,
          "name": "A2",
          "ticks": 18240,
          "time": 71.25,
          "velocity": 0.6299212598425197
        },
        {
          "duration": 0.37109375,
          "durationTicks": 95,
          "midi": 45,
          "name": "A2",
          "ticks": 18300,
          "time": 71.484375,
          "velocity": 0.6299212598425197
        },
        {
          "duration": 1.49609375,
          "durationTicks": 383,
          "midi": 43,
          "name": "G2",
          "ticks": 18396,
          "time": 71.859375,
          "velocity": 0.6299212598425197
        },
        {
          "duration": 0.13671875,
          "durationTicks": 35,
          "midi": 43,
          "name": "G2",
          "ticks": 18780,
          "time": 73.359375,
          "velocity": 0.6299212598425197
        },
        {
          "duration": 1.35546875,
          "durationTicks": 347,
          "midi": 45,
          "name": "A2",
          "ticks": 18816,
          "time": 73.5,
          "velocity": 0.6299212598425197
        },
        {
          "duration": 0.13671875,
          "durationTicks": 35,
          "midi": 45,
          "name": "A2",
          "ticks": 19164,
          "time": 74.859375,
          "velocity": 0.6299212598425197
        },
        {
          "duration": 0.98046875,
          "durationTicks": 251,
          "midi": 46,
          "name": "A#2",
          "ticks": 19200,
          "time": 75,
          "velocity": 0.6299212598425197
        },
        {
          "duration": 0.51171875,
          "durationTicks": 131,
          "midi": 46,
          "name": "A#2",
          "ticks": 19452,
          "time": 75.984375,
          "velocity": 0.6299212598425197
        },
        {
          "duration": 0.55859375,
          "durationTicks": 143,
          "midi": 38,
          "name": "D2",
          "ticks": 19968,
          "time": 78,
          "velocity": 0.8267716535433071
        },
        {
          "duration": 0.37109375,
          "durationTicks": 95,
          "midi": 45,
          "name": "A2",
          "ticks": 20112,
          "time": 78.5625,
          "velocity": 0.7795275590551181
        },
        {
          "duration": 0.37109375,
          "durationTicks": 95,
          "midi": 45,
          "name": "A2",
          "ticks": 20208,
          "time": 78.9375,
          "velocity": 0.7795275590551181
        },
        {
          "duration": 0.18359375,
          "durationTicks": 47,
          "midi": 45,
          "name": "A2",
          "ticks": 20304,
          "time": 79.3125,
          "velocity": 0.7795275590551181
        },
        {
          "duration": 0.55859375,
          "durationTicks": 143,
          "midi": 38,
          "name": "D2",
          "ticks": 20352,
          "time": 79.5,
          "velocity": 0.8267716535433071
        },
        {
          "duration": 0.37109375,
          "durationTicks": 95,
          "midi": 45,
          "name": "A2",
          "ticks": 20496,
          "time": 80.0625,
          "velocity": 0.7795275590551181
        },
        {
          "duration": 0.37109375,
          "durationTicks": 95,
          "midi": 45,
          "name": "A2",
          "ticks": 20592,
          "time": 80.4375,
          "velocity": 0.7795275590551181
        },
        {
          "duration": 0.18359375,
          "durationTicks": 47,
          "midi": 45,
          "name": "A2",
          "ticks": 20688,
          "time": 80.8125,
          "velocity": 0.7795275590551181
        },
        {
          "duration": 0.55859375,
          "durationTicks": 143,
          "midi": 38,
          "name": "D2",
          "ticks": 20736,
          "time": 81,
          "velocity": 0.8267716535433071
        },
        {
          "duration": 0.37109375,
          "durationTicks": 95,
          "midi": 45,
          "name": "A2",
          "ticks": 20880,
          "time": 81.5625,
          "velocity": 0.7795275590551181
        },
        {
          "duration": 0.37109375,
          "durationTicks": 95,
          "midi": 45,
          "name": "A2",
          "ticks": 20976,
          "time": 81.9375,
          "velocity": 0.7795275590551181
        },
        {
          "duration": 0.18359375,
          "durationTicks": 47,
          "midi": 45,
          "name": "A2",
          "ticks": 21072,
          "time": 82.3125,
          "velocity": 0.7795275590551181
        },
        {
          "duration": 0.55859375,
          "durationTicks": 143,
          "midi": 38,
          "name": "D2",
          "ticks": 21120,
          "time": 82.5,
          "velocity": 0.8267716535433071
        },
        {
          "duration": 0.37109375,
          "durationTicks": 95,
          "midi": 45,
          "name": "A2",
          "ticks": 21264,
          "time": 83.0625,
          "velocity": 0.7795275590551181
        },
        {
          "duration": 0.37109375,
          "durationTicks": 95,
          "midi": 45,
          "name": "A2",
          "ticks": 21360,
          "time": 83.4375,
          "velocity": 0.7795275590551181
        },
        {
          "duration": 0.18359375,
          "durationTicks": 47,
          "midi": 45,
          "name": "A2",
          "ticks": 21456,
          "time": 83.8125,
          "velocity": 0.7795275590551181
        },
        {
          "duration": 0.55859375,
          "durationTicks": 143,
          "midi": 38,
          "name": "D2",
          "ticks": 21504,
          "time": 84,
          "velocity": 0.8267716535433071
        },
        {
          "duration": 0.37109375,
          "durationTicks": 95,
          "midi": 45,
          "name": "A2",
          "ticks": 21648,
          "time": 84.5625,
          "velocity": 0.7795275590551181
        },
        {
          "duration": 0.37109375,
          "durationTicks": 95,
          "midi": 45,
          "name": "A2",
          "ticks": 21744,
          "time": 84.9375,
          "velocity": 0.7795275590551181
        },
        {
          "duration": 0.18359375,
          "durationTicks": 47,
          "midi": 45,
          "name": "A2",
          "ticks": 21840,
          "time": 85.3125,
          "velocity": 0.7795275590551181
        },
        {
          "duration": 0.55859375,
          "durationTicks": 143,
          "midi": 38,
          "name": "D2",
          "ticks": 21888,
          "time": 85.5,
          "velocity": 0.8267716535433071
        },
        {
          "duration": 0.37109375,
          "durationTicks": 95,
          "midi": 45,
          "name": "A2",
          "ticks": 22032,
          "time": 86.0625,
          "velocity": 0.7795275590551181
        },
        {
          "duration": 0.37109375,
          "durationTicks": 95,
          "midi": 45,
          "name": "A2",
          "ticks": 22128,
          "time": 86.4375,
          "velocity": 0.7795275590551181
        },
        {
          "duration": 0.18359375,
          "durationTicks": 47,
          "midi": 45,
          "name": "A2",
          "ticks": 22224,
          "time": 86.8125,
          "velocity": 0.7795275590551181
        },
        {
          "duration": 0.55859375,
          "durationTicks": 143,
          "midi": 38,
          "name": "D2",
          "ticks": 22272,
          "time": 87,
          "velocity": 0.8267716535433071
        },
        {
          "duration": 0.37109375,
          "durationTicks": 95,
          "midi": 45,
          "name": "A2",
          "ticks": 22416,
          "time": 87.5625,
          "velocity": 0.7795275590551181
        },
        {
          "duration": 0.37109375,
          "durationTicks": 95,
          "midi": 45,
          "name": "A2",
          "ticks": 22512,
          "time": 87.9375,
          "velocity": 0.7795275590551181
        },
        {
          "duration": 0.18359375,
          "durationTicks": 47,
          "midi": 45,
          "name": "A2",
          "ticks": 22608,
          "time": 88.3125,
          "velocity": 0.7795275590551181
        },
        {
          "duration": 0.55859375,
          "durationTicks": 143,
          "midi": 38,
          "name": "D2",
          "ticks": 22656,
          "time": 88.5,
          "velocity": 0.8267716535433071
        },
        {
          "duration": 0.37109375,
          "durationTicks": 95,
          "midi": 45,
          "name": "A2",
          "ticks": 22800,
          "time": 89.0625,
          "velocity": 0.7795275590551181
        },
        {
          "duration": 0.37109375,
          "durationTicks": 95,
          "midi": 45,
          "name": "A2",
          "ticks": 22896,
          "time": 89.4375,
          "velocity": 0.7795275590551181
        },
        {
          "duration": 0.18359375,
          "durationTicks": 47,
          "midi": 45,
          "name": "A2",
          "ticks": 22992,
          "time": 89.8125,
          "velocity": 0.7795275590551181
        },
        {
          "duration": 0.55859375,
          "durationTicks": 143,
          "midi": 38,
          "name": "D2",
          "ticks": 23040,
          "time": 90,
          "velocity": 0.8267716535433071
        },
        {
          "duration": 0.37109375,
          "durationTicks": 95,
          "midi": 45,
          "name": "A2",
          "ticks": 23184,
          "time": 90.5625,
          "velocity": 0.7795275590551181
        },
        {
          "duration": 0.37109375,
          "durationTicks": 95,
          "midi": 45,
          "name": "A2",
          "ticks": 23280,
          "time": 90.9375,
          "velocity": 0.7795275590551181
        },
        {
          "duration": 0.18359375,
          "durationTicks": 47,
          "midi": 45,
          "name": "A2",
          "ticks": 23376,
          "time": 91.3125,
          "velocity": 0.7795275590551181
        },
        {
          "duration": 0.55859375,
          "durationTicks": 143,
          "midi": 38,
          "name": "D2",
          "ticks": 23424,
          "time": 91.5,
          "velocity": 0.8267716535433071
        },
        {
          "duration": 0.37109375,
          "durationTicks": 95,
          "midi": 45,
          "name": "A2",
          "ticks": 23568,
          "time": 92.0625,
          "velocity": 0.7795275590551181
        },
        {
          "duration": 0.37109375,
          "durationTicks": 95,
          "midi": 45,
          "name": "A2",
          "ticks": 23664,
          "time": 92.4375,
          "velocity": 0.7795275590551181
        },
        {
          "duration": 0.18359375,
          "durationTicks": 47,
          "midi": 45,
          "name": "A2",
          "ticks": 23760,
          "time": 92.8125,
          "velocity": 0.7795275590551181
        },
        {
          "duration": 0.55859375,
          "durationTicks": 143,
          "midi": 38,
          "name": "D2",
          "ticks": 23808,
          "time": 93,
          "velocity": 0.8267716535433071
        },
        {
          "duration": 0.37109375,
          "durationTicks": 95,
          "midi": 45,
          "name": "A2",
          "ticks": 23952,
          "time": 93.5625,
          "velocity": 0.7795275590551181
        },
        {
          "duration": 0.37109375,
          "durationTicks": 95,
          "midi": 45,
          "name": "A2",
          "ticks": 24048,
          "time": 93.9375,
          "velocity": 0.7795275590551181
        },
        {
          "duration": 0.18359375,
          "durationTicks": 47,
          "midi": 45,
          "name": "A2",
          "ticks": 24144,
          "time": 94.3125,
          "velocity": 0.7795275590551181
        },
        {
          "duration": 0.55859375,
          "durationTicks": 143,
          "midi": 38,
          "name": "D2",
          "ticks": 24192,
          "time": 94.5,
          "velocity": 0.8267716535433071
        },
        {
          "duration": 0.37109375,
          "durationTicks": 95,
          "midi": 45,
          "name": "A2",
          "ticks": 24336,
          "time": 95.0625,
          "velocity": 0.7795275590551181
        },
        {
          "duration": 0.37109375,
          "durationTicks": 95,
          "midi": 45,
          "name": "A2",
          "ticks": 24432,
          "time": 95.4375,
          "velocity": 0.7795275590551181
        },
        {
          "duration": 0.18359375,
          "durationTicks": 47,
          "midi": 45,
          "name": "A2",
          "ticks": 24528,
          "time": 95.8125,
          "velocity": 0.7795275590551181
        },
        {
          "duration": 0.55859375,
          "durationTicks": 143,
          "midi": 38,
          "name": "D2",
          "ticks": 24576,
          "time": 96,
          "velocity": 0.8267716535433071
        },
        {
          "duration": 0.37109375,
          "durationTicks": 95,
          "midi": 45,
          "name": "A2",
          "ticks": 24720,
          "time": 96.5625,
          "velocity": 0.7795275590551181
        },
        {
          "duration": 0.37109375,
          "durationTicks": 95,
          "midi": 45,
          "name": "A2",
          "ticks": 24816,
          "time": 96.9375,
          "velocity": 0.7795275590551181
        },
        {
          "duration": 0.18359375,
          "durationTicks": 47,
          "midi": 45,
          "name": "A2",
          "ticks": 24912,
          "time": 97.3125,
          "velocity": 0.7795275590551181
        },
        {
          "duration": 0.55859375,
          "durationTicks": 143,
          "midi": 38,
          "name": "D2",
          "ticks": 24960,
          "time": 97.5,
          "velocity": 0.8267716535433071
        },
        {
          "duration": 0.37109375,
          "durationTicks": 95,
          "midi": 45,
          "name": "A2",
          "ticks": 25104,
          "time": 98.0625,
          "velocity": 0.7795275590551181
        },
        {
          "duration": 0.37109375,
          "durationTicks": 95,
          "midi": 45,
          "name": "A2",
          "ticks": 25200,
          "time": 98.4375,
          "velocity": 0.7795275590551181
        },
        {
          "duration": 0.18359375,
          "durationTicks": 47,
          "midi": 45,
          "name": "A2",
          "ticks": 25296,
          "time": 98.8125,
          "velocity": 0.7795275590551181
        },
        {
          "duration": 0.55859375,
          "durationTicks": 143,
          "midi": 38,
          "name": "D2",
          "ticks": 25344,
          "time": 99,
          "velocity": 0.8267716535433071
        },
        {
          "duration": 0.37109375,
          "durationTicks": 95,
          "midi": 45,
          "name": "A2",
          "ticks": 25488,
          "time": 99.5625,
          "velocity": 0.7795275590551181
        },
        {
          "duration": 0.37109375,
          "durationTicks": 95,
          "midi": 45,
          "name": "A2",
          "ticks": 25584,
          "time": 99.9375,
          "velocity": 0.7795275590551181
        },
        {
          "duration": 0.18359375,
          "durationTicks": 47,
          "midi": 45,
          "name": "A2",
          "ticks": 25680,
          "time": 100.3125,
          "velocity": 0.7795275590551181
        },
        {
          "duration": 0.55859375,
          "durationTicks": 143,
          "midi": 38,
          "name": "D2",
          "ticks": 25728,
          "time": 100.5,
          "velocity": 0.8267716535433071
        },
        {
          "duration": 0.37109375,
          "durationTicks": 95,
          "midi": 45,
          "name": "A2",
          "ticks": 25872,
          "time": 101.0625,
          "velocity": 0.7795275590551181
        },
        {
          "duration": 0.37109375,
          "durationTicks": 95,
          "midi": 45,
          "name": "A2",
          "ticks": 25968,
          "time": 101.4375,
          "velocity": 0.7795275590551181
        },
        {
          "duration": 0.18359375,
          "durationTicks": 47,
          "midi": 45,
          "name": "A2",
          "ticks": 26064,
          "time": 101.8125,
          "velocity": 0.7795275590551181
        },
        {
          "duration": 1.35546875,
          "durationTicks": 347,
          "midi": 43,
          "name": "G2",
          "ticks": 26112,
          "time": 102,
          "velocity": 0.6299212598425197
        },
        {
          "duration": 0.13671875,
          "durationTicks": 35,
          "midi": 43,
          "name": "G2",
          "ticks": 26460,
          "time": 103.359375,
          "velocity": 0.6299212598425197
        },
        {
          "duration": 1.35546875,
          "durationTicks": 347,
          "midi": 45,
          "name": "A2",
          "ticks": 26496,
          "time": 103.5,
          "velocity": 0.6299212598425197
        },
        {
          "duration": 0.13671875,
          "durationTicks": 35,
          "midi": 45,
          "name": "A2",
          "ticks": 26844,
          "time": 104.859375,
          "velocity": 0.6299212598425197
        },
        {
          "duration": 0.37109375,
          "durationTicks": 95,
          "midi": 48,
          "name": "C3",
          "ticks": 27264,
          "time": 106.5,
          "velocity": 0.6299212598425197
        },
        {
          "duration": 0.37109375,
          "durationTicks": 95,
          "midi": 46,
          "name": "A#2",
          "ticks": 27360,
          "time": 106.875,
          "velocity": 0.6299212598425197
        },
        {
          "duration": 0.37109375,
          "durationTicks": 95,
          "midi": 44,
          "name": "G#2",
          "ticks": 27456,
          "time": 107.25,
          "velocity": 0.6299212598425197
        },
        {
          "duration": 0.37109375,
          "durationTicks": 95,
          "midi": 42,
          "name": "F#2",
          "ticks": 27552,
          "time": 107.625,
          "velocity": 0.6299212598425197
        },
        {
          "duration": 0.37109375,
          "durationTicks": 95,
          "midi": 40,
          "name": "E2",
          "ticks": 27648,
          "time": 108,
          "velocity": 0.6299212598425197
        },
        {
          "duration": 0.37109375,
          "durationTicks": 95,
          "midi": 38,
          "name": "D2",
          "ticks": 27744,
          "time": 108.375,
          "velocity": 0.6299212598425197
        },
        {
          "duration": 0.37109375,
          "durationTicks": 95,
          "midi": 36,
          "name": "C2",
          "ticks": 27840,
          "time": 108.75,
          "velocity": 0.6299212598425197
        },
        {
          "duration": 1.12109375,
          "durationTicks": 287,
          "midi": 34,
          "name": "A#1",
          "ticks": 27936,
          "time": 109.125,
          "velocity": 0.6299212598425197
        }
      ]
    },
    {
      "channel": 0,
      "controlChanges": {},
      "instrument": {
        "family": "piano",
        "name": "acoustic grand piano",
        "number": 0
      },
      "name": "MIDI 05",
      "notes": [
        {
          "duration": 0.08984375,
          "durationTicks": 23,
          "midi": 51,
          "name": "D#3",
          "ticks": 6144,
          "time": 24,
          "velocity": 0.031496062992125984
        },
        {
          "duration": 0.08984375,
          "durationTicks": 23,
          "midi": 51,
          "name": "D#3",
          "ticks": 6168,
          "time": 24.09375,
          "velocity": 0.03937007874015748
        },
        {
          "duration": 0.08984375,
          "durationTicks": 23,
          "midi": 51,
          "name": "D#3",
          "ticks": 6192,
          "time": 24.1875,
          "velocity": 0.05511811023622047
        },
        {
          "duration": 0.08984375,
          "durationTicks": 23,
          "midi": 51,
          "name": "D#3",
          "ticks": 6216,
          "time": 24.28125,
          "velocity": 0.06299212598425197
        },
        {
          "duration": 0.08984375,
          "durationTicks": 23,
          "midi": 51,
          "name": "D#3",
          "ticks": 6240,
          "time": 24.375,
          "velocity": 0.07874015748031496
        },
        {
          "duration": 0.08984375,
          "durationTicks": 23,
          "midi": 51,
          "name": "D#3",
          "ticks": 6264,
          "time": 24.46875,
          "velocity": 0.08661417322834646
        },
        {
          "duration": 0.08984375,
          "durationTicks": 23,
          "midi": 51,
          "name": "D#3",
          "ticks": 6288,
          "time": 24.5625,
          "velocity": 0.10236220472440945
        },
        {
          "duration": 0.08984375,
          "durationTicks": 23,
          "midi": 51,
          "name": "D#3",
          "ticks": 6312,
          "time": 24.65625,
          "velocity": 0.11023622047244094
        },
        {
          "duration": 0.08984375,
          "durationTicks": 23,
          "midi": 51,
          "name": "D#3",
          "ticks": 6336,
          "time": 24.75,
          "velocity": 0.12598425196850394
        },
        {
          "duration": 0.08984375,
          "durationTicks": 23,
          "midi": 51,
          "name": "D#3",
          "ticks": 6360,
          "time": 24.84375,
          "velocity": 0.13385826771653545
        },
        {
          "duration": 0.08984375,
          "durationTicks": 23,
          "midi": 51,
          "name": "D#3",
          "ticks": 6384,
          "time": 24.9375,
          "velocity": 0.14173228346456693
        },
        {
          "duration": 0.08984375,
          "durationTicks": 23,
          "midi": 51,
          "name": "D#3",
          "ticks": 6408,
          "time": 25.03125,
          "velocity": 0.15748031496062992
        },
        {
          "duration": 0.08984375,
          "durationTicks": 23,
          "midi": 51,
          "name": "D#3",
          "ticks": 6432,
          "time": 25.125,
          "velocity": 0.16535433070866143
        },
        {
          "duration": 0.08984375,
          "durationTicks": 23,
          "midi": 51,
          "name": "D#3",
          "ticks": 6456,
          "time": 25.21875,
          "velocity": 0.18110236220472442
        },
        {
          "duration": 0.08984375,
          "durationTicks": 23,
          "midi": 51,
          "name": "D#3",
          "ticks": 6480,
          "time": 25.3125,
          "velocity": 0.1889763779527559
        },
        {
          "duration": 0.08984375,
          "durationTicks": 23,
          "midi": 51,
          "name": "D#3",
          "ticks": 6504,
          "time": 25.40625,
          "velocity": 0.2125984251968504
        },
        {
          "duration": 0.08984375,
          "durationTicks": 23,
          "midi": 51,
          "name": "D#3",
          "ticks": 6528,
          "time": 25.5,
          "velocity": 0.2283464566929134
        },
        {
          "duration": 0.08984375,
          "durationTicks": 23,
          "midi": 51,
          "name": "D#3",
          "ticks": 6552,
          "time": 25.59375,
          "velocity": 0.23622047244094488
        },
        {
          "duration": 0.08984375,
          "durationTicks": 23,
          "midi": 51,
          "name": "D#3",
          "ticks": 6576,
          "time": 25.6875,
          "velocity": 0.25196850393700787
        },
        {
          "duration": 0.08984375,
          "durationTicks": 23,
          "midi": 51,
          "name": "D#3",
          "ticks": 6600,
          "time": 25.78125,
          "velocity": 0.25984251968503935
        },
        {
          "duration": 0.08984375,
          "durationTicks": 23,
          "midi": 51,
          "name": "D#3",
          "ticks": 6624,
          "time": 25.875,
          "velocity": 0.2755905511811024
        },
        {
          "duration": 0.08984375,
          "durationTicks": 23,
          "midi": 51,
          "name": "D#3",
          "ticks": 6648,
          "time": 25.96875,
          "velocity": 0.28346456692913385
        },
        {
          "duration": 0.08984375,
          "durationTicks": 23,
          "midi": 51,
          "name": "D#3",
          "ticks": 6672,
          "time": 26.0625,
          "velocity": 0.29133858267716534
        },
        {
          "duration": 0.08984375,
          "durationTicks": 23,
          "midi": 51,
          "name": "D#3",
          "ticks": 6696,
          "time": 26.15625,
          "velocity": 0.30708661417322836
        },
        {
          "duration": 0.08984375,
          "durationTicks": 23,
          "midi": 51,
          "name": "D#3",
          "ticks": 6720,
          "time": 26.25,
          "velocity": 0.31496062992125984
        },
        {
          "duration": 0.08984375,
          "durationTicks": 23,
          "midi": 51,
          "name": "D#3",
          "ticks": 6744,
          "time": 26.34375,
          "velocity": 0.33070866141732286
        },
        {
          "duration": 0.08984375,
          "durationTicks": 23,
          "midi": 51,
          "name": "D#3",
          "ticks": 6768,
          "time": 26.4375,
          "velocity": 0.33858267716535434
        },
        {
          "duration": 0.08984375,
          "durationTicks": 23,
          "midi": 51,
          "name": "D#3",
          "ticks": 6792,
          "time": 26.53125,
          "velocity": 0.3543307086614173
        },
        {
          "duration": 0.08984375,
          "durationTicks": 23,
          "midi": 51,
          "name": "D#3",
          "ticks": 6816,
          "time": 26.625,
          "velocity": 0.36220472440944884
        },
        {
          "duration": 0.08984375,
          "durationTicks": 23,
          "midi": 51,
          "name": "D#3",
          "ticks": 6840,
          "time": 26.71875,
          "velocity": 0.3779527559055118
        },
        {
          "duration": 0.08984375,
          "durationTicks": 23,
          "midi": 51,
          "name": "D#3",
          "ticks": 6864,
          "time": 26.8125,
          "velocity": 0.3858267716535433
        },
        {
          "duration": 0.08984375,
          "durationTicks": 23,
          "midi": 51,
          "name": "D#3",
          "ticks": 6888,
          "time": 26.90625,
          "velocity": 0.4015748031496063
        },
        {
          "duration": 0.08984375,
          "durationTicks": 23,
          "midi": 51,
          "name": "D#3",
          "ticks": 6912,
          "time": 27,
          "velocity": 0.4251968503937008
        },
        {
          "duration": 0.08984375,
          "durationTicks": 23,
          "midi": 51,
          "name": "D#3",
          "ticks": 6936,
          "time": 27.09375,
          "velocity": 0.4330708661417323
        },
        {
          "duration": 0.08984375,
          "durationTicks": 23,
          "midi": 51,
          "name": "D#3",
          "ticks": 6960,
          "time": 27.1875,
          "velocity": 0.4409448818897638
        },
        {
          "duration": 0.08984375,
          "durationTicks": 23,
          "midi": 51,
          "name": "D#3",
          "ticks": 6984,
          "time": 27.28125,
          "velocity": 0.4566929133858268
        },
        {
          "duration": 0.08984375,
          "durationTicks": 23,
          "midi": 51,
          "name": "D#3",
          "ticks": 7008,
          "time": 27.375,
          "velocity": 0.4645669291338583
        },
        {
          "duration": 0.08984375,
          "durationTicks": 23,
          "midi": 51,
          "name": "D#3",
          "ticks": 7032,
          "time": 27.46875,
          "velocity": 0.48031496062992124
        },
        {
          "duration": 0.08984375,
          "durationTicks": 23,
          "midi": 51,
          "name": "D#3",
          "ticks": 7056,
          "time": 27.5625,
          "velocity": 0.4881889763779528
        },
        {
          "duration": 0.08984375,
          "durationTicks": 23,
          "midi": 51,
          "name": "D#3",
          "ticks": 7080,
          "time": 27.65625,
          "velocity": 0.5039370078740157
        },
        {
          "duration": 0.08984375,
          "durationTicks": 23,
          "midi": 51,
          "name": "D#3",
          "ticks": 7104,
          "time": 27.75,
          "velocity": 0.5118110236220472
        },
        {
          "duration": 0.08984375,
          "durationTicks": 23,
          "midi": 51,
          "name": "D#3",
          "ticks": 7128,
          "time": 27.84375,
          "velocity": 0.5275590551181102
        },
        {
          "duration": 0.08984375,
          "durationTicks": 23,
          "midi": 51,
          "name": "D#3",
          "ticks": 7152,
          "time": 27.9375,
          "velocity": 0.5354330708661418
        },
        {
          "duration": 0.08984375,
          "durationTicks": 23,
          "midi": 51,
          "name": "D#3",
          "ticks": 7176,
          "time": 28.03125,
          "velocity": 0.5511811023622047
        },
        {
          "duration": 0.08984375,
          "durationTicks": 23,
          "midi": 51,
          "name": "D#3",
          "ticks": 7200,
          "time": 28.125,
          "velocity": 0.5590551181102362
        },
        {
          "duration": 0.08984375,
          "durationTicks": 23,
          "midi": 51,
          "name": "D#3",
          "ticks": 7224,
          "time": 28.21875,
          "velocity": 0.5669291338582677
        },
        {
          "duration": 0.08984375,
          "durationTicks": 23,
          "midi": 51,
          "name": "D#3",
          "ticks": 7248,
          "time": 28.3125,
          "velocity": 0.5826771653543307
        },
        {
          "duration": 0.08984375,
          "durationTicks": 23,
          "midi": 51,
          "name": "D#3",
          "ticks": 7272,
          "time": 28.40625,
          "velocity": 0.5905511811023622
        },
        {
          "duration": 0.08984375,
          "durationTicks": 23,
          "midi": 51,
          "name": "D#3",
          "ticks": 7296,
          "time": 28.5,
          "velocity": 0.6062992125984252
        },
        {
          "duration": 0.08984375,
          "durationTicks": 23,
          "midi": 42,
          "name": "F#2",
          "ticks": 7536,
          "time": 29.4375,
          "velocity": 0.5511811023622047
        },
        {
          "duration": 0.08984375,
          "durationTicks": 23,
          "midi": 42,
          "name": "F#2",
          "ticks": 7560,
          "time": 29.53125,
          "velocity": 0.5669291338582677
        },
        {
          "duration": 0.08984375,
          "durationTicks": 23,
          "midi": 37,
          "name": "C#2",
          "ticks": 7584,
          "time": 29.625,
          "velocity": 0.6299212598425197
        },
        {
          "duration": 0.18359375,
          "durationTicks": 47,
          "midi": 44,
          "name": "G#2",
          "ticks": 7680,
          "time": 30,
          "velocity": 0.7401574803149606
        },
        {
          "duration": 0.18359375,
          "durationTicks": 47,
          "midi": 44,
          "name": "G#2",
          "ticks": 7728,
          "time": 30.1875,
          "velocity": 0.5039370078740157
        },
        {
          "duration": 0.18359375,
          "durationTicks": 47,
          "midi": 44,
          "name": "G#2",
          "ticks": 7776,
          "time": 30.375,
          "velocity": 0.36220472440944884
        },
        {
          "duration": 0.18359375,
          "durationTicks": 47,
          "midi": 44,
          "name": "G#2",
          "ticks": 7824,
          "time": 30.5625,
          "velocity": 0.7007874015748031
        },
        {
          "duration": 0.18359375,
          "durationTicks": 47,
          "midi": 44,
          "name": "G#2",
          "ticks": 7872,
          "time": 30.75,
          "velocity": 0.48031496062992124
        },
        {
          "duration": 0.18359375,
          "durationTicks": 47,
          "midi": 44,
          "name": "G#2",
          "ticks": 7920,
          "time": 30.9375,
          "velocity": 0.36220472440944884
        },
        {
          "duration": 0.18359375,
          "durationTicks": 47,
          "midi": 46,
          "name": "A#2",
          "ticks": 7968,
          "time": 31.125,
          "velocity": 0.6062992125984252
        },
        {
          "duration": 0.18359375,
          "durationTicks": 47,
          "midi": 42,
          "name": "F#2",
          "ticks": 8016,
          "time": 31.3125,
          "velocity": 0.4251968503937008
        },
        {
          "duration": 0.18359375,
          "durationTicks": 47,
          "midi": 44,
          "name": "G#2",
          "ticks": 8064,
          "time": 31.5,
          "velocity": 0.7086614173228346
        },
        {
          "duration": 0.08984375,
          "durationTicks": 23,
          "midi": 44,
          "name": "G#2",
          "ticks": 8112,
          "time": 31.6875,
          "velocity": 0.6299212598425197
        },
        {
          "duration": 0.08984375,
          "durationTicks": 23,
          "midi": 44,
          "name": "G#2",
          "ticks": 8136,
          "time": 31.78125,
          "velocity": 0.6299212598425197
        },
        {
          "duration": 0.18359375,
          "durationTicks": 47,
          "midi": 44,
          "name": "G#2",
          "ticks": 8160,
          "time": 31.875,
          "velocity": 0.5354330708661418
        },
        {
          "duration": 0.18359375,
          "durationTicks": 47,
          "midi": 46,
          "name": "A#2",
          "ticks": 8208,
          "time": 32.0625,
          "velocity": 0.7007874015748031
        },
        {
          "duration": 0.18359375,
          "durationTicks": 47,
          "midi": 42,
          "name": "F#2",
          "ticks": 8256,
          "time": 32.25,
          "velocity": 0.5039370078740157
        },
        {
          "duration": 0.18359375,
          "durationTicks": 47,
          "midi": 44,
          "name": "G#2",
          "ticks": 8304,
          "time": 32.4375,
          "velocity": 0.6535433070866141
        },
        {
          "duration": 0.18359375,
          "durationTicks": 47,
          "midi": 46,
          "name": "A#2",
          "ticks": 8352,
          "time": 32.625,
          "velocity": 0.4409448818897638
        },
        {
          "duration": 0.18359375,
          "durationTicks": 47,
          "midi": 44,
          "name": "G#2",
          "ticks": 8400,
          "time": 32.8125,
          "velocity": 0.5118110236220472
        },
        {
          "duration": 0.18359375,
          "durationTicks": 47,
          "midi": 44,
          "name": "G#2",
          "ticks": 8448,
          "time": 33,
          "velocity": 0.7401574803149606
        },
        {
          "duration": 0.18359375,
          "durationTicks": 47,
          "midi": 44,
          "name": "G#2",
          "ticks": 8496,
          "time": 33.1875,
          "velocity": 0.5039370078740157
        },
        {
          "duration": 0.18359375,
          "durationTicks": 47,
          "midi": 44,
          "name": "G#2",
          "ticks": 8544,
          "time": 33.375,
          "velocity": 0.36220472440944884
        },
        {
          "duration": 0.18359375,
          "durationTicks": 47,
          "midi": 44,
          "name": "G#2",
          "ticks": 8592,
          "time": 33.5625,
          "velocity": 0.7007874015748031
        },
        {
          "duration": 0.18359375,
          "durationTicks": 47,
          "midi": 44,
          "name": "G#2",
          "ticks": 8640,
          "time": 33.75,
          "velocity": 0.48031496062992124
        },
        {
          "duration": 0.18359375,
          "durationTicks": 47,
          "midi": 44,
          "name": "G#2",
          "ticks": 8688,
          "time": 33.9375,
          "velocity": 0.36220472440944884
        },
        {
          "duration": 0.18359375,
          "durationTicks": 47,
          "midi": 46,
          "name": "A#2",
          "ticks": 8736,
          "time": 34.125,
          "velocity": 0.6062992125984252
        },
        {
          "duration": 0.18359375,
          "durationTicks": 47,
          "midi": 42,
          "name": "F#2",
          "ticks": 8784,
          "time": 34.3125,
          "velocity": 0.4251968503937008
        },
        {
          "duration": 0.18359375,
          "durationTicks": 47,
          "midi": 44,
          "name": "G#2",
          "ticks": 8832,
          "time": 34.5,
          "velocity": 0.7086614173228346
        },
        {
          "duration": 0.08984375,
          "durationTicks": 23,
          "midi": 44,
          "name": "G#2",
          "ticks": 8880,
          "time": 34.6875,
          "velocity": 0.6299212598425197
        },
        {
          "duration": 0.08984375,
          "durationTicks": 23,
          "midi": 44,
          "name": "G#2",
          "ticks": 8904,
          "time": 34.78125,
          "velocity": 0.6535433070866141
        },
        {
          "duration": 0.18359375,
          "durationTicks": 47,
          "midi": 44,
          "name": "G#2",
          "ticks": 8928,
          "time": 34.875,
          "velocity": 0.5354330708661418
        },
        {
          "duration": 0.18359375,
          "durationTicks": 47,
          "midi": 46,
          "name": "A#2",
          "ticks": 8976,
          "time": 35.0625,
          "velocity": 0.7007874015748031
        },
        {
          "duration": 0.08984375,
          "durationTicks": 23,
          "midi": 44,
          "name": "G#2",
          "ticks": 9024,
          "time": 35.25,
          "velocity": 0.6299212598425197
        },
        {
          "duration": 0.08984375,
          "durationTicks": 23,
          "midi": 44,
          "name": "G#2",
          "ticks": 9048,
          "time": 35.34375,
          "velocity": 0.6299212598425197
        },
        {
          "duration": 0.18359375,
          "durationTicks": 47,
          "midi": 44,
          "name": "G#2",
          "ticks": 9072,
          "time": 35.4375,
          "velocity": 0.6535433070866141
        },
        {
          "duration": 0.18359375,
          "durationTicks": 47,
          "midi": 46,
          "name": "A#2",
          "ticks": 9120,
          "time": 35.625,
          "velocity": 0.4409448818897638
        },
        {
          "duration": 0.08984375,
          "durationTicks": 23,
          "midi": 44,
          "name": "G#2",
          "ticks": 9168,
          "time": 35.8125,
          "velocity": 0.4881889763779528
        },
        {
          "duration": 0.08984375,
          "durationTicks": 23,
          "midi": 44,
          "name": "G#2",
          "ticks": 9192,
          "time": 35.90625,
          "velocity": 0.7007874015748031
        },
        {
          "duration": 0.18359375,
          "durationTicks": 47,
          "midi": 44,
          "name": "G#2",
          "ticks": 9216,
          "time": 36,
          "velocity": 0.7401574803149606
        },
        {
          "duration": 0.18359375,
          "durationTicks": 47,
          "midi": 44,
          "name": "G#2",
          "ticks": 9264,
          "time": 36.1875,
          "velocity": 0.5039370078740157
        },
        {
          "duration": 0.18359375,
          "durationTicks": 47,
          "midi": 44,
          "name": "G#2",
          "ticks": 9312,
          "time": 36.375,
          "velocity": 0.36220472440944884
        },
        {
          "duration": 0.18359375,
          "durationTicks": 47,
          "midi": 44,
          "name": "G#2",
          "ticks": 9360,
          "time": 36.5625,
          "velocity": 0.7007874015748031
        },
        {
          "duration": 0.18359375,
          "durationTicks": 47,
          "midi": 44,
          "name": "G#2",
          "ticks": 9408,
          "time": 36.75,
          "velocity": 0.48031496062992124
        },
        {
          "duration": 0.18359375,
          "durationTicks": 47,
          "midi": 44,
          "name": "G#2",
          "ticks": 9456,
          "time": 36.9375,
          "velocity": 0.36220472440944884
        },
        {
          "duration": 0.18359375,
          "durationTicks": 47,
          "midi": 46,
          "name": "A#2",
          "ticks": 9504,
          "time": 37.125,
          "velocity": 0.6062992125984252
        },
        {
          "duration": 0.18359375,
          "durationTicks": 47,
          "midi": 42,
          "name": "F#2",
          "ticks": 9552,
          "time": 37.3125,
          "velocity": 0.4251968503937008
        },
        {
          "duration": 0.18359375,
          "durationTicks": 47,
          "midi": 44,
          "name": "G#2",
          "ticks": 9600,
          "time": 37.5,
          "velocity": 0.7086614173228346
        },
        {
          "duration": 0.08984375,
          "durationTicks": 23,
          "midi": 44,
          "name": "G#2",
          "ticks": 9648,
          "time": 37.6875,
          "velocity": 0.6299212598425197
        },
        {
          "duration": 0.08984375,
          "durationTicks": 23,
          "midi": 44,
          "name": "G#2",
          "ticks": 9672,
          "time": 37.78125,
          "velocity": 0.6299212598425197
        },
        {
          "duration": 0.18359375,
          "durationTicks": 47,
          "midi": 44,
          "name": "G#2",
          "ticks": 9696,
          "time": 37.875,
          "velocity": 0.5354330708661418
        },
        {
          "duration": 0.18359375,
          "durationTicks": 47,
          "midi": 46,
          "name": "A#2",
          "ticks": 9744,
          "time": 38.0625,
          "velocity": 0.7007874015748031
        },
        {
          "duration": 0.18359375,
          "durationTicks": 47,
          "midi": 42,
          "name": "F#2",
          "ticks": 9792,
          "time": 38.25,
          "velocity": 0.5039370078740157
        },
        {
          "duration": 0.18359375,
          "durationTicks": 47,
          "midi": 44,
          "name": "G#2",
          "ticks": 9840,
          "time": 38.4375,
          "velocity": 0.6535433070866141
        },
        {
          "duration": 0.18359375,
          "durationTicks": 47,
          "midi": 46,
          "name": "A#2",
          "ticks": 9888,
          "time": 38.625,
          "velocity": 0.4409448818897638
        },
        {
          "duration": 0.18359375,
          "durationTicks": 47,
          "midi": 44,
          "name": "G#2",
          "ticks": 9936,
          "time": 38.8125,
          "velocity": 0.5118110236220472
        },
        {
          "duration": 0.18359375,
          "durationTicks": 47,
          "midi": 44,
          "name": "G#2",
          "ticks": 9984,
          "time": 39,
          "velocity": 0.7401574803149606
        },
        {
          "duration": 0.18359375,
          "durationTicks": 47,
          "midi": 44,
          "name": "G#2",
          "ticks": 10032,
          "time": 39.1875,
          "velocity": 0.5039370078740157
        },
        {
          "duration": 0.18359375,
          "durationTicks": 47,
          "midi": 44,
          "name": "G#2",
          "ticks": 10080,
          "time": 39.375,
          "velocity": 0.36220472440944884
        },
        {
          "duration": 0.18359375,
          "durationTicks": 47,
          "midi": 44,
          "name": "G#2",
          "ticks": 10128,
          "time": 39.5625,
          "velocity": 0.7007874015748031
        },
        {
          "duration": 0.18359375,
          "durationTicks": 47,
          "midi": 44,
          "name": "G#2",
          "ticks": 10176,
          "time": 39.75,
          "velocity": 0.48031496062992124
        },
        {
          "duration": 0.18359375,
          "durationTicks": 47,
          "midi": 44,
          "name": "G#2",
          "ticks": 10224,
          "time": 39.9375,
          "velocity": 0.36220472440944884
        },
        {
          "duration": 0.18359375,
          "durationTicks": 47,
          "midi": 46,
          "name": "A#2",
          "ticks": 10272,
          "time": 40.125,
          "velocity": 0.6062992125984252
        },
        {
          "duration": 0.18359375,
          "durationTicks": 47,
          "midi": 42,
          "name": "F#2",
          "ticks": 10320,
          "time": 40.3125,
          "velocity": 0.4251968503937008
        },
        {
          "duration": 0.18359375,
          "durationTicks": 47,
          "midi": 44,
          "name": "G#2",
          "ticks": 10368,
          "time": 40.5,
          "velocity": 0.7086614173228346
        },
        {
          "duration": 0.08984375,
          "durationTicks": 23,
          "midi": 44,
          "name": "G#2",
          "ticks": 10416,
          "time": 40.6875,
          "velocity": 0.6299212598425197
        },
        {
          "duration": 0.08984375,
          "durationTicks": 23,
          "midi": 44,
          "name": "G#2",
          "ticks": 10440,
          "time": 40.78125,
          "velocity": 0.6535433070866141
        },
        {
          "duration": 0.18359375,
          "durationTicks": 47,
          "midi": 44,
          "name": "G#2",
          "ticks": 10464,
          "time": 40.875,
          "velocity": 0.5354330708661418
        },
        {
          "duration": 0.18359375,
          "durationTicks": 47,
          "midi": 46,
          "name": "A#2",
          "ticks": 10512,
          "time": 41.0625,
          "velocity": 0.7007874015748031
        },
        {
          "duration": 0.08984375,
          "durationTicks": 23,
          "midi": 44,
          "name": "G#2",
          "ticks": 10560,
          "time": 41.25,
          "velocity": 0.6299212598425197
        },
        {
          "duration": 0.08984375,
          "durationTicks": 23,
          "midi": 44,
          "name": "G#2",
          "ticks": 10584,
          "time": 41.34375,
          "velocity": 0.6299212598425197
        },
        {
          "duration": 0.18359375,
          "durationTicks": 47,
          "midi": 44,
          "name": "G#2",
          "ticks": 10608,
          "time": 41.4375,
          "velocity": 0.6535433070866141
        },
        {
          "duration": 0.08984375,
          "durationTicks": 23,
          "midi": 46,
          "name": "A#2",
          "ticks": 10656,
          "time": 41.625,
          "velocity": 0.6299212598425197
        },
        {
          "duration": 0.08984375,
          "durationTicks": 23,
          "midi": 42,
          "name": "F#2",
          "ticks": 10680,
          "time": 41.71875,
          "velocity": 0.6299212598425197
        },
        {
          "duration": 0.08984375,
          "durationTicks": 23,
          "midi": 44,
          "name": "G#2",
          "ticks": 10704,
          "time": 41.8125,
          "velocity": 0.4881889763779528
        },
        {
          "duration": 0.08984375,
          "durationTicks": 23,
          "midi": 44,
          "name": "G#2",
          "ticks": 10728,
          "time": 41.90625,
          "velocity": 0.7007874015748031
        },
        {
          "duration": 0.23046875,
          "durationTicks": 59,
          "midi": 44,
          "name": "G#2",
          "ticks": 10752,
          "time": 42,
          "velocity": 0.6299212598425197
        },
        {
          "duration": 0.23046875,
          "durationTicks": 59,
          "midi": 36,
          "name": "C2",
          "ticks": 10752,
          "time": 42,
          "velocity": 0.6299212598425197
        },
        {
          "duration": 0.23046875,
          "durationTicks": 59,
          "midi": 46,
          "name": "A#2",
          "ticks": 10848,
          "time": 42.375,
          "velocity": 0.6299212598425197
        },
        {
          "duration": 0.13671875,
          "durationTicks": 35,
          "midi": 44,
          "name": "G#2",
          "ticks": 10908,
          "time": 42.609375,
          "velocity": 0.6299212598425197
        },
        {
          "duration": 0.23046875,
          "durationTicks": 59,
          "midi": 42,
          "name": "F#2",
          "ticks": 10944,
          "time": 42.75,
          "velocity": 0.6299212598425197
        },
        {
          "duration": 0.23046875,
          "durationTicks": 59,
          "midi": 37,
          "name": "C#2",
          "ticks": 10944,
          "time": 42.75,
          "velocity": 0.6299212598425197
        },
        {
          "duration": 0.23046875,
          "durationTicks": 59,
          "midi": 46,
          "name": "A#2",
          "ticks": 11040,
          "time": 43.125,
          "velocity": 0.6299212598425197
        },
        {
          "duration": 0.13671875,
          "durationTicks": 35,
          "midi": 44,
          "name": "G#2",
          "ticks": 11100,
          "time": 43.359375,
          "velocity": 0.6299212598425197
        },
        {
          "duration": 0.23046875,
          "durationTicks": 59,
          "midi": 44,
          "name": "G#2",
          "ticks": 11136,
          "time": 43.5,
          "velocity": 0.6299212598425197
        },
        {
          "duration": 0.23046875,
          "durationTicks": 59,
          "midi": 36,
          "name": "C2",
          "ticks": 11136,
          "time": 43.5,
          "velocity": 0.6299212598425197
        },
        {
          "duration": 0.23046875,
          "durationTicks": 59,
          "midi": 46,
          "name": "A#2",
          "ticks": 11232,
          "time": 43.875,
          "velocity": 0.6299212598425197
        },
        {
          "duration": 0.13671875,
          "durationTicks": 35,
          "midi": 44,
          "name": "G#2",
          "ticks": 11292,
          "time": 44.109375,
          "velocity": 0.6299212598425197
        },
        {
          "duration": 0.23046875,
          "durationTicks": 59,
          "midi": 42,
          "name": "F#2",
          "ticks": 11328,
          "time": 44.25,
          "velocity": 0.6299212598425197
        },
        {
          "duration": 0.23046875,
          "durationTicks": 59,
          "midi": 37,
          "name": "C#2",
          "ticks": 11328,
          "time": 44.25,
          "velocity": 0.6299212598425197
        },
        {
          "duration": 0.23046875,
          "durationTicks": 59,
          "midi": 46,
          "name": "A#2",
          "ticks": 11424,
          "time": 44.625,
          "velocity": 0.6299212598425197
        },
        {
          "duration": 0.13671875,
          "durationTicks": 35,
          "midi": 44,
          "name": "G#2",
          "ticks": 11484,
          "time": 44.859375,
          "velocity": 0.6299212598425197
        },
        {
          "duration": 0.23046875,
          "durationTicks": 59,
          "midi": 44,
          "name": "G#2",
          "ticks": 11520,
          "time": 45,
          "velocity": 0.6299212598425197
        },
        {
          "duration": 0.23046875,
          "durationTicks": 59,
          "midi": 36,
          "name": "C2",
          "ticks": 11520,
          "time": 45,
          "velocity": 0.6299212598425197
        },
        {
          "duration": 0.23046875,
          "durationTicks": 59,
          "midi": 46,
          "name": "A#2",
          "ticks": 11616,
          "time": 45.375,
          "velocity": 0.6299212598425197
        },
        {
          "duration": 0.13671875,
          "durationTicks": 35,
          "midi": 44,
          "name": "G#2",
          "ticks": 11676,
          "time": 45.609375,
          "velocity": 0.6299212598425197
        },
        {
          "duration": 0.23046875,
          "durationTicks": 59,
          "midi": 42,
          "name": "F#2",
          "ticks": 11712,
          "time": 45.75,
          "velocity": 0.6299212598425197
        },
        {
          "duration": 0.23046875,
          "durationTicks": 59,
          "midi": 37,
          "name": "C#2",
          "ticks": 11712,
          "time": 45.75,
          "velocity": 0.6299212598425197
        },
        {
          "duration": 0.23046875,
          "durationTicks": 59,
          "midi": 46,
          "name": "A#2",
          "ticks": 11808,
          "time": 46.125,
          "velocity": 0.6299212598425197
        },
        {
          "duration": 0.13671875,
          "durationTicks": 35,
          "midi": 44,
          "name": "G#2",
          "ticks": 11868,
          "time": 46.359375,
          "velocity": 0.6299212598425197
        },
        {
          "duration": 0.23046875,
          "durationTicks": 59,
          "midi": 38,
          "name": "D2",
          "ticks": 11904,
          "time": 46.5,
          "velocity": 0.6299212598425197
        },
        {
          "duration": 0.23046875,
          "durationTicks": 59,
          "midi": 38,
          "name": "D2",
          "ticks": 12000,
          "time": 46.875,
          "velocity": 0.6299212598425197
        },
        {
          "duration": 0.23046875,
          "durationTicks": 59,
          "midi": 38,
          "name": "D2",
          "ticks": 12096,
          "time": 47.25,
          "velocity": 0.6299212598425197
        },
        {
          "duration": 0.13671875,
          "durationTicks": 35,
          "midi": 38,
          "name": "D2",
          "ticks": 12156,
          "time": 47.484375,
          "velocity": 0.6299212598425197
        },
        {
          "duration": 0.23046875,
          "durationTicks": 59,
          "midi": 44,
          "name": "G#2",
          "ticks": 12288,
          "time": 48,
          "velocity": 0.6299212598425197
        },
        {
          "duration": 0.23046875,
          "durationTicks": 59,
          "midi": 36,
          "name": "C2",
          "ticks": 12288,
          "time": 48,
          "velocity": 0.6299212598425197
        },
        {
          "duration": 0.23046875,
          "durationTicks": 59,
          "midi": 46,
          "name": "A#2",
          "ticks": 12384,
          "time": 48.375,
          "velocity": 0.6299212598425197
        },
        {
          "duration": 0.13671875,
          "durationTicks": 35,
          "midi": 44,
          "name": "G#2",
          "ticks": 12444,
          "time": 48.609375,
          "velocity": 0.6299212598425197
        },
        {
          "duration": 0.23046875,
          "durationTicks": 59,
          "midi": 42,
          "name": "F#2",
          "ticks": 12480,
          "time": 48.75,
          "velocity": 0.6299212598425197
        },
        {
          "duration": 0.23046875,
          "durationTicks": 59,
          "midi": 37,
          "name": "C#2",
          "ticks": 12480,
          "time": 48.75,
          "velocity": 0.6299212598425197
        },
        {
          "duration": 0.23046875,
          "durationTicks": 59,
          "midi": 46,
          "name": "A#2",
          "ticks": 12576,
          "time": 49.125,
          "velocity": 0.6299212598425197
        },
        {
          "duration": 0.13671875,
          "durationTicks": 35,
          "midi": 44,
          "name": "G#2",
          "ticks": 12636,
          "time": 49.359375,
          "velocity": 0.6299212598425197
        },
        {
          "duration": 0.23046875,
          "durationTicks": 59,
          "midi": 44,
          "name": "G#2",
          "ticks": 12672,
          "time": 49.5,
          "velocity": 0.6299212598425197
        },
        {
          "duration": 0.23046875,
          "durationTicks": 59,
          "midi": 36,
          "name": "C2",
          "ticks": 12672,
          "time": 49.5,
          "velocity": 0.6299212598425197
        },
        {
          "duration": 0.23046875,
          "durationTicks": 59,
          "midi": 46,
          "name": "A#2",
          "ticks": 12768,
          "time": 49.875,
          "velocity": 0.6299212598425197
        },
        {
          "duration": 0.13671875,
          "durationTicks": 35,
          "midi": 44,
          "name": "G#2",
          "ticks": 12828,
          "time": 50.109375,
          "velocity": 0.6299212598425197
        },
        {
          "duration": 0.23046875,
          "durationTicks": 59,
          "midi": 42,
          "name": "F#2",
          "ticks": 12864,
          "time": 50.25,
          "velocity": 0.6299212598425197
        },
        {
          "duration": 0.23046875,
          "durationTicks": 59,
          "midi": 37,
          "name": "C#2",
          "ticks": 12864,
          "time": 50.25,
          "velocity": 0.6299212598425197
        },
        {
          "duration": 0.23046875,
          "durationTicks": 59,
          "midi": 46,
          "name": "A#2",
          "ticks": 12960,
          "time": 50.625,
          "velocity": 0.6299212598425197
        },
        {
          "duration": 0.13671875,
          "durationTicks": 35,
          "midi": 44,
          "name": "G#2",
          "ticks": 13020,
          "time": 50.859375,
          "velocity": 0.6299212598425197
        },
        {
          "duration": 0.23046875,
          "durationTicks": 59,
          "midi": 44,
          "name": "G#2",
          "ticks": 13056,
          "time": 51,
          "velocity": 0.6299212598425197
        },
        {
          "duration": 0.23046875,
          "durationTicks": 59,
          "midi": 36,
          "name": "C2",
          "ticks": 13056,
          "time": 51,
          "velocity": 0.6299212598425197
        },
        {
          "duration": 0.23046875,
          "durationTicks": 59,
          "midi": 46,
          "name": "A#2",
          "ticks": 13152,
          "time": 51.375,
          "velocity": 0.6299212598425197
        },
        {
          "duration": 0.13671875,
          "durationTicks": 35,
          "midi": 44,
          "name": "G#2",
          "ticks": 13212,
          "time": 51.609375,
          "velocity": 0.6299212598425197
        },
        {
          "duration": 0.23046875,
          "durationTicks": 59,
          "midi": 38,
          "name": "D2",
          "ticks": 13248,
          "time": 51.75,
          "velocity": 0.6299212598425197
        },
        {
          "duration": 0.13671875,
          "durationTicks": 35,
          "midi": 38,
          "name": "D2",
          "ticks": 13308,
          "time": 51.984375,
          "velocity": 0.6299212598425197
        },
        {
          "duration": 0.08984375,
          "durationTicks": 23,
          "midi": 42,
          "name": "F#2",
          "ticks": 13680,
          "time": 53.4375,
          "velocity": 0.6299212598425197
        },
        {
          "duration": 0.08984375,
          "durationTicks": 23,
          "midi": 42,
          "name": "F#2",
          "ticks": 13704,
          "time": 53.53125,
          "velocity": 0.6299212598425197
        },
        {
          "duration": 0.08984375,
          "durationTicks": 23,
          "midi": 37,
          "name": "C#2",
          "ticks": 13728,
          "time": 53.625,
          "velocity": 0.6299212598425197
        },
        {
          "duration": 0.08984375,
          "durationTicks": 23,
          "midi": 36,
          "name": "C2",
          "ticks": 13776,
          "time": 53.8125,
          "velocity": 0.6299212598425197
        },
        {
          "duration": 0.18359375,
          "durationTicks": 47,
          "midi": 44,
          "name": "G#2",
          "ticks": 13824,
          "time": 54,
          "velocity": 0.7401574803149606
        },
        {
          "duration": 0.18359375,
          "durationTicks": 47,
          "midi": 44,
          "name": "G#2",
          "ticks": 13872,
          "time": 54.1875,
          "velocity": 0.5039370078740157
        },
        {
          "duration": 0.18359375,
          "durationTicks": 47,
          "midi": 44,
          "name": "G#2",
          "ticks": 13920,
          "time": 54.375,
          "velocity": 0.36220472440944884
        },
        {
          "duration": 0.18359375,
          "durationTicks": 47,
          "midi": 44,
          "name": "G#2",
          "ticks": 13968,
          "time": 54.5625,
          "velocity": 0.7007874015748031
        },
        {
          "duration": 0.18359375,
          "durationTicks": 47,
          "midi": 44,
          "name": "G#2",
          "ticks": 14016,
          "time": 54.75,
          "velocity": 0.48031496062992124
        },
        {
          "duration": 0.18359375,
          "durationTicks": 47,
          "midi": 44,
          "name": "G#2",
          "ticks": 14064,
          "time": 54.9375,
          "velocity": 0.36220472440944884
        },
        {
          "duration": 0.18359375,
          "durationTicks": 47,
          "midi": 46,
          "name": "A#2",
          "ticks": 14112,
          "time": 55.125,
          "velocity": 0.6062992125984252
        },
        {
          "duration": 0.18359375,
          "durationTicks": 47,
          "midi": 42,
          "name": "F#2",
          "ticks": 14160,
          "time": 55.3125,
          "velocity": 0.4251968503937008
        },
        {
          "duration": 0.18359375,
          "durationTicks": 47,
          "midi": 44,
          "name": "G#2",
          "ticks": 14208,
          "time": 55.5,
          "velocity": 0.7086614173228346
        },
        {
          "duration": 0.08984375,
          "durationTicks": 23,
          "midi": 44,
          "name": "G#2",
          "ticks": 14256,
          "time": 55.6875,
          "velocity": 0.6299212598425197
        },
        {
          "duration": 0.08984375,
          "durationTicks": 23,
          "midi": 44,
          "name": "G#2",
          "ticks": 14280,
          "time": 55.78125,
          "velocity": 0.6299212598425197
        },
        {
          "duration": 0.18359375,
          "durationTicks": 47,
          "midi": 44,
          "name": "G#2",
          "ticks": 14304,
          "time": 55.875,
          "velocity": 0.5354330708661418
        },
        {
          "duration": 0.18359375,
          "durationTicks": 47,
          "midi": 46,
          "name": "A#2",
          "ticks": 14352,
          "time": 56.0625,
          "velocity": 0.7007874015748031
        },
        {
          "duration": 0.18359375,
          "durationTicks": 47,
          "midi": 42,
          "name": "F#2",
          "ticks": 14400,
          "time": 56.25,
          "velocity": 0.5039370078740157
        },
        {
          "duration": 0.18359375,
          "durationTicks": 47,
          "midi": 44,
          "name": "G#2",
          "ticks": 14448,
          "time": 56.4375,
          "velocity": 0.6535433070866141
        },
        {
          "duration": 0.18359375,
          "durationTicks": 47,
          "midi": 46,
          "name": "A#2",
          "ticks": 14496,
          "time": 56.625,
          "velocity": 0.4409448818897638
        },
        {
          "duration": 0.18359375,
          "durationTicks": 47,
          "midi": 44,
          "name": "G#2",
          "ticks": 14544,
          "time": 56.8125,
          "velocity": 0.5118110236220472
        },
        {
          "duration": 0.18359375,
          "durationTicks": 47,
          "midi": 44,
          "name": "G#2",
          "ticks": 14592,
          "time": 57,
          "velocity": 0.7401574803149606
        },
        {
          "duration": 0.18359375,
          "durationTicks": 47,
          "midi": 44,
          "name": "G#2",
          "ticks": 14640,
          "time": 57.1875,
          "velocity": 0.5039370078740157
        },
        {
          "duration": 0.18359375,
          "durationTicks": 47,
          "midi": 44,
          "name": "G#2",
          "ticks": 14688,
          "time": 57.375,
          "velocity": 0.36220472440944884
        },
        {
          "duration": 0.18359375,
          "durationTicks": 47,
          "midi": 44,
          "name": "G#2",
          "ticks": 14736,
          "time": 57.5625,
          "velocity": 0.7007874015748031
        },
        {
          "duration": 0.18359375,
          "durationTicks": 47,
          "midi": 44,
          "name": "G#2",
          "ticks": 14784,
          "time": 57.75,
          "velocity": 0.48031496062992124
        },
        {
          "duration": 0.18359375,
          "durationTicks": 47,
          "midi": 44,
          "name": "G#2",
          "ticks": 14832,
          "time": 57.9375,
          "velocity": 0.36220472440944884
        },
        {
          "duration": 0.18359375,
          "durationTicks": 47,
          "midi": 46,
          "name": "A#2",
          "ticks": 14880,
          "time": 58.125,
          "velocity": 0.6062992125984252
        },
        {
          "duration": 0.18359375,
          "durationTicks": 47,
          "midi": 42,
          "name": "F#2",
          "ticks": 14928,
          "time": 58.3125,
          "velocity": 0.4251968503937008
        },
        {
          "duration": 0.18359375,
          "durationTicks": 47,
          "midi": 44,
          "name": "G#2",
          "ticks": 14976,
          "time": 58.5,
          "velocity": 0.7086614173228346
        },
        {
          "duration": 0.08984375,
          "durationTicks": 23,
          "midi": 44,
          "name": "G#2",
          "ticks": 15024,
          "time": 58.6875,
          "velocity": 0.6299212598425197
        },
        {
          "duration": 0.08984375,
          "durationTicks": 23,
          "midi": 44,
          "name": "G#2",
          "ticks": 15048,
          "time": 58.78125,
          "velocity": 0.6535433070866141
        },
        {
          "duration": 0.18359375,
          "durationTicks": 47,
          "midi": 44,
          "name": "G#2",
          "ticks": 15072,
          "time": 58.875,
          "velocity": 0.5354330708661418
        },
        {
          "duration": 0.18359375,
          "durationTicks": 47,
          "midi": 46,
          "name": "A#2",
          "ticks": 15120,
          "time": 59.0625,
          "velocity": 0.7007874015748031
        },
        {
          "duration": 0.08984375,
          "durationTicks": 23,
          "midi": 44,
          "name": "G#2",
          "ticks": 15168,
          "time": 59.25,
          "velocity": 0.6299212598425197
        },
        {
          "duration": 0.08984375,
          "durationTicks": 23,
          "midi": 44,
          "name": "G#2",
          "ticks": 15192,
          "time": 59.34375,
          "velocity": 0.6299212598425197
        },
        {
          "duration": 0.18359375,
          "durationTicks": 47,
          "midi": 44,
          "name": "G#2",
          "ticks": 15216,
          "time": 59.4375,
          "velocity": 0.6535433070866141
        },
        {
          "duration": 0.18359375,
          "durationTicks": 47,
          "midi": 46,
          "name": "A#2",
          "ticks": 15264,
          "time": 59.625,
          "velocity": 0.4409448818897638
        },
        {
          "duration": 0.08984375,
          "durationTicks": 23,
          "midi": 44,
          "name": "G#2",
          "ticks": 15312,
          "time": 59.8125,
          "velocity": 0.4881889763779528
        },
        {
          "duration": 0.08984375,
          "durationTicks": 23,
          "midi": 44,
          "name": "G#2",
          "ticks": 15336,
          "time": 59.90625,
          "velocity": 0.7007874015748031
        },
        {
          "duration": 0.18359375,
          "durationTicks": 47,
          "midi": 44,
          "name": "G#2",
          "ticks": 15360,
          "time": 60,
          "velocity": 0.7401574803149606
        },
        {
          "duration": 0.18359375,
          "durationTicks": 47,
          "midi": 44,
          "name": "G#2",
          "ticks": 15408,
          "time": 60.1875,
          "velocity": 0.5039370078740157
        },
        {
          "duration": 0.18359375,
          "durationTicks": 47,
          "midi": 44,
          "name": "G#2",
          "ticks": 15456,
          "time": 60.375,
          "velocity": 0.36220472440944884
        },
        {
          "duration": 0.18359375,
          "durationTicks": 47,
          "midi": 44,
          "name": "G#2",
          "ticks": 15504,
          "time": 60.5625,
          "velocity": 0.7007874015748031
        },
        {
          "duration": 0.18359375,
          "durationTicks": 47,
          "midi": 44,
          "name": "G#2",
          "ticks": 15552,
          "time": 60.75,
          "velocity": 0.48031496062992124
        },
        {
          "duration": 0.18359375,
          "durationTicks": 47,
          "midi": 44,
          "name": "G#2",
          "ticks": 15600,
          "time": 60.9375,
          "velocity": 0.36220472440944884
        },
        {
          "duration": 0.18359375,
          "durationTicks": 47,
          "midi": 46,
          "name": "A#2",
          "ticks": 15648,
          "time": 61.125,
          "velocity": 0.6062992125984252
        },
        {
          "duration": 0.18359375,
          "durationTicks": 47,
          "midi": 42,
          "name": "F#2",
          "ticks": 15696,
          "time": 61.3125,
          "velocity": 0.4251968503937008
        },
        {
          "duration": 0.18359375,
          "durationTicks": 47,
          "midi": 44,
          "name": "G#2",
          "ticks": 15744,
          "time": 61.5,
          "velocity": 0.7086614173228346
        },
        {
          "duration": 0.08984375,
          "durationTicks": 23,
          "midi": 44,
          "name": "G#2",
          "ticks": 15792,
          "time": 61.6875,
          "velocity": 0.6299212598425197
        },
        {
          "duration": 0.08984375,
          "durationTicks": 23,
          "midi": 44,
          "name": "G#2",
          "ticks": 15816,
          "time": 61.78125,
          "velocity": 0.6299212598425197
        },
        {
          "duration": 0.18359375,
          "durationTicks": 47,
          "midi": 44,
          "name": "G#2",
          "ticks": 15840,
          "time": 61.875,
          "velocity": 0.5354330708661418
        },
        {
          "duration": 0.18359375,
          "durationTicks": 47,
          "midi": 46,
          "name": "A#2",
          "ticks": 15888,
          "time": 62.0625,
          "velocity": 0.7007874015748031
        },
        {
          "duration": 0.18359375,
          "durationTicks": 47,
          "midi": 42,
          "name": "F#2",
          "ticks": 15936,
          "time": 62.25,
          "velocity": 0.5039370078740157
        },
        {
          "duration": 0.18359375,
          "durationTicks": 47,
          "midi": 44,
          "name": "G#2",
          "ticks": 15984,
          "time": 62.4375,
          "velocity": 0.6535433070866141
        },
        {
          "duration": 0.18359375,
          "durationTicks": 47,
          "midi": 46,
          "name": "A#2",
          "ticks": 16032,
          "time": 62.625,
          "velocity": 0.4409448818897638
        },
        {
          "duration": 0.18359375,
          "durationTicks": 47,
          "midi": 44,
          "name": "G#2",
          "ticks": 16080,
          "time": 62.8125,
          "velocity": 0.5118110236220472
        },
        {
          "duration": 0.18359375,
          "durationTicks": 47,
          "midi": 44,
          "name": "G#2",
          "ticks": 16128,
          "time": 63,
          "velocity": 0.7401574803149606
        },
        {
          "duration": 0.18359375,
          "durationTicks": 47,
          "midi": 44,
          "name": "G#2",
          "ticks": 16176,
          "time": 63.1875,
          "velocity": 0.5039370078740157
        },
        {
          "duration": 0.18359375,
          "durationTicks": 47,
          "midi": 44,
          "name": "G#2",
          "ticks": 16224,
          "time": 63.375,
          "velocity": 0.36220472440944884
        },
        {
          "duration": 0.18359375,
          "durationTicks": 47,
          "midi": 44,
          "name": "G#2",
          "ticks": 16272,
          "time": 63.5625,
          "velocity": 0.7007874015748031
        },
        {
          "duration": 0.18359375,
          "durationTicks": 47,
          "midi": 44,
          "name": "G#2",
          "ticks": 16320,
          "time": 63.75,
          "velocity": 0.48031496062992124
        },
        {
          "duration": 0.18359375,
          "durationTicks": 47,
          "midi": 44,
          "name": "G#2",
          "ticks": 16368,
          "time": 63.9375,
          "velocity": 0.36220472440944884
        },
        {
          "duration": 0.18359375,
          "durationTicks": 47,
          "midi": 46,
          "name": "A#2",
          "ticks": 16416,
          "time": 64.125,
          "velocity": 0.6062992125984252
        },
        {
          "duration": 0.18359375,
          "durationTicks": 47,
          "midi": 42,
          "name": "F#2",
          "ticks": 16464,
          "time": 64.3125,
          "velocity": 0.4251968503937008
        },
        {
          "duration": 0.18359375,
          "durationTicks": 47,
          "midi": 44,
          "name": "G#2",
          "ticks": 16512,
          "time": 64.5,
          "velocity": 0.7086614173228346
        },
        {
          "duration": 0.08984375,
          "durationTicks": 23,
          "midi": 44,
          "name": "G#2",
          "ticks": 16560,
          "time": 64.6875,
          "velocity": 0.6299212598425197
        },
        {
          "duration": 0.08984375,
          "durationTicks": 23,
          "midi": 44,
          "name": "G#2",
          "ticks": 16584,
          "time": 64.78125,
          "velocity": 0.6535433070866141
        },
        {
          "duration": 0.18359375,
          "durationTicks": 47,
          "midi": 44,
          "name": "G#2",
          "ticks": 16608,
          "time": 64.875,
          "velocity": 0.5354330708661418
        },
        {
          "duration": 0.18359375,
          "durationTicks": 47,
          "midi": 46,
          "name": "A#2",
          "ticks": 16656,
          "time": 65.0625,
          "velocity": 0.7007874015748031
        },
        {
          "duration": 0.08984375,
          "durationTicks": 23,
          "midi": 44,
          "name": "G#2",
          "ticks": 16704,
          "time": 65.25,
          "velocity": 0.6299212598425197
        },
        {
          "duration": 0.08984375,
          "durationTicks": 23,
          "midi": 44,
          "name": "G#2",
          "ticks": 16728,
          "time": 65.34375,
          "velocity": 0.6299212598425197
        },
        {
          "duration": 0.18359375,
          "durationTicks": 47,
          "midi": 44,
          "name": "G#2",
          "ticks": 16752,
          "time": 65.4375,
          "velocity": 0.6535433070866141
        },
        {
          "duration": 0.08984375,
          "durationTicks": 23,
          "midi": 46,
          "name": "A#2",
          "ticks": 16800,
          "time": 65.625,
          "velocity": 0.6299212598425197
        },
        {
          "duration": 0.08984375,
          "durationTicks": 23,
          "midi": 42,
          "name": "F#2",
          "ticks": 16824,
          "time": 65.71875,
          "velocity": 0.6299212598425197
        },
        {
          "duration": 0.08984375,
          "durationTicks": 23,
          "midi": 44,
          "name": "G#2",
          "ticks": 16848,
          "time": 65.8125,
          "velocity": 0.4881889763779528
        },
        {
          "duration": 0.08984375,
          "durationTicks": 23,
          "midi": 44,
          "name": "G#2",
          "ticks": 16872,
          "time": 65.90625,
          "velocity": 0.7007874015748031
        },
        {
          "duration": 0.23046875,
          "durationTicks": 59,
          "midi": 44,
          "name": "G#2",
          "ticks": 16896,
          "time": 66,
          "velocity": 0.6299212598425197
        },
        {
          "duration": 0.23046875,
          "durationTicks": 59,
          "midi": 36,
          "name": "C2",
          "ticks": 16896,
          "time": 66,
          "velocity": 0.6299212598425197
        },
        {
          "duration": 0.23046875,
          "durationTicks": 59,
          "midi": 46,
          "name": "A#2",
          "ticks": 16992,
          "time": 66.375,
          "velocity": 0.6299212598425197
        },
        {
          "duration": 0.13671875,
          "durationTicks": 35,
          "midi": 44,
          "name": "G#2",
          "ticks": 17052,
          "time": 66.609375,
          "velocity": 0.6299212598425197
        },
        {
          "duration": 0.23046875,
          "durationTicks": 59,
          "midi": 42,
          "name": "F#2",
          "ticks": 17088,
          "time": 66.75,
          "velocity": 0.6299212598425197
        },
        {
          "duration": 0.23046875,
          "durationTicks": 59,
          "midi": 37,
          "name": "C#2",
          "ticks": 17088,
          "time": 66.75,
          "velocity": 0.6299212598425197
        },
        {
          "duration": 0.23046875,
          "durationTicks": 59,
          "midi": 46,
          "name": "A#2",
          "ticks": 17184,
          "time": 67.125,
          "velocity": 0.6299212598425197
        },
        {
          "duration": 0.13671875,
          "durationTicks": 35,
          "midi": 44,
          "name": "G#2",
          "ticks": 17244,
          "time": 67.359375,
          "velocity": 0.6299212598425197
        },
        {
          "duration": 0.23046875,
          "durationTicks": 59,
          "midi": 44,
          "name": "G#2",
          "ticks": 17280,
          "time": 67.5,
          "velocity": 0.6299212598425197
        },
        {
          "duration": 0.23046875,
          "durationTicks": 59,
          "midi": 36,
          "name": "C2",
          "ticks": 17280,
          "time": 67.5,
          "velocity": 0.6299212598425197
        },
        {
          "duration": 0.23046875,
          "durationTicks": 59,
          "midi": 46,
          "name": "A#2",
          "ticks": 17376,
          "time": 67.875,
          "velocity": 0.6299212598425197
        },
        {
          "duration": 0.13671875,
          "durationTicks": 35,
          "midi": 44,
          "name": "G#2",
          "ticks": 17436,
          "time": 68.109375,
          "velocity": 0.6299212598425197
        },
        {
          "duration": 0.23046875,
          "durationTicks": 59,
          "midi": 42,
          "name": "F#2",
          "ticks": 17472,
          "time": 68.25,
          "velocity": 0.6299212598425197
        },
        {
          "duration": 0.23046875,
          "durationTicks": 59,
          "midi": 37,
          "name": "C#2",
          "ticks": 17472,
          "time": 68.25,
          "velocity": 0.6299212598425197
        },
        {
          "duration": 0.23046875,
          "durationTicks": 59,
          "midi": 46,
          "name": "A#2",
          "ticks": 17568,
          "time": 68.625,
          "velocity": 0.6299212598425197
        },
        {
          "duration": 0.13671875,
          "durationTicks": 35,
          "midi": 44,
          "name": "G#2",
          "ticks": 17628,
          "time": 68.859375,
          "velocity": 0.6299212598425197
        },
        {
          "duration": 0.23046875,
          "durationTicks": 59,
          "midi": 44,
          "name": "G#2",
          "ticks": 17664,
          "time": 69,
          "velocity": 0.6299212598425197
        },
        {
          "duration": 0.23046875,
          "durationTicks": 59,
          "midi": 36,
          "name": "C2",
          "ticks": 17664,
          "time": 69,
          "velocity": 0.6299212598425197
        },
        {
          "duration": 0.23046875,
          "durationTicks": 59,
          "midi": 46,
          "name": "A#2",
          "ticks": 17760,
          "time": 69.375,
          "velocity": 0.6299212598425197
        },
        {
          "duration": 0.13671875,
          "durationTicks": 35,
          "midi": 44,
          "name": "G#2",
          "ticks": 17820,
          "time": 69.609375,
          "velocity": 0.6299212598425197
        },
        {
          "duration": 0.23046875,
          "durationTicks": 59,
          "midi": 42,
          "name": "F#2",
          "ticks": 17856,
          "time": 69.75,
          "velocity": 0.6299212598425197
        },
        {
          "duration": 0.23046875,
          "durationTicks": 59,
          "midi": 37,
          "name": "C#2",
          "ticks": 17856,
          "time": 69.75,
          "velocity": 0.6299212598425197
        },
        {
          "duration": 0.23046875,
          "durationTicks": 59,
          "midi": 46,
          "name": "A#2",
          "ticks": 17952,
          "time": 70.125,
          "velocity": 0.6299212598425197
        },
        {
          "duration": 0.13671875,
          "durationTicks": 35,
          "midi": 44,
          "name": "G#2",
          "ticks": 18012,
          "time": 70.359375,
          "velocity": 0.6299212598425197
        },
        {
          "duration": 0.23046875,
          "durationTicks": 59,
          "midi": 38,
          "name": "D2",
          "ticks": 18048,
          "time": 70.5,
          "velocity": 0.6299212598425197
        },
        {
          "duration": 0.23046875,
          "durationTicks": 59,
          "midi": 38,
          "name": "D2",
          "ticks": 18144,
          "time": 70.875,
          "velocity": 0.6299212598425197
        },
        {
          "duration": 0.23046875,
          "durationTicks": 59,
          "midi": 38,
          "name": "D2",
          "ticks": 18240,
          "time": 71.25,
          "velocity": 0.6299212598425197
        },
        {
          "duration": 0.13671875,
          "durationTicks": 35,
          "midi": 38,
          "name": "D2",
          "ticks": 18300,
          "time": 71.484375,
          "velocity": 0.6299212598425197
        },
        {
          "duration": 0.23046875,
          "durationTicks": 59,
          "midi": 44,
          "name": "G#2",
          "ticks": 18432,
          "time": 72,
          "velocity": 0.6299212598425197
        },
        {
          "duration": 0.23046875,
          "durationTicks": 59,
          "midi": 36,
          "name": "C2",
          "ticks": 18432,
          "time": 72,
          "velocity": 0.6299212598425197
        },
        {
          "duration": 0.23046875,
          "durationTicks": 59,
          "midi": 46,
          "name": "A#2",
          "ticks": 18528,
          "time": 72.375,
          "velocity": 0.6299212598425197
        },
        {
          "duration": 0.13671875,
          "durationTicks": 35,
          "midi": 44,
          "name": "G#2",
          "ticks": 18588,
          "time": 72.609375,
          "velocity": 0.6299212598425197
        },
        {
          "duration": 0.23046875,
          "durationTicks": 59,
          "midi": 42,
          "name": "F#2",
          "ticks": 18624,
          "time": 72.75,
          "velocity": 0.6299212598425197
        },
        {
          "duration": 0.23046875,
          "durationTicks": 59,
          "midi": 37,
          "name": "C#2",
          "ticks": 18624,
          "time": 72.75,
          "velocity": 0.6299212598425197
        },
        {
          "duration": 0.23046875,
          "durationTicks": 59,
          "midi": 46,
          "name": "A#2",
          "ticks": 18720,
          "time": 73.125,
          "velocity": 0.6299212598425197
        },
        {
          "duration": 0.13671875,
          "durationTicks": 35,
          "midi": 44,
          "name": "G#2",
          "ticks": 18780,
          "time": 73.359375,
          "velocity": 0.6299212598425197
        },
        {
          "duration": 0.23046875,
          "durationTicks": 59,
          "midi": 44,
          "name": "G#2",
          "ticks": 18816,
          "time": 73.5,
          "velocity": 0.6299212598425197
        },
        {
          "duration": 0.23046875,
          "durationTicks": 59,
          "midi": 36,
          "name": "C2",
          "ticks": 18816,
          "time": 73.5,
          "velocity": 0.6299212598425197
        },
        {
          "duration": 0.23046875,
          "durationTicks": 59,
          "midi": 46,
          "name": "A#2",
          "ticks": 18912,
          "time": 73.875,
          "velocity": 0.6299212598425197
        },
        {
          "duration": 0.13671875,
          "durationTicks": 35,
          "midi": 44,
          "name": "G#2",
          "ticks": 18972,
          "time": 74.109375,
          "velocity": 0.6299212598425197
        },
        {
          "duration": 0.23046875,
          "durationTicks": 59,
          "midi": 42,
          "name": "F#2",
          "ticks": 19008,
          "time": 74.25,
          "velocity": 0.6299212598425197
        },
        {
          "duration": 0.23046875,
          "durationTicks": 59,
          "midi": 37,
          "name": "C#2",
          "ticks": 19008,
          "time": 74.25,
          "velocity": 0.6299212598425197
        },
        {
          "duration": 0.23046875,
          "durationTicks": 59,
          "midi": 46,
          "name": "A#2",
          "ticks": 19104,
          "time": 74.625,
          "velocity": 0.6299212598425197
        },
        {
          "duration": 0.13671875,
          "durationTicks": 35,
          "midi": 44,
          "name": "G#2",
          "ticks": 19164,
          "time": 74.859375,
          "velocity": 0.6299212598425197
        },
        {
          "duration": 0.23046875,
          "durationTicks": 59,
          "midi": 44,
          "name": "G#2",
          "ticks": 19200,
          "time": 75,
          "velocity": 0.6299212598425197
        },
        {
          "duration": 0.23046875,
          "durationTicks": 59,
          "midi": 36,
          "name": "C2",
          "ticks": 19200,
          "time": 75,
          "velocity": 0.6299212598425197
        },
        {
          "duration": 0.23046875,
          "durationTicks": 59,
          "midi": 46,
          "name": "A#2",
          "ticks": 19296,
          "time": 75.375,
          "velocity": 0.6299212598425197
        },
        {
          "duration": 0.13671875,
          "durationTicks": 35,
          "midi": 44,
          "name": "G#2",
          "ticks": 19356,
          "time": 75.609375,
          "velocity": 0.6299212598425197
        },
        {
          "duration": 0.23046875,
          "durationTicks": 59,
          "midi": 38,
          "name": "D2",
          "ticks": 19392,
          "time": 75.75,
          "velocity": 0.6299212598425197
        },
        {
          "duration": 0.13671875,
          "durationTicks": 35,
          "midi": 38,
          "name": "D2",
          "ticks": 19452,
          "time": 75.984375,
          "velocity": 0.6299212598425197
        },
        {
          "duration": 0.08984375,
          "durationTicks": 23,
          "midi": 42,
          "name": "F#2",
          "ticks": 19824,
          "time": 77.4375,
          "velocity": 0.6299212598425197
        },
        {
          "duration": 0.08984375,
          "durationTicks": 23,
          "midi": 42,
          "name": "F#2",
          "ticks": 19848,
          "time": 77.53125,
          "velocity": 0.6299212598425197
        },
        {
          "duration": 0.08984375,
          "durationTicks": 23,
          "midi": 37,
          "name": "C#2",
          "ticks": 19872,
          "time": 77.625,
          "velocity": 0.6299212598425197
        },
        {
          "duration": 0.08984375,
          "durationTicks": 23,
          "midi": 36,
          "name": "C2",
          "ticks": 19920,
          "time": 77.8125,
          "velocity": 0.6299212598425197
        },
        {
          "duration": 0.18359375,
          "durationTicks": 47,
          "midi": 44,
          "name": "G#2",
          "ticks": 19968,
          "time": 78,
          "velocity": 0.7401574803149606
        },
        {
          "duration": 0.18359375,
          "durationTicks": 47,
          "midi": 44,
          "name": "G#2",
          "ticks": 20016,
          "time": 78.1875,
          "velocity": 0.5039370078740157
        },
        {
          "duration": 0.18359375,
          "durationTicks": 47,
          "midi": 44,
          "name": "G#2",
          "ticks": 20064,
          "time": 78.375,
          "velocity": 0.36220472440944884
        },
        {
          "duration": 0.18359375,
          "durationTicks": 47,
          "midi": 44,
          "name": "G#2",
          "ticks": 20112,
          "time": 78.5625,
          "velocity": 0.7007874015748031
        },
        {
          "duration": 0.18359375,
          "durationTicks": 47,
          "midi": 44,
          "name": "G#2",
          "ticks": 20160,
          "time": 78.75,
          "velocity": 0.48031496062992124
        },
        {
          "duration": 0.18359375,
          "durationTicks": 47,
          "midi": 44,
          "name": "G#2",
          "ticks": 20208,
          "time": 78.9375,
          "velocity": 0.36220472440944884
        },
        {
          "duration": 0.18359375,
          "durationTicks": 47,
          "midi": 46,
          "name": "A#2",
          "ticks": 20256,
          "time": 79.125,
          "velocity": 0.6062992125984252
        },
        {
          "duration": 0.18359375,
          "durationTicks": 47,
          "midi": 42,
          "name": "F#2",
          "ticks": 20304,
          "time": 79.3125,
          "velocity": 0.4251968503937008
        },
        {
          "duration": 0.18359375,
          "durationTicks": 47,
          "midi": 44,
          "name": "G#2",
          "ticks": 20352,
          "time": 79.5,
          "velocity": 0.7086614173228346
        },
        {
          "duration": 0.08984375,
          "durationTicks": 23,
          "midi": 44,
          "name": "G#2",
          "ticks": 20400,
          "time": 79.6875,
          "velocity": 0.6299212598425197
        },
        {
          "duration": 0.08984375,
          "durationTicks": 23,
          "midi": 44,
          "name": "G#2",
          "ticks": 20424,
          "time": 79.78125,
          "velocity": 0.6299212598425197
        },
        {
          "duration": 0.18359375,
          "durationTicks": 47,
          "midi": 44,
          "name": "G#2",
          "ticks": 20448,
          "time": 79.875,
          "velocity": 0.5354330708661418
        },
        {
          "duration": 0.18359375,
          "durationTicks": 47,
          "midi": 46,
          "name": "A#2",
          "ticks": 20496,
          "time": 80.0625,
          "velocity": 0.7007874015748031
        },
        {
          "duration": 0.18359375,
          "durationTicks": 47,
          "midi": 42,
          "name": "F#2",
          "ticks": 20544,
          "time": 80.25,
          "velocity": 0.5039370078740157
        },
        {
          "duration": 0.18359375,
          "durationTicks": 47,
          "midi": 44,
          "name": "G#2",
          "ticks": 20592,
          "time": 80.4375,
          "velocity": 0.6535433070866141
        },
        {
          "duration": 0.18359375,
          "durationTicks": 47,
          "midi": 46,
          "name": "A#2",
          "ticks": 20640,
          "time": 80.625,
          "velocity": 0.4409448818897638
        },
        {
          "duration": 0.18359375,
          "durationTicks": 47,
          "midi": 44,
          "name": "G#2",
          "ticks": 20688,
          "time": 80.8125,
          "velocity": 0.5118110236220472
        },
        {
          "duration": 0.18359375,
          "durationTicks": 47,
          "midi": 44,
          "name": "G#2",
          "ticks": 20736,
          "time": 81,
          "velocity": 0.7401574803149606
        },
        {
          "duration": 0.18359375,
          "durationTicks": 47,
          "midi": 44,
          "name": "G#2",
          "ticks": 20784,
          "time": 81.1875,
          "velocity": 0.5039370078740157
        },
        {
          "duration": 0.18359375,
          "durationTicks": 47,
          "midi": 44,
          "name": "G#2",
          "ticks": 20832,
          "time": 81.375,
          "velocity": 0.36220472440944884
        },
        {
          "duration": 0.18359375,
          "durationTicks": 47,
          "midi": 44,
          "name": "G#2",
          "ticks": 20880,
          "time": 81.5625,
          "velocity": 0.7007874015748031
        },
        {
          "duration": 0.18359375,
          "durationTicks": 47,
          "midi": 44,
          "name": "G#2",
          "ticks": 20928,
          "time": 81.75,
          "velocity": 0.48031496062992124
        },
        {
          "duration": 0.18359375,
          "durationTicks": 47,
          "midi": 44,
          "name": "G#2",
          "ticks": 20976,
          "time": 81.9375,
          "velocity": 0.36220472440944884
        },
        {
          "duration": 0.18359375,
          "durationTicks": 47,
          "midi": 46,
          "name": "A#2",
          "ticks": 21024,
          "time": 82.125,
          "velocity": 0.6062992125984252
        },
        {
          "duration": 0.18359375,
          "durationTicks": 47,
          "midi": 42,
          "name": "F#2",
          "ticks": 21072,
          "time": 82.3125,
          "velocity": 0.4251968503937008
        },
        {
          "duration": 0.18359375,
          "durationTicks": 47,
          "midi": 44,
          "name": "G#2",
          "ticks": 21120,
          "time": 82.5,
          "velocity": 0.7086614173228346
        },
        {
          "duration": 0.08984375,
          "durationTicks": 23,
          "midi": 44,
          "name": "G#2",
          "ticks": 21168,
          "time": 82.6875,
          "velocity": 0.6299212598425197
        },
        {
          "duration": 0.08984375,
          "durationTicks": 23,
          "midi": 44,
          "name": "G#2",
          "ticks": 21192,
          "time": 82.78125,
          "velocity": 0.6535433070866141
        },
        {
          "duration": 0.18359375,
          "durationTicks": 47,
          "midi": 44,
          "name": "G#2",
          "ticks": 21216,
          "time": 82.875,
          "velocity": 0.5354330708661418
        },
        {
          "duration": 0.18359375,
          "durationTicks": 47,
          "midi": 46,
          "name": "A#2",
          "ticks": 21264,
          "time": 83.0625,
          "velocity": 0.7007874015748031
        },
        {
          "duration": 0.08984375,
          "durationTicks": 23,
          "midi": 44,
          "name": "G#2",
          "ticks": 21312,
          "time": 83.25,
          "velocity": 0.6299212598425197
        },
        {
          "duration": 0.08984375,
          "durationTicks": 23,
          "midi": 44,
          "name": "G#2",
          "ticks": 21336,
          "time": 83.34375,
          "velocity": 0.6299212598425197
        },
        {
          "duration": 0.18359375,
          "durationTicks": 47,
          "midi": 44,
          "name": "G#2",
          "ticks": 21360,
          "time": 83.4375,
          "velocity": 0.6535433070866141
        },
        {
          "duration": 0.18359375,
          "durationTicks": 47,
          "midi": 46,
          "name": "A#2",
          "ticks": 21408,
          "time": 83.625,
          "velocity": 0.4409448818897638
        },
        {
          "duration": 0.08984375,
          "durationTicks": 23,
          "midi": 44,
          "name": "G#2",
          "ticks": 21456,
          "time": 83.8125,
          "velocity": 0.4881889763779528
        },
        {
          "duration": 0.08984375,
          "durationTicks": 23,
          "midi": 44,
          "name": "G#2",
          "ticks": 21480,
          "time": 83.90625,
          "velocity": 0.7007874015748031
        },
        {
          "duration": 0.18359375,
          "durationTicks": 47,
          "midi": 44,
          "name": "G#2",
          "ticks": 21504,
          "time": 84,
          "velocity": 0.7401574803149606
        },
        {
          "duration": 0.18359375,
          "durationTicks": 47,
          "midi": 44,
          "name": "G#2",
          "ticks": 21552,
          "time": 84.1875,
          "velocity": 0.5039370078740157
        },
        {
          "duration": 0.18359375,
          "durationTicks": 47,
          "midi": 44,
          "name": "G#2",
          "ticks": 21600,
          "time": 84.375,
          "velocity": 0.36220472440944884
        },
        {
          "duration": 0.18359375,
          "durationTicks": 47,
          "midi": 44,
          "name": "G#2",
          "ticks": 21648,
          "time": 84.5625,
          "velocity": 0.7007874015748031
        },
        {
          "duration": 0.18359375,
          "durationTicks": 47,
          "midi": 44,
          "name": "G#2",
          "ticks": 21696,
          "time": 84.75,
          "velocity": 0.48031496062992124
        },
        {
          "duration": 0.18359375,
          "durationTicks": 47,
          "midi": 44,
          "name": "G#2",
          "ticks": 21744,
          "time": 84.9375,
          "velocity": 0.36220472440944884
        },
        {
          "duration": 0.18359375,
          "durationTicks": 47,
          "midi": 46,
          "name": "A#2",
          "ticks": 21792,
          "time": 85.125,
          "velocity": 0.6062992125984252
        },
        {
          "duration": 0.18359375,
          "durationTicks": 47,
          "midi": 42,
          "name": "F#2",
          "ticks": 21840,
          "time": 85.3125,
          "velocity": 0.4251968503937008
        },
        {
          "duration": 0.18359375,
          "durationTicks": 47,
          "midi": 44,
          "name": "G#2",
          "ticks": 21888,
          "time": 85.5,
          "velocity": 0.7086614173228346
        },
        {
          "duration": 0.08984375,
          "durationTicks": 23,
          "midi": 44,
          "name": "G#2",
          "ticks": 21936,
          "time": 85.6875,
          "velocity": 0.6299212598425197
        },
        {
          "duration": 0.08984375,
          "durationTicks": 23,
          "midi": 44,
          "name": "G#2",
          "ticks": 21960,
          "time": 85.78125,
          "velocity": 0.6299212598425197
        },
        {
          "duration": 0.18359375,
          "durationTicks": 47,
          "midi": 44,
          "name": "G#2",
          "ticks": 21984,
          "time": 85.875,
          "velocity": 0.5354330708661418
        },
        {
          "duration": 0.18359375,
          "durationTicks": 47,
          "midi": 46,
          "name": "A#2",
          "ticks": 22032,
          "time": 86.0625,
          "velocity": 0.7007874015748031
        },
        {
          "duration": 0.18359375,
          "durationTicks": 47,
          "midi": 42,
          "name": "F#2",
          "ticks": 22080,
          "time": 86.25,
          "velocity": 0.5039370078740157
        },
        {
          "duration": 0.18359375,
          "durationTicks": 47,
          "midi": 44,
          "name": "G#2",
          "ticks": 22128,
          "time": 86.4375,
          "velocity": 0.6535433070866141
        },
        {
          "duration": 0.18359375,
          "durationTicks": 47,
          "midi": 46,
          "name": "A#2",
          "ticks": 22176,
          "time": 86.625,
          "velocity": 0.4409448818897638
        },
        {
          "duration": 0.18359375,
          "durationTicks": 47,
          "midi": 44,
          "name": "G#2",
          "ticks": 22224,
          "time": 86.8125,
          "velocity": 0.5118110236220472
        },
        {
          "duration": 0.18359375,
          "durationTicks": 47,
          "midi": 44,
          "name": "G#2",
          "ticks": 22272,
          "time": 87,
          "velocity": 0.7401574803149606
        },
        {
          "duration": 0.18359375,
          "durationTicks": 47,
          "midi": 44,
          "name": "G#2",
          "ticks": 22320,
          "time": 87.1875,
          "velocity": 0.5039370078740157
        },
        {
          "duration": 0.18359375,
          "durationTicks": 47,
          "midi": 44,
          "name": "G#2",
          "ticks": 22368,
          "time": 87.375,
          "velocity": 0.36220472440944884
        },
        {
          "duration": 0.18359375,
          "durationTicks": 47,
          "midi": 44,
          "name": "G#2",
          "ticks": 22416,
          "time": 87.5625,
          "velocity": 0.7007874015748031
        },
        {
          "duration": 0.18359375,
          "durationTicks": 47,
          "midi": 44,
          "name": "G#2",
          "ticks": 22464,
          "time": 87.75,
          "velocity": 0.48031496062992124
        },
        {
          "duration": 0.18359375,
          "durationTicks": 47,
          "midi": 44,
          "name": "G#2",
          "ticks": 22512,
          "time": 87.9375,
          "velocity": 0.36220472440944884
        },
        {
          "duration": 0.18359375,
          "durationTicks": 47,
          "midi": 46,
          "name": "A#2",
          "ticks": 22560,
          "time": 88.125,
          "velocity": 0.6062992125984252
        },
        {
          "duration": 0.18359375,
          "durationTicks": 47,
          "midi": 42,
          "name": "F#2",
          "ticks": 22608,
          "time": 88.3125,
          "velocity": 0.4251968503937008
        },
        {
          "duration": 0.18359375,
          "durationTicks": 47,
          "midi": 44,
          "name": "G#2",
          "ticks": 22656,
          "time": 88.5,
          "velocity": 0.7086614173228346
        },
        {
          "duration": 0.08984375,
          "durationTicks": 23,
          "midi": 44,
          "name": "G#2",
          "ticks": 22704,
          "time": 88.6875,
          "velocity": 0.6299212598425197
        },
        {
          "duration": 0.08984375,
          "durationTicks": 23,
          "midi": 44,
          "name": "G#2",
          "ticks": 22728,
          "time": 88.78125,
          "velocity": 0.6535433070866141
        },
        {
          "duration": 0.18359375,
          "durationTicks": 47,
          "midi": 44,
          "name": "G#2",
          "ticks": 22752,
          "time": 88.875,
          "velocity": 0.5354330708661418
        },
        {
          "duration": 0.18359375,
          "durationTicks": 47,
          "midi": 46,
          "name": "A#2",
          "ticks": 22800,
          "time": 89.0625,
          "velocity": 0.7007874015748031
        },
        {
          "duration": 0.08984375,
          "durationTicks": 23,
          "midi": 44,
          "name": "G#2",
          "ticks": 22848,
          "time": 89.25,
          "velocity": 0.6299212598425197
        },
        {
          "duration": 0.08984375,
          "durationTicks": 23,
          "midi": 44,
          "name": "G#2",
          "ticks": 22872,
          "time": 89.34375,
          "velocity": 0.6299212598425197
        },
        {
          "duration": 0.18359375,
          "durationTicks": 47,
          "midi": 44,
          "name": "G#2",
          "ticks": 22896,
          "time": 89.4375,
          "velocity": 0.6535433070866141
        },
        {
          "duration": 0.18359375,
          "durationTicks": 47,
          "midi": 46,
          "name": "A#2",
          "ticks": 22944,
          "time": 89.625,
          "velocity": 0.4409448818897638
        },
        {
          "duration": 0.08984375,
          "durationTicks": 23,
          "midi": 44,
          "name": "G#2",
          "ticks": 22992,
          "time": 89.8125,
          "velocity": 0.4881889763779528
        },
        {
          "duration": 0.08984375,
          "durationTicks": 23,
          "midi": 44,
          "name": "G#2",
          "ticks": 23016,
          "time": 89.90625,
          "velocity": 0.7007874015748031
        },
        {
          "duration": 0.18359375,
          "durationTicks": 47,
          "midi": 44,
          "name": "G#2",
          "ticks": 23040,
          "time": 90,
          "velocity": 0.7401574803149606
        },
        {
          "duration": 0.18359375,
          "durationTicks": 47,
          "midi": 44,
          "name": "G#2",
          "ticks": 23088,
          "time": 90.1875,
          "velocity": 0.5039370078740157
        },
        {
          "duration": 0.18359375,
          "durationTicks": 47,
          "midi": 44,
          "name": "G#2",
          "ticks": 23136,
          "time": 90.375,
          "velocity": 0.36220472440944884
        },
        {
          "duration": 0.18359375,
          "durationTicks": 47,
          "midi": 44,
          "name": "G#2",
          "ticks": 23184,
          "time": 90.5625,
          "velocity": 0.7007874015748031
        },
        {
          "duration": 0.18359375,
          "durationTicks": 47,
          "midi": 44,
          "name": "G#2",
          "ticks": 23232,
          "time": 90.75,
          "velocity": 0.48031496062992124
        },
        {
          "duration": 0.18359375,
          "durationTicks": 47,
          "midi": 44,
          "name": "G#2",
          "ticks": 23280,
          "time": 90.9375,
          "velocity": 0.36220472440944884
        },
        {
          "duration": 0.18359375,
          "durationTicks": 47,
          "midi": 46,
          "name": "A#2",
          "ticks": 23328,
          "time": 91.125,
          "velocity": 0.6062992125984252
        },
        {
          "duration": 0.18359375,
          "durationTicks": 47,
          "midi": 42,
          "name": "F#2",
          "ticks": 23376,
          "time": 91.3125,
          "velocity": 0.4251968503937008
        },
        {
          "duration": 0.18359375,
          "durationTicks": 47,
          "midi": 44,
          "name": "G#2",
          "ticks": 23424,
          "time": 91.5,
          "velocity": 0.7086614173228346
        },
        {
          "duration": 0.08984375,
          "durationTicks": 23,
          "midi": 44,
          "name": "G#2",
          "ticks": 23472,
          "time": 91.6875,
          "velocity": 0.6299212598425197
        },
        {
          "duration": 0.08984375,
          "durationTicks": 23,
          "midi": 44,
          "name": "G#2",
          "ticks": 23496,
          "time": 91.78125,
          "velocity": 0.6299212598425197
        },
        {
          "duration": 0.18359375,
          "durationTicks": 47,
          "midi": 44,
          "name": "G#2",
          "ticks": 23520,
          "time": 91.875,
          "velocity": 0.5354330708661418
        },
        {
          "duration": 0.18359375,
          "durationTicks": 47,
          "midi": 46,
          "name": "A#2",
          "ticks": 23568,
          "time": 92.0625,
          "velocity": 0.7007874015748031
        },
        {
          "duration": 0.18359375,
          "durationTicks": 47,
          "midi": 42,
          "name": "F#2",
          "ticks": 23616,
          "time": 92.25,
          "velocity": 0.5039370078740157
        },
        {
          "duration": 0.18359375,
          "durationTicks": 47,
          "midi": 44,
          "name": "G#2",
          "ticks": 23664,
          "time": 92.4375,
          "velocity": 0.6535433070866141
        },
        {
          "duration": 0.18359375,
          "durationTicks": 47,
          "midi": 46,
          "name": "A#2",
          "ticks": 23712,
          "time": 92.625,
          "velocity": 0.4409448818897638
        },
        {
          "duration": 0.18359375,
          "durationTicks": 47,
          "midi": 44,
          "name": "G#2",
          "ticks": 23760,
          "time": 92.8125,
          "velocity": 0.5118110236220472
        },
        {
          "duration": 0.18359375,
          "durationTicks": 47,
          "midi": 44,
          "name": "G#2",
          "ticks": 23808,
          "time": 93,
          "velocity": 0.7401574803149606
        },
        {
          "duration": 0.18359375,
          "durationTicks": 47,
          "midi": 44,
          "name": "G#2",
          "ticks": 23856,
          "time": 93.1875,
          "velocity": 0.5039370078740157
        },
        {
          "duration": 0.18359375,
          "durationTicks": 47,
          "midi": 44,
          "name": "G#2",
          "ticks": 23904,
          "time": 93.375,
          "velocity": 0.36220472440944884
        },
        {
          "duration": 0.18359375,
          "durationTicks": 47,
          "midi": 44,
          "name": "G#2",
          "ticks": 23952,
          "time": 93.5625,
          "velocity": 0.7007874015748031
        },
        {
          "duration": 0.18359375,
          "durationTicks": 47,
          "midi": 44,
          "name": "G#2",
          "ticks": 24000,
          "time": 93.75,
          "velocity": 0.48031496062992124
        },
        {
          "duration": 0.18359375,
          "durationTicks": 47,
          "midi": 44,
          "name": "G#2",
          "ticks": 24048,
          "time": 93.9375,
          "velocity": 0.36220472440944884
        },
        {
          "duration": 0.18359375,
          "durationTicks": 47,
          "midi": 46,
          "name": "A#2",
          "ticks": 24096,
          "time": 94.125,
          "velocity": 0.6062992125984252
        },
        {
          "duration": 0.18359375,
          "durationTicks": 47,
          "midi": 42,
          "name": "F#2",
          "ticks": 24144,
          "time": 94.3125,
          "velocity": 0.4251968503937008
        },
        {
          "duration": 0.18359375,
          "durationTicks": 47,
          "midi": 44,
          "name": "G#2",
          "ticks": 24192,
          "time": 94.5,
          "velocity": 0.7086614173228346
        },
        {
          "duration": 0.08984375,
          "durationTicks": 23,
          "midi": 44,
          "name": "G#2",
          "ticks": 24240,
          "time": 94.6875,
          "velocity": 0.6299212598425197
        },
        {
          "duration": 0.08984375,
          "durationTicks": 23,
          "midi": 44,
          "name": "G#2",
          "ticks": 24264,
          "time": 94.78125,
          "velocity": 0.6535433070866141
        },
        {
          "duration": 0.18359375,
          "durationTicks": 47,
          "midi": 44,
          "name": "G#2",
          "ticks": 24288,
          "time": 94.875,
          "velocity": 0.5354330708661418
        },
        {
          "duration": 0.18359375,
          "durationTicks": 47,
          "midi": 46,
          "name": "A#2",
          "ticks": 24336,
          "time": 95.0625,
          "velocity": 0.7007874015748031
        },
        {
          "duration": 0.08984375,
          "durationTicks": 23,
          "midi": 44,
          "name": "G#2",
          "ticks": 24384,
          "time": 95.25,
          "velocity": 0.6299212598425197
        },
        {
          "duration": 0.08984375,
          "durationTicks": 23,
          "midi": 44,
          "name": "G#2",
          "ticks": 24408,
          "time": 95.34375,
          "velocity": 0.6299212598425197
        },
        {
          "duration": 0.18359375,
          "durationTicks": 47,
          "midi": 44,
          "name": "G#2",
          "ticks": 24432,
          "time": 95.4375,
          "velocity": 0.6535433070866141
        },
        {
          "duration": 0.08984375,
          "durationTicks": 23,
          "midi": 46,
          "name": "A#2",
          "ticks": 24480,
          "time": 95.625,
          "velocity": 0.6299212598425197
        },
        {
          "duration": 0.08984375,
          "durationTicks": 23,
          "midi": 42,
          "name": "F#2",
          "ticks": 24504,
          "time": 95.71875,
          "velocity": 0.6299212598425197
        },
        {
          "duration": 0.08984375,
          "durationTicks": 23,
          "midi": 44,
          "name": "G#2",
          "ticks": 24528,
          "time": 95.8125,
          "velocity": 0.4881889763779528
        },
        {
          "duration": 0.08984375,
          "durationTicks": 23,
          "midi": 44,
          "name": "G#2",
          "ticks": 24552,
          "time": 95.90625,
          "velocity": 0.7007874015748031
        },
        {
          "duration": 0.18359375,
          "durationTicks": 47,
          "midi": 44,
          "name": "G#2",
          "ticks": 24576,
          "time": 96,
          "velocity": 0.7401574803149606
        },
        {
          "duration": 0.18359375,
          "durationTicks": 47,
          "midi": 44,
          "name": "G#2",
          "ticks": 24624,
          "time": 96.1875,
          "velocity": 0.5039370078740157
        },
        {
          "duration": 0.18359375,
          "durationTicks": 47,
          "midi": 44,
          "name": "G#2",
          "ticks": 24672,
          "time": 96.375,
          "velocity": 0.36220472440944884
        },
        {
          "duration": 0.18359375,
          "durationTicks": 47,
          "midi": 44,
          "name": "G#2",
          "ticks": 24720,
          "time": 96.5625,
          "velocity": 0.7007874015748031
        },
        {
          "duration": 0.18359375,
          "durationTicks": 47,
          "midi": 44,
          "name": "G#2",
          "ticks": 24768,
          "time": 96.75,
          "velocity": 0.48031496062992124
        },
        {
          "duration": 0.18359375,
          "durationTicks": 47,
          "midi": 44,
          "name": "G#2",
          "ticks": 24816,
          "time": 96.9375,
          "velocity": 0.36220472440944884
        },
        {
          "duration": 0.18359375,
          "durationTicks": 47,
          "midi": 46,
          "name": "A#2",
          "ticks": 24864,
          "time": 97.125,
          "velocity": 0.6062992125984252
        },
        {
          "duration": 0.18359375,
          "durationTicks": 47,
          "midi": 42,
          "name": "F#2",
          "ticks": 24912,
          "time": 97.3125,
          "velocity": 0.4251968503937008
        },
        {
          "duration": 0.18359375,
          "durationTicks": 47,
          "midi": 44,
          "name": "G#2",
          "ticks": 24960,
          "time": 97.5,
          "velocity": 0.7086614173228346
        },
        {
          "duration": 0.08984375,
          "durationTicks": 23,
          "midi": 44,
          "name": "G#2",
          "ticks": 25008,
          "time": 97.6875,
          "velocity": 0.6299212598425197
        },
        {
          "duration": 0.08984375,
          "durationTicks": 23,
          "midi": 44,
          "name": "G#2",
          "ticks": 25032,
          "time": 97.78125,
          "velocity": 0.6299212598425197
        },
        {
          "duration": 0.18359375,
          "durationTicks": 47,
          "midi": 44,
          "name": "G#2",
          "ticks": 25056,
          "time": 97.875,
          "velocity": 0.5354330708661418
        },
        {
          "duration": 0.18359375,
          "durationTicks": 47,
          "midi": 46,
          "name": "A#2",
          "ticks": 25104,
          "time": 98.0625,
          "velocity": 0.7007874015748031
        },
        {
          "duration": 0.18359375,
          "durationTicks": 47,
          "midi": 42,
          "name": "F#2",
          "ticks": 25152,
          "time": 98.25,
          "velocity": 0.5039370078740157
        },
        {
          "duration": 0.18359375,
          "durationTicks": 47,
          "midi": 44,
          "name": "G#2",
          "ticks": 25200,
          "time": 98.4375,
          "velocity": 0.6535433070866141
        },
        {
          "duration": 0.18359375,
          "durationTicks": 47,
          "midi": 46,
          "name": "A#2",
          "ticks": 25248,
          "time": 98.625,
          "velocity": 0.4409448818897638
        },
        {
          "duration": 0.18359375,
          "durationTicks": 47,
          "midi": 44,
          "name": "G#2",
          "ticks": 25296,
          "time": 98.8125,
          "velocity": 0.5118110236220472
        },
        {
          "duration": 0.18359375,
          "durationTicks": 47,
          "midi": 44,
          "name": "G#2",
          "ticks": 25344,
          "time": 99,
          "velocity": 0.7401574803149606
        },
        {
          "duration": 0.18359375,
          "durationTicks": 47,
          "midi": 44,
          "name": "G#2",
          "ticks": 25392,
          "time": 99.1875,
          "velocity": 0.5039370078740157
        },
        {
          "duration": 0.18359375,
          "durationTicks": 47,
          "midi": 44,
          "name": "G#2",
          "ticks": 25440,
          "time": 99.375,
          "velocity": 0.36220472440944884
        },
        {
          "duration": 0.18359375,
          "durationTicks": 47,
          "midi": 44,
          "name": "G#2",
          "ticks": 25488,
          "time": 99.5625,
          "velocity": 0.7007874015748031
        },
        {
          "duration": 0.18359375,
          "durationTicks": 47,
          "midi": 44,
          "name": "G#2",
          "ticks": 25536,
          "time": 99.75,
          "velocity": 0.48031496062992124
        },
        {
          "duration": 0.18359375,
          "durationTicks": 47,
          "midi": 44,
          "name": "G#2",
          "ticks": 25584,
          "time": 99.9375,
          "velocity": 0.36220472440944884
        },
        {
          "duration": 0.18359375,
          "durationTicks": 47,
          "midi": 46,
          "name": "A#2",
          "ticks": 25632,
          "time": 100.125,
          "velocity": 0.6062992125984252
        },
        {
          "duration": 0.18359375,
          "durationTicks": 47,
          "midi": 42,
          "name": "F#2",
          "ticks": 25680,
          "time": 100.3125,
          "velocity": 0.4251968503937008
        },
        {
          "duration": 0.18359375,
          "durationTicks": 47,
          "midi": 44,
          "name": "G#2",
          "ticks": 25728,
          "time": 100.5,
          "velocity": 0.7086614173228346
        },
        {
          "duration": 0.08984375,
          "durationTicks": 23,
          "midi": 44,
          "name": "G#2",
          "ticks": 25776,
          "time": 100.6875,
          "velocity": 0.6299212598425197
        },
        {
          "duration": 0.08984375,
          "durationTicks": 23,
          "midi": 44,
          "name": "G#2",
          "ticks": 25800,
          "time": 100.78125,
          "velocity": 0.6535433070866141
        },
        {
          "duration": 0.18359375,
          "durationTicks": 47,
          "midi": 44,
          "name": "G#2",
          "ticks": 25824,
          "time": 100.875,
          "velocity": 0.5354330708661418
        },
        {
          "duration": 0.18359375,
          "durationTicks": 47,
          "midi": 46,
          "name": "A#2",
          "ticks": 25872,
          "time": 101.0625,
          "velocity": 0.7007874015748031
        },
        {
          "duration": 0.08984375,
          "durationTicks": 23,
          "midi": 44,
          "name": "G#2",
          "ticks": 25920,
          "time": 101.25,
          "velocity": 0.6299212598425197
        },
        {
          "duration": 0.08984375,
          "durationTicks": 23,
          "midi": 44,
          "name": "G#2",
          "ticks": 25944,
          "time": 101.34375,
          "velocity": 0.6299212598425197
        },
        {
          "duration": 0.18359375,
          "durationTicks": 47,
          "midi": 44,
          "name": "G#2",
          "ticks": 25968,
          "time": 101.4375,
          "velocity": 0.6535433070866141
        },
        {
          "duration": 0.08984375,
          "durationTicks": 23,
          "midi": 46,
          "name": "A#2",
          "ticks": 26016,
          "time": 101.625,
          "velocity": 0.6299212598425197
        },
        {
          "duration": 0.08984375,
          "durationTicks": 23,
          "midi": 42,
          "name": "F#2",
          "ticks": 26040,
          "time": 101.71875,
          "velocity": 0.6299212598425197
        },
        {
          "duration": 0.08984375,
          "durationTicks": 23,
          "midi": 44,
          "name": "G#2",
          "ticks": 26064,
          "time": 101.8125,
          "velocity": 0.4881889763779528
        },
        {
          "duration": 0.08984375,
          "durationTicks": 23,
          "midi": 44,
          "name": "G#2",
          "ticks": 26088,
          "time": 101.90625,
          "velocity": 0.7007874015748031
        },
        {
          "duration": 0.23046875,
          "durationTicks": 59,
          "midi": 44,
          "name": "G#2",
          "ticks": 26112,
          "time": 102,
          "velocity": 0.6299212598425197
        },
        {
          "duration": 0.23046875,
          "durationTicks": 59,
          "midi": 36,
          "name": "C2",
          "ticks": 26112,
          "time": 102,
          "velocity": 0.6299212598425197
        },
        {
          "duration": 0.23046875,
          "durationTicks": 59,
          "midi": 46,
          "name": "A#2",
          "ticks": 26208,
          "time": 102.375,
          "velocity": 0.6299212598425197
        },
        {
          "duration": 0.1328125,
          "durationTicks": 34,
          "midi": 44,
          "name": "G#2",
          "ticks": 26272,
          "time": 102.625,
          "velocity": 0.6299212598425197
        },
        {
          "duration": 0.23046875,
          "durationTicks": 59,
          "midi": 42,
          "name": "F#2",
          "ticks": 26304,
          "time": 102.75,
          "velocity": 0.6299212598425197
        },
        {
          "duration": 0.23046875,
          "durationTicks": 59,
          "midi": 37,
          "name": "C#2",
          "ticks": 26304,
          "time": 102.75,
          "velocity": 0.6299212598425197
        },
        {
          "duration": 0.23046875,
          "durationTicks": 59,
          "midi": 46,
          "name": "A#2",
          "ticks": 26400,
          "time": 103.125,
          "velocity": 0.6299212598425197
        },
        {
          "duration": 0.1328125,
          "durationTicks": 34,
          "midi": 44,
          "name": "G#2",
          "ticks": 26464,
          "time": 103.375,
          "velocity": 0.6299212598425197
        },
        {
          "duration": 0.23046875,
          "durationTicks": 59,
          "midi": 36,
          "name": "C2",
          "ticks": 26496,
          "time": 103.5,
          "velocity": 0.6299212598425197
        },
        {
          "duration": 0.23046875,
          "durationTicks": 59,
          "midi": 46,
          "name": "A#2",
          "ticks": 26592,
          "time": 103.875,
          "velocity": 0.6299212598425197
        },
        {
          "duration": 0.1328125,
          "durationTicks": 34,
          "midi": 44,
          "name": "G#2",
          "ticks": 26656,
          "time": 104.125,
          "velocity": 0.6299212598425197
        },
        {
          "duration": 0.23046875,
          "durationTicks": 59,
          "midi": 42,
          "name": "F#2",
          "ticks": 26688,
          "time": 104.25,
          "velocity": 0.6299212598425197
        },
        {
          "duration": 0.23046875,
          "durationTicks": 59,
          "midi": 37,
          "name": "C#2",
          "ticks": 26688,
          "time": 104.25,
          "velocity": 0.6299212598425197
        },
        {
          "duration": 0.23046875,
          "durationTicks": 59,
          "midi": 46,
          "name": "A#2",
          "ticks": 26784,
          "time": 104.625,
          "velocity": 0.6299212598425197
        },
        {
          "duration": 0.1328125,
          "durationTicks": 34,
          "midi": 44,
          "name": "G#2",
          "ticks": 26848,
          "time": 104.875,
          "velocity": 0.6299212598425197
        },
        {
          "duration": 0.12109375,
          "durationTicks": 31,
          "midi": 38,
          "name": "D2",
          "ticks": 26880,
          "time": 105,
          "velocity": 0.031496062992125984
        },
        {
          "duration": 0.12109375,
          "durationTicks": 31,
          "midi": 38,
          "name": "D2",
          "ticks": 26912,
          "time": 105.125,
          "velocity": 0.10236220472440945
        },
        {
          "duration": 0.12109375,
          "durationTicks": 31,
          "midi": 38,
          "name": "D2",
          "ticks": 26944,
          "time": 105.25,
          "velocity": 0.15748031496062992
        },
        {
          "duration": 0.12109375,
          "durationTicks": 31,
          "midi": 38,
          "name": "D2",
          "ticks": 26976,
          "time": 105.375,
          "velocity": 0.2125984251968504
        },
        {
          "duration": 0.12109375,
          "durationTicks": 31,
          "midi": 38,
          "name": "D2",
          "ticks": 27008,
          "time": 105.5,
          "velocity": 0.28346456692913385
        },
        {
          "duration": 0.12109375,
          "durationTicks": 31,
          "midi": 38,
          "name": "D2",
          "ticks": 27040,
          "time": 105.625,
          "velocity": 0.33858267716535434
        },
        {
          "duration": 0.12109375,
          "durationTicks": 31,
          "midi": 38,
          "name": "D2",
          "ticks": 27072,
          "time": 105.75,
          "velocity": 0.4094488188976378
        },
        {
          "duration": 0.12109375,
          "durationTicks": 31,
          "midi": 38,
          "name": "D2",
          "ticks": 27104,
          "time": 105.875,
          "velocity": 0.4645669291338583
        },
        {
          "duration": 0.12109375,
          "durationTicks": 31,
          "midi": 38,
          "name": "D2",
          "ticks": 27136,
          "time": 106,
          "velocity": 0.5275590551181102
        },
        {
          "duration": 0.12109375,
          "durationTicks": 31,
          "midi": 38,
          "name": "D2",
          "ticks": 27168,
          "time": 106.125,
          "velocity": 0.5905511811023622
        },
        {
          "duration": 0.12109375,
          "durationTicks": 31,
          "midi": 38,
          "name": "D2",
          "ticks": 27200,
          "time": 106.25,
          "velocity": 0.6535433070866141
        },
        {
          "duration": 0.12109375,
          "durationTicks": 31,
          "midi": 38,
          "name": "D2",
          "ticks": 27232,
          "time": 106.375,
          "velocity": 0.7086614173228346
        },
        {
          "duration": 0.37109375,
          "durationTicks": 95,
          "midi": 49,
          "name": "C#3",
          "ticks": 27264,
          "time": 106.5,
          "velocity": 0.7795275590551181
        },
        {
          "duration": 0.2265625,
          "durationTicks": 58,
          "midi": 38,
          "name": "D2",
          "ticks": 27264,
          "time": 106.5,
          "velocity": 0.7795275590551181
        }
      ]
    },
    {
      "channel": 0,
      "controlChanges": {},
      "instrument": {
        "family": "piano",
        "name": "acoustic grand piano",
        "number": 0
      },
      "name": "Reservoir",
      "notes": []
    },
    {
      "channel": 0,
      "controlChanges": {},
      "instrument": {
        "family": "piano",
        "name": "acoustic grand piano",
        "number": 0
      },
      "name": "",
      "notes": []
    },
    {
      "channel": 0,
      "controlChanges": {},
      "instrument": {
        "family": "piano",
        "name": "acoustic grand piano",
        "number": 0
      },
      "name": "",
      "notes": []
    },
    {
      "channel": 0,
      "controlChanges": {},
      "instrument": {
        "family": "piano",
        "name": "acoustic grand piano",
        "number": 0
      },
      "name": "",
      "notes": []
    },
    {
      "channel": 0,
      "controlChanges": {},
      "instrument": {
        "family": "piano",
        "name": "acoustic grand piano",
        "number": 0
      },
      "name": "",
      "notes": []
    },
    {
      "channel": 0,
      "controlChanges": {},
      "instrument": {
        "family": "piano",
        "name": "acoustic grand piano",
        "number": 0
      },
      "name": "",
      "notes": []
    },
    {
      "channel": 0,
      "controlChanges": {},
      "instrument": {
        "family": "piano",
        "name": "acoustic grand piano",
        "number": 0
      },
      "name": "",
      "notes": []
    },
    {
      "channel": 0,
      "controlChanges": {},
      "instrument": {
        "family": "piano",
        "name": "acoustic grand piano",
        "number": 0
      },
      "name": "",
      "notes": []
    },
    {
      "channel": 0,
      "controlChanges": {},
      "instrument": {
        "family": "piano",
        "name": "acoustic grand piano",
        "number": 0
      },
      "name": "",
      "notes": []
    },
    {
      "channel": 0,
      "controlChanges": {},
      "instrument": {
        "family": "piano",
        "name": "acoustic grand piano",
        "number": 0
      },
      "name": "",
      "notes": []
    },
    {
      "channel": 0,
      "controlChanges": {},
      "instrument": {
        "family": "piano",
        "name": "acoustic grand piano",
        "number": 0
      },
      "name": "",
      "notes": []
    }
  ]
}
